<?xml version="1.0" encoding="utf-8"?>
<svg id="master-artboard" viewBox="0 0 402.689697265625 403.248779296875" version="1.1" xmlns="http://www.w3.org/2000/svg" x="0px" y="0px" style="enable-background:new 0 0 336 235.2;" width="402.689697265625px" height="403.248779296875px"><rect id="ee-background" x="0" y="0" width="402.689697265625" height="403.248779296875" style="fill: white; fill-opacity: 0; pointer-events: none;"/><g transform="matrix(2.9351425170898438, 0, 0, 2.9351425170898438, 0.35588908195495605, 232.20303344726562)"><title>edu-sharing Logo</title><path id="Fill-12" class="cls-1" d="M81.86,99.76L63.7,68.63,81.86,37.5h36.33l18.16,31.13L118.19,99.76H81.86" style="fill: rgb(78, 121, 142);" transform="matrix(1, 0, 0, 1, 0.34069889631220307, -78.99173736572266)"/><path id="Fill-13" class="cls-2" d="M18.16,62.67L0,31.54,18.16,0.41H54.49L72.65,31.54,54.49,62.67H18.16" style="fill: rgb(145, 189, 203);" transform="matrix(1, 0, 0, 1, 0.34069889631220307, -78.99173736572266)"/><path id="Fill-14" class="cls-3" d="M18.16,136.84L0,105.72,18.16,74.59H54.49l18.16,31.13L54.49,136.84H18.16" style="fill: rgb(39, 79, 102);" transform="matrix(1, 0, 0, 1, 0.34069889631220307, -78.99173736572266)"/></g></svg>