<?xml version="1.0" encoding="UTF-8" standalone="no"?>
<!DOCTYPE svg PUBLIC "-//W3C//DTD SVG 1.1//EN" "http://www.w3.org/Graphics/SVG/1.1/DTD/svg11.dtd">
<svg width="100%" height="100%" viewBox="0 0 300 300" version="1.1" xmlns="http://www.w3.org/2000/svg" xmlns:xlink="http://www.w3.org/1999/xlink" xml:space="preserve" xmlns:serif="http://www.serif.com/" style="fill-rule:evenodd;clip-rule:evenodd;stroke-linejoin:round;stroke-miterlimit:2;">
    <rect id="Play" x="0" y="0" width="300" height="300" style="fill:none;"/>
    <g id="Play1" serif:id="Play">
        <g transform="matrix(1.21457,0,0,1.21457,-55.8704,-35.2227)">
            <circle cx="169.5" cy="152.5" r="123.5" style="fill:rgb(128,128,128);"/>
            <path d="M169.899,29.001L170.298,29.003L170.697,29.006L171.095,29.01L171.493,29.016L171.891,29.023L172.288,29.031L172.686,29.04L173.082,29.051L173.479,29.063L173.875,29.076L174.271,29.091L174.666,29.106L175.062,29.123L175.457,29.141L175.851,29.161L176.246,29.181L176.64,29.203L177.033,29.226L177.426,29.251L177.819,29.276L178.212,29.303L178.604,29.331L178.996,29.36L179.388,29.391L179.779,29.423L180.17,29.455L180.561,29.49L180.951,29.525L181.341,29.561L181.73,29.599L182.12,29.638L182.508,29.678L182.897,29.72L183.285,29.762L183.673,29.806L184.06,29.851L184.447,29.897L184.834,29.944L185.22,29.993L185.606,30.043L185.992,30.094L186.377,30.146L186.762,30.199L187.146,30.254L187.53,30.309L187.914,30.366L188.297,30.424L188.68,30.483L189.063,30.544L189.445,30.605L189.827,30.668L190.208,30.732L190.589,30.797L190.969,30.863L191.35,30.93L191.729,30.999L192.109,31.069L192.488,31.139L192.866,31.211L193.244,31.285L193.622,31.359L194,31.434L194.376,31.511L194.753,31.589L195.129,31.668L195.505,31.748L195.88,31.829L196.255,31.911L196.629,31.995L197.003,32.079L197.377,32.165L197.75,32.252L198.122,32.34L198.495,32.429L198.867,32.519L199.238,32.61L199.609,32.703L199.979,32.796L200.349,32.891L200.719,32.987L201.088,33.084L201.457,33.182L201.825,33.281L202.193,33.381L202.56,33.482L202.927,33.585L203.293,33.688L203.659,33.793L204.025,33.899L204.39,34.006L204.755,34.114L205.119,34.223L205.482,34.333L205.845,34.444L206.208,34.556L206.57,34.67L206.932,34.784L207.293,34.9L207.654,35.016L208.014,35.134L208.374,35.253L208.734,35.373L209.092,35.493L209.451,35.615L209.809,35.738L210.166,35.863L210.523,35.988L210.879,36.114L211.235,36.241L211.59,36.37L211.945,36.499L212.299,36.63L212.653,36.761L213.007,36.894L213.359,37.027L213.712,37.162L214.064,37.298L214.415,37.434L214.766,37.572L215.116,37.711L215.465,37.851L215.815,37.992L216.163,38.134L216.511,38.277L216.859,38.421L217.206,38.566L217.553,38.712L217.898,38.859L218.244,39.007L218.589,39.156L218.933,39.306L219.277,39.457L219.62,39.609L219.963,39.763L220.305,39.917L220.647,40.072L220.988,40.228L221.328,40.385L221.668,40.543L222.008,40.703L222.346,40.863L222.685,41.024L223.022,41.186L223.36,41.349L223.696,41.514L224.032,41.679L224.368,41.845L224.702,42.012L225.037,42.18L225.37,42.349L225.703,42.519L226.036,42.69L226.368,42.862L226.699,43.035L227.03,43.209L227.36,43.384L227.69,43.56L228.019,43.737L228.347,43.915L228.675,44.094L229.002,44.274L229.329,44.454L229.655,44.636L229.98,44.819L230.305,45.002L230.629,45.187L230.953,45.372L231.276,45.559L231.598,45.746L231.92,45.934L232.241,46.124L232.561,46.314L232.881,46.505L233.2,46.697L233.519,46.89L233.837,47.084L234.154,47.279L234.471,47.475L234.787,47.672L235.103,47.869L235.417,48.068L235.732,48.267L236.045,48.468L236.358,48.669L236.67,48.871L236.982,49.074L237.293,49.279L237.603,49.484L237.913,49.689L238.222,49.896L238.53,50.104L238.838,50.313L239.145,50.522L239.451,50.732L239.757,50.944L240.062,51.156L240.366,51.369L240.67,51.583L240.973,51.798L241.275,52.014L241.577,52.23L241.878,52.448L242.178,52.666L242.478,52.885L242.777,53.106L243.075,53.327L243.372,53.548L243.669,53.771L243.965,53.995L244.261,54.219L244.556,54.445L244.85,54.671L245.143,54.898L245.436,55.126L245.728,55.355L246.019,55.585L246.31,55.815L246.6,56.047L246.889,56.279L247.177,56.512L247.465,56.746L247.752,56.981L248.039,57.216L248.324,57.453L248.609,57.69L248.893,57.928L249.177,58.167L249.459,58.407L249.741,58.647L250.022,58.889L250.303,59.131L250.583,59.374L250.862,59.618L251.14,59.863L251.418,60.109L251.695,60.355L251.971,60.602L252.246,60.85L252.52,61.099L252.794,61.349L253.067,61.599L253.34,61.85L253.611,62.103L253.882,62.355L254.152,62.609L254.421,62.864L254.69,63.119L254.958,63.375L255.225,63.632L255.491,63.889L255.756,64.148L256.021,64.407L256.285,64.667L256.548,64.928L256.811,65.189L257.072,65.452L257.333,65.715L257.593,65.979L257.852,66.244L258.111,66.509L258.368,66.775L258.625,67.042L258.881,67.31L259.136,67.579L259.391,67.848L259.645,68.118L259.897,68.389L260.15,68.66L260.401,68.933L260.651,69.206L260.901,69.48L261.15,69.754L261.398,70.029L261.645,70.305L261.891,70.582L262.137,70.86L262.382,71.138L262.626,71.417L262.869,71.697L263.111,71.978L263.353,72.259L263.593,72.541L263.833,72.823L264.072,73.107L264.31,73.391L264.547,73.676L264.784,73.961L265.019,74.248L265.254,74.535L265.488,74.823L265.721,75.111L265.953,75.4L266.185,75.69L266.415,75.981L266.645,76.272L266.874,76.564L267.102,76.857L267.329,77.15L267.555,77.444L267.781,77.739L268.005,78.035L268.229,78.331L268.452,78.628L268.673,78.925L268.894,79.223L269.115,79.522L269.334,79.822L269.552,80.122L269.77,80.423L269.986,80.725L270.202,81.027L270.417,81.33L270.631,81.634L270.844,81.938L271.056,82.243L271.268,82.549L271.478,82.855L271.687,83.162L271.896,83.47L272.104,83.778L272.311,84.087L272.516,84.397L272.721,84.707L272.926,85.018L273.129,85.33L273.331,85.642L273.532,85.955L273.733,86.268L273.932,86.583L274.131,86.897L274.328,87.213L274.525,87.529L274.721,87.846L274.916,88.163L275.11,88.481L275.303,88.8L275.495,89.119L275.686,89.439L275.876,89.759L276.066,90.08L276.254,90.402L276.441,90.724L276.628,91.047L276.813,91.371L276.998,91.695L277.181,92.02L277.364,92.345L277.546,92.671L277.726,92.998L277.906,93.325L278.085,93.653L278.263,93.981L278.44,94.31L278.616,94.64L278.791,94.97L278.965,95.301L279.138,95.632L279.31,95.964L279.481,96.297L279.651,96.63L279.82,96.963L279.988,97.298L280.155,97.632L280.321,97.968L280.486,98.304L280.651,98.64L280.814,98.978L280.976,99.315L281.137,99.654L281.297,99.992L281.457,100.332L281.615,100.672L281.772,101.012L281.928,101.353L282.083,101.695L282.237,102.037L282.391,102.38L282.543,102.723L282.694,103.067L282.844,103.411L282.993,103.756L283.141,104.102L283.288,104.447L283.434,104.794L283.579,105.141L283.723,105.489L283.866,105.837L284.008,106.185L284.149,106.535L284.289,106.884L284.428,107.234L284.566,107.585L284.702,107.936L284.838,108.288L284.973,108.641L285.106,108.993L285.239,109.347L285.37,109.701L285.501,110.055L285.63,110.41L285.759,110.765L285.886,111.121L286.012,111.477L286.137,111.834L286.262,112.191L286.385,112.549L286.507,112.908L286.627,113.266L286.747,113.626L286.866,113.986L286.984,114.346L287.1,114.707L287.216,115.068L287.33,115.43L287.444,115.792L287.556,116.155L287.667,116.518L287.777,116.881L287.886,117.245L287.994,117.61L288.101,117.975L288.207,118.341L288.312,118.707L288.415,119.073L288.518,119.44L288.619,119.807L288.719,120.175L288.818,120.543L288.916,120.912L289.013,121.281L289.109,121.651L289.204,122.021L289.297,122.391L289.39,122.762L289.481,123.133L289.571,123.505L289.66,123.878L289.748,124.25L289.835,124.623L289.921,124.997L290.005,125.371L290.089,125.745L290.171,126.12L290.252,126.495L290.332,126.871L290.411,127.247L290.489,127.624L290.566,128L290.641,128.378L290.715,128.756L290.789,129.134L290.861,129.512L290.931,129.891L291.001,130.271L291.07,130.65L291.137,131.031L291.203,131.411L291.268,131.792L291.332,132.173L291.395,132.555L291.456,132.937L291.517,133.32L291.576,133.703L291.634,134.086L291.691,134.47L291.746,134.854L291.801,135.238L291.854,135.623L291.906,136.008L291.957,136.394L292.007,136.78L292.056,137.166L292.103,137.553L292.149,137.94L292.194,138.327L292.238,138.715L292.28,139.103L292.322,139.492L292.362,139.88L292.401,140.27L292.439,140.659L292.475,141.049L292.51,141.439L292.545,141.83L292.577,142.221L292.609,142.612L292.64,143.004L292.669,143.396L292.697,143.788L292.724,144.181L292.749,144.574L292.774,144.967L292.797,145.36L292.819,145.754L292.839,146.149L292.859,146.543L292.877,146.938L292.894,147.334L292.909,147.729L292.924,148.125L292.937,148.521L292.949,148.918L292.96,149.314L292.969,149.712L292.977,150.109L292.984,150.507L292.99,150.905L292.994,151.303L292.997,151.702L292.999,152.101L293,152.5L292.999,152.899L292.997,153.298L292.994,153.697L292.99,154.095L292.984,154.493L292.977,154.891L292.969,155.288L292.96,155.686L292.949,156.082L292.937,156.479L292.924,156.875L292.909,157.271L292.894,157.666L292.877,158.062L292.859,158.457L292.839,158.851L292.819,159.246L292.797,159.64L292.774,160.033L292.749,160.426L292.724,160.819L292.697,161.212L292.669,161.604L292.64,161.996L292.609,162.388L292.577,162.779L292.545,163.17L292.51,163.561L292.475,163.951L292.439,164.341L292.401,164.73L292.362,165.12L292.322,165.508L292.28,165.897L292.238,166.285L292.194,166.673L292.149,167.06L292.103,167.447L292.056,167.834L292.007,168.22L291.957,168.606L291.906,168.992L291.854,169.377L291.801,169.762L291.746,170.146L291.691,170.53L291.634,170.914L291.576,171.297L291.517,171.68L291.456,172.063L291.395,172.445L291.332,172.827L291.268,173.208L291.203,173.589L291.137,173.969L291.07,174.35L291.001,174.729L290.931,175.109L290.861,175.488L290.789,175.866L290.715,176.244L290.641,176.622L290.566,177L290.489,177.376L290.411,177.753L290.332,178.129L290.252,178.505L290.171,178.88L290.089,179.255L290.005,179.629L289.921,180.003L289.835,180.377L289.748,180.75L289.66,181.122L289.571,181.495L289.481,181.867L289.39,182.238L289.297,182.609L289.204,182.979L289.109,183.349L289.013,183.719L288.916,184.088L288.818,184.457L288.719,184.825L288.619,185.193L288.518,185.56L288.415,185.927L288.312,186.293L288.207,186.659L288.101,187.025L287.994,187.39L287.886,187.755L287.777,188.119L287.667,188.482L287.556,188.845L287.444,189.208L287.33,189.57L287.216,189.932L287.1,190.293L286.984,190.654L286.866,191.014L286.747,191.374L286.627,191.734L286.507,192.092L286.385,192.451L286.262,192.809L286.137,193.166L286.012,193.523L285.886,193.879L285.759,194.235L285.63,194.59L285.501,194.945L285.37,195.299L285.239,195.653L285.106,196.007L284.973,196.359L284.838,196.712L284.702,197.064L284.566,197.415L284.428,197.766L284.289,198.116L284.149,198.465L284.008,198.815L283.866,199.163L283.723,199.511L283.579,199.859L283.434,200.206L283.288,200.553L283.141,200.898L282.993,201.244L282.844,201.589L282.694,201.933L282.543,202.277L282.391,202.62L282.237,202.963L282.083,203.305L281.928,203.647L281.772,203.988L281.615,204.328L281.457,204.668L281.297,205.008L281.137,205.346L280.976,205.685L280.814,206.022L280.651,206.36L280.486,206.696L280.321,207.032L280.155,207.368L279.988,207.702L279.82,208.037L279.651,208.37L279.481,208.703L279.31,209.036L279.138,209.368L278.965,209.699L278.791,210.03L278.616,210.36L278.44,210.69L278.263,211.019L278.085,211.347L277.906,211.675L277.726,212.002L277.546,212.329L277.364,212.655L277.181,212.98L276.998,213.305L276.813,213.629L276.628,213.953L276.441,214.276L276.254,214.598L276.066,214.92L275.876,215.241L275.686,215.561L275.495,215.881L275.303,216.2L275.11,216.519L274.916,216.837L274.721,217.154L274.525,217.471L274.328,217.787L274.131,218.103L273.932,218.417L273.733,218.732L273.532,219.045L273.331,219.358L273.129,219.67L272.926,219.982L272.721,220.293L272.516,220.603L272.311,220.913L272.104,221.222L271.896,221.53L271.687,221.838L271.478,222.145L271.268,222.451L271.056,222.757L270.844,223.062L270.631,223.366L270.417,223.67L270.202,223.973L269.986,224.275L269.77,224.577L269.552,224.878L269.334,225.178L269.115,225.478L268.894,225.777L268.673,226.075L268.452,226.372L268.229,226.669L268.005,226.965L267.781,227.261L267.555,227.556L267.329,227.85L267.102,228.143L266.874,228.436L266.645,228.728L266.415,229.019L266.185,229.31L265.953,229.6L265.721,229.889L265.488,230.177L265.254,230.465L265.019,230.752L264.784,231.039L264.547,231.324L264.31,231.609L264.072,231.893L263.833,232.177L263.593,232.459L263.353,232.741L263.111,233.022L262.869,233.303L262.626,233.583L262.382,233.862L262.137,234.14L261.891,234.418L261.645,234.695L261.398,234.971L261.15,235.246L260.901,235.52L260.651,235.794L260.401,236.067L260.15,236.34L259.897,236.611L259.645,236.882L259.391,237.152L259.136,237.421L258.881,237.69L258.625,237.958L258.368,238.225L258.111,238.491L257.852,238.756L257.593,239.021L257.333,239.285L257.072,239.548L256.811,239.811L256.548,240.072L256.285,240.333L256.021,240.593L255.756,240.852L255.491,241.111L255.225,241.368L254.958,241.625L254.69,241.881L254.421,242.136L254.152,242.391L253.882,242.645L253.611,242.897L253.34,243.15L253.067,243.401L252.794,243.651L252.52,243.901L252.246,244.15L251.971,244.398L251.695,244.645L251.418,244.891L251.14,245.137L250.862,245.382L250.583,245.626L250.303,245.869L250.022,246.111L249.741,246.353L249.459,246.593L249.177,246.833L248.893,247.072L248.609,247.31L248.324,247.547L248.039,247.784L247.752,248.019L247.465,248.254L247.177,248.488L246.889,248.721L246.6,248.953L246.31,249.185L246.019,249.415L245.728,249.645L245.436,249.874L245.143,250.102L244.85,250.329L244.556,250.555L244.261,250.781L243.965,251.005L243.669,251.229L243.372,251.452L243.075,251.673L242.777,251.894L242.478,252.115L242.178,252.334L241.878,252.552L241.577,252.77L241.275,252.986L240.973,253.202L240.67,253.417L240.366,253.631L240.062,253.844L239.757,254.056L239.451,254.268L239.145,254.478L238.838,254.687L238.53,254.896L238.222,255.104L237.913,255.311L237.603,255.516L237.293,255.721L236.982,255.926L236.67,256.129L236.358,256.331L236.045,256.532L235.732,256.733L235.417,256.932L235.103,257.131L234.787,257.328L234.471,257.525L234.154,257.721L233.837,257.916L233.519,258.11L233.2,258.303L232.881,258.495L232.561,258.686L232.241,258.876L231.92,259.066L231.598,259.254L231.276,259.441L230.953,259.628L230.629,259.813L230.305,259.998L229.98,260.181L229.655,260.364L229.329,260.546L229.002,260.726L228.675,260.906L228.347,261.085L228.019,261.263L227.69,261.44L227.36,261.616L227.03,261.791L226.699,261.965L226.368,262.138L226.036,262.31L225.703,262.481L225.37,262.651L225.037,262.82L224.702,262.988L224.368,263.155L224.032,263.321L223.696,263.486L223.36,263.651L223.022,263.814L222.685,263.976L222.346,264.137L222.008,264.297L221.668,264.457L221.328,264.615L220.988,264.772L220.647,264.928L220.305,265.083L219.963,265.237L219.62,265.391L219.277,265.543L218.933,265.694L218.589,265.844L218.244,265.993L217.898,266.141L217.553,266.288L217.206,266.434L216.859,266.579L216.511,266.723L216.163,266.866L215.815,267.008L215.465,267.149L215.116,267.289L214.766,267.428L214.415,267.566L214.064,267.702L213.712,267.838L213.359,267.973L213.007,268.106L212.653,268.239L212.299,268.37L211.945,268.501L211.59,268.63L211.235,268.759L210.879,268.886L210.523,269.012L210.166,269.137L209.809,269.262L209.451,269.385L209.092,269.507L208.734,269.627L208.374,269.747L208.014,269.866L207.654,269.984L207.293,270.1L206.932,270.216L206.57,270.33L206.208,270.444L205.845,270.556L205.482,270.667L205.119,270.777L204.755,270.886L204.39,270.994L204.025,271.101L203.659,271.207L203.293,271.312L202.927,271.415L202.56,271.518L202.193,271.619L201.825,271.719L201.457,271.818L201.088,271.916L200.719,272.013L200.349,272.109L199.979,272.204L199.609,272.297L199.238,272.39L198.867,272.481L198.495,272.571L198.122,272.66L197.75,272.748L197.377,272.835L197.003,272.921L196.629,273.005L196.255,273.089L195.88,273.171L195.505,273.252L195.129,273.332L194.753,273.411L194.376,273.489L194,273.566L193.622,273.641L193.244,273.715L192.866,273.789L192.488,273.861L192.109,273.931L191.729,274.001L191.35,274.07L190.969,274.137L190.589,274.203L190.208,274.268L189.827,274.332L189.445,274.395L189.063,274.456L188.68,274.517L188.297,274.576L187.914,274.634L187.53,274.691L187.146,274.746L186.762,274.801L186.377,274.854L185.992,274.906L185.606,274.957L185.22,275.007L184.834,275.056L184.447,275.103L184.06,275.149L183.673,275.194L183.285,275.238L182.897,275.28L182.508,275.322L182.12,275.362L181.73,275.401L181.341,275.439L180.951,275.475L180.561,275.51L180.17,275.545L179.779,275.577L179.388,275.609L178.996,275.64L178.604,275.669L178.212,275.697L177.819,275.724L177.426,275.749L177.033,275.774L176.64,275.797L176.246,275.819L175.851,275.839L175.457,275.859L175.062,275.877L174.666,275.894L174.271,275.909L173.875,275.924L173.479,275.937L173.082,275.949L172.686,275.96L172.288,275.969L171.891,275.977L171.493,275.984L171.095,275.99L170.697,275.994L170.298,275.997L169.899,275.999L169.5,276L169.101,275.999L168.702,275.997L168.303,275.994L167.905,275.99L167.507,275.984L167.109,275.977L166.712,275.969L166.314,275.96L165.918,275.949L165.521,275.937L165.125,275.924L164.729,275.909L164.334,275.894L163.938,275.877L163.543,275.859L163.149,275.839L162.754,275.819L162.36,275.797L161.967,275.774L161.574,275.749L161.181,275.724L160.788,275.697L160.396,275.669L160.004,275.64L159.612,275.609L159.221,275.577L158.83,275.545L158.439,275.51L158.049,275.475L157.659,275.439L157.27,275.401L156.88,275.362L156.492,275.322L156.103,275.28L155.715,275.238L155.327,275.194L154.94,275.149L154.553,275.103L154.166,275.056L153.78,275.007L153.394,274.957L153.008,274.906L152.623,274.854L152.238,274.801L151.854,274.746L151.47,274.691L151.086,274.634L150.703,274.576L150.32,274.517L149.937,274.456L149.555,274.395L149.173,274.332L148.792,274.268L148.411,274.203L148.031,274.137L147.65,274.07L147.271,274.001L146.891,273.931L146.512,273.861L146.134,273.789L145.756,273.715L145.378,273.641L145,273.566L144.624,273.489L144.247,273.411L143.871,273.332L143.495,273.252L143.12,273.171L142.745,273.089L142.371,273.005L141.997,272.921L141.623,272.835L141.25,272.748L140.878,272.66L140.505,272.571L140.133,272.481L139.762,272.39L139.391,272.297L139.021,272.204L138.651,272.109L138.281,272.013L137.912,271.916L137.543,271.818L137.175,271.719L136.807,271.619L136.44,271.518L136.073,271.415L135.707,271.312L135.341,271.207L134.975,271.101L134.61,270.994L134.245,270.886L133.881,270.777L133.518,270.667L133.155,270.556L132.792,270.444L132.43,270.33L132.068,270.216L131.707,270.1L131.346,269.984L130.986,269.866L130.626,269.747L130.266,269.627L129.908,269.507L129.549,269.385L129.191,269.262L128.834,269.137L128.477,269.012L128.121,268.886L127.765,268.759L127.41,268.63L127.055,268.501L126.701,268.37L126.347,268.239L125.993,268.106L125.641,267.973L125.288,267.838L124.936,267.702L124.585,267.566L124.234,267.428L123.884,267.289L123.535,267.149L123.185,267.008L122.837,266.866L122.489,266.723L122.141,266.579L121.794,266.434L121.447,266.288L121.102,266.141L120.756,265.993L120.411,265.844L120.067,265.694L119.723,265.543L119.38,265.391L119.037,265.237L118.695,265.083L118.353,264.928L118.012,264.772L117.672,264.615L117.332,264.457L116.992,264.297L116.654,264.137L116.315,263.976L115.978,263.814L115.64,263.651L115.304,263.486L114.968,263.321L114.632,263.155L114.298,262.988L113.963,262.82L113.63,262.651L113.297,262.481L112.964,262.31L112.632,262.138L112.301,261.965L111.97,261.791L111.64,261.616L111.31,261.44L110.981,261.263L110.653,261.085L110.325,260.906L109.998,260.726L109.671,260.546L109.345,260.364L109.02,260.181L108.695,259.998L108.371,259.813L108.047,259.628L107.724,259.441L107.402,259.254L107.08,259.066L106.759,258.876L106.439,258.686L106.119,258.495L105.8,258.303L105.481,258.11L105.163,257.916L104.846,257.721L104.529,257.525L104.213,257.328L103.897,257.131L103.583,256.932L103.268,256.733L102.955,256.532L102.642,256.331L102.33,256.129L102.018,255.926L101.707,255.721L101.397,255.516L101.087,255.311L100.778,255.104L100.47,254.896L100.162,254.687L99.855,254.478L99.549,254.268L99.243,254.056L98.938,253.844L98.634,253.631L98.33,253.417L98.027,253.202L97.725,252.986L97.423,252.77L97.122,252.552L96.822,252.334L96.522,252.115L96.223,251.894L95.925,251.673L95.628,251.452L95.331,251.229L95.035,251.005L94.739,250.781L94.444,250.555L94.15,250.329L93.857,250.102L93.564,249.874L93.272,249.645L92.981,249.415L92.69,249.185L92.4,248.953L92.111,248.721L91.823,248.488L91.535,248.254L91.248,248.019L90.961,247.784L90.676,247.547L90.391,247.31L90.107,247.072L89.823,246.833L89.541,246.593L89.259,246.353L88.978,246.111L88.697,245.869L88.417,245.626L88.138,245.382L87.86,245.137L87.582,244.891L87.305,244.645L87.029,244.398L86.754,244.15L86.48,243.901L86.206,243.651L85.933,243.401L85.66,243.15L85.389,242.897L85.118,242.645L84.848,242.391L84.579,242.136L84.31,241.881L84.042,241.625L83.775,241.368L83.509,241.111L83.244,240.852L82.979,240.593L82.715,240.333L82.452,240.072L82.189,239.811L81.928,239.548L81.667,239.285L81.407,239.021L81.148,238.756L80.889,238.491L80.632,238.225L80.375,237.958L80.119,237.69L79.864,237.421L79.609,237.152L79.355,236.882L79.103,236.611L78.85,236.34L78.599,236.067L78.349,235.794L78.099,235.52L77.85,235.246L77.602,234.971L77.355,234.695L77.109,234.418L76.863,234.14L76.618,233.862L76.374,233.583L76.131,233.303L75.889,233.022L75.647,232.741L75.407,232.459L75.167,232.177L74.928,231.893L74.69,231.609L74.453,231.324L74.216,231.039L73.981,230.752L73.746,230.465L73.512,230.177L73.279,229.889L73.047,229.6L72.815,229.31L72.585,229.019L72.355,228.728L72.126,228.436L71.898,228.143L71.671,227.85L71.445,227.556L71.219,227.261L70.995,226.965L70.771,226.669L70.548,226.372L70.327,226.075L70.106,225.777L69.885,225.478L69.666,225.178L69.448,224.878L69.23,224.577L69.014,224.275L68.798,223.973L68.583,223.67L68.369,223.366L68.156,223.062L67.944,222.757L67.732,222.451L67.522,222.145L67.313,221.838L67.104,221.53L66.896,221.222L66.689,220.913L66.484,220.603L66.279,220.293L66.074,219.982L65.871,219.67L65.669,219.358L65.468,219.045L65.267,218.732L65.068,218.417L64.869,218.103L64.672,217.787L64.475,217.471L64.279,217.154L64.084,216.837L63.89,216.519L63.697,216.2L63.505,215.881L63.314,215.561L63.124,215.241L62.934,214.92L62.746,214.598L62.559,214.276L62.372,213.953L62.187,213.629L62.002,213.305L61.819,212.98L61.636,212.655L61.454,212.329L61.274,212.002L61.094,211.675L60.915,211.347L60.737,211.019L60.56,210.69L60.384,210.36L60.209,210.03L60.035,209.699L59.862,209.368L59.69,209.036L59.519,208.703L59.349,208.37L59.18,208.037L59.012,207.702L58.845,207.368L58.679,207.032L58.514,206.696L58.349,206.36L58.186,206.022L58.024,205.685L57.863,205.346L57.703,205.008L57.543,204.668L57.385,204.328L57.228,203.988L57.072,203.647L56.917,203.305L56.763,202.963L56.609,202.62L56.457,202.277L56.306,201.933L56.156,201.589L56.007,201.244L55.859,200.898L55.712,200.553L55.566,200.206L55.421,199.859L55.277,199.511L55.134,199.163L54.992,198.815L54.851,198.465L54.711,198.116L54.572,197.766L54.434,197.415L54.298,197.064L54.162,196.712L54.027,196.359L53.894,196.007L53.761,195.653L53.63,195.299L53.499,194.945L53.37,194.59L53.241,194.235L53.114,193.879L52.988,193.523L52.863,193.166L52.738,192.809L52.615,192.451L52.493,192.092L52.373,191.734L52.253,191.374L52.134,191.014L52.016,190.654L51.9,190.293L51.784,189.932L51.67,189.57L51.556,189.208L51.444,188.845L51.333,188.482L51.223,188.119L51.114,187.755L51.006,187.39L50.899,187.025L50.793,186.659L50.688,186.293L50.585,185.927L50.482,185.56L50.381,185.193L50.281,184.825L50.182,184.457L50.084,184.088L49.987,183.719L49.891,183.349L49.796,182.979L49.703,182.609L49.61,182.238L49.519,181.867L49.429,181.495L49.34,181.122L49.252,180.75L49.165,180.377L49.079,180.003L48.995,179.629L48.911,179.255L48.829,178.88L48.748,178.505L48.668,178.129L48.589,177.753L48.511,177.376L48.434,177L48.359,176.622L48.285,176.244L48.211,175.866L48.139,175.488L48.069,175.109L47.999,174.729L47.93,174.35L47.863,173.969L47.797,173.589L47.732,173.208L47.668,172.827L47.605,172.445L47.544,172.063L47.483,171.68L47.424,171.297L47.366,170.914L47.309,170.53L47.254,170.146L47.199,169.762L47.146,169.377L47.094,168.992L47.043,168.606L46.993,168.22L46.944,167.834L46.897,167.447L46.851,167.06L46.806,166.673L46.762,166.285L46.72,165.897L46.678,165.508L46.638,165.12L46.599,164.73L46.561,164.341L46.525,163.951L46.49,163.561L46.455,163.17L46.423,162.779L46.391,162.388L46.36,161.996L46.331,161.604L46.303,161.212L46.276,160.819L46.251,160.426L46.226,160.033L46.203,159.64L46.181,159.246L46.161,158.851L46.141,158.457L46.123,158.062L46.106,157.666L46.091,157.271L46.076,156.875L46.063,156.479L46.051,156.082L46.04,155.686L46.031,155.288L46.023,154.891L46.016,154.493L46.01,154.095L46.006,153.697L46.003,153.298L46.001,152.899L46,152.5L46.001,152.101L46.003,151.702L46.006,151.303L46.01,150.905L46.016,150.507L46.023,150.109L46.031,149.712L46.04,149.314L46.051,148.918L46.063,148.521L46.076,148.125L46.091,147.729L46.106,147.334L46.123,146.938L46.141,146.543L46.161,146.149L46.181,145.754L46.203,145.36L46.226,144.967L46.251,144.574L46.276,144.181L46.303,143.788L46.331,143.396L46.36,143.004L46.391,142.612L46.423,142.221L46.455,141.83L46.49,141.439L46.525,141.049L46.561,140.659L46.599,140.27L46.638,139.88L46.678,139.492L46.72,139.103L46.762,138.715L46.806,138.327L46.851,137.94L46.897,137.553L46.944,137.166L46.993,136.78L47.043,136.394L47.094,136.008L47.146,135.623L47.199,135.238L47.254,134.854L47.309,134.47L47.366,134.086L47.424,133.703L47.483,133.32L47.544,132.937L47.605,132.555L47.668,132.173L47.732,131.792L47.797,131.411L47.863,131.031L47.93,130.65L47.999,130.271L48.069,129.891L48.139,129.512L48.211,129.134L48.285,128.756L48.359,128.378L48.434,128L48.511,127.624L48.589,127.247L48.668,126.871L48.748,126.495L48.829,126.12L48.911,125.745L48.995,125.371L49.079,124.997L49.165,124.623L49.252,124.25L49.34,123.878L49.429,123.505L49.519,123.133L49.61,122.762L49.703,122.391L49.796,122.021L49.891,121.651L49.987,121.281L50.084,120.912L50.182,120.543L50.281,120.175L50.381,119.807L50.482,119.44L50.585,119.073L50.688,118.707L50.793,118.341L50.899,117.975L51.006,117.61L51.114,117.245L51.223,116.881L51.333,116.518L51.444,116.155L51.556,115.792L51.67,115.43L51.784,115.068L51.9,114.707L52.016,114.346L52.134,113.986L52.253,113.626L52.373,113.266L52.493,112.908L52.615,112.549L52.738,112.191L52.863,111.834L52.988,111.477L53.114,111.121L53.241,110.765L53.37,110.41L53.499,110.055L53.63,109.701L53.761,109.347L53.894,108.993L54.027,108.641L54.162,108.288L54.298,107.936L54.434,107.585L54.572,107.234L54.711,106.884L54.851,106.535L54.992,106.185L55.134,105.837L55.277,105.489L55.421,105.141L55.566,104.794L55.712,104.447L55.859,104.102L56.007,103.756L56.156,103.411L56.306,103.067L56.457,102.723L56.609,102.38L56.763,102.037L56.917,101.695L57.072,101.353L57.228,101.012L57.385,100.672L57.543,100.332L57.703,99.992L57.863,99.654L58.024,99.315L58.186,98.978L58.349,98.64L58.514,98.304L58.679,97.968L58.845,97.632L59.012,97.298L59.18,96.963L59.349,96.63L59.519,96.297L59.69,95.964L59.862,95.632L60.035,95.301L60.209,94.97L60.384,94.64L60.56,94.31L60.737,93.981L60.915,93.653L61.094,93.325L61.274,92.998L61.454,92.671L61.636,92.345L61.819,92.02L62.002,91.695L62.187,91.371L62.372,91.047L62.559,90.724L62.746,90.402L62.934,90.08L63.124,89.759L63.314,89.439L63.505,89.119L63.697,88.8L63.89,88.481L64.084,88.163L64.279,87.846L64.475,87.529L64.672,87.213L64.869,86.897L65.068,86.583L65.267,86.268L65.468,85.955L65.669,85.642L65.871,85.33L66.074,85.018L66.279,84.707L66.484,84.397L66.689,84.087L66.896,83.778L67.104,83.47L67.313,83.162L67.522,82.855L67.732,82.549L67.944,82.243L68.156,81.938L68.369,81.634L68.583,81.33L68.798,81.027L69.014,80.725L69.23,80.423L69.448,80.122L69.666,79.822L69.885,79.522L70.106,79.223L70.327,78.925L70.548,78.628L70.771,78.331L70.995,78.035L71.219,77.739L71.445,77.444L71.671,77.15L71.898,76.857L72.126,76.564L72.355,76.272L72.585,75.981L72.815,75.69L73.047,75.4L73.279,75.111L73.512,74.823L73.746,74.535L73.981,74.248L74.216,73.961L74.453,73.676L74.69,73.391L74.928,73.107L75.167,72.823L75.407,72.541L75.647,72.259L75.889,71.978L76.131,71.697L76.374,71.417L76.618,71.138L76.863,70.86L77.109,70.582L77.355,70.305L77.602,70.029L77.85,69.754L78.099,69.48L78.349,69.206L78.599,68.933L78.85,68.66L79.103,68.389L79.355,68.118L79.609,67.848L79.864,67.579L80.119,67.31L80.375,67.042L80.632,66.775L80.889,66.509L81.148,66.244L81.407,65.979L81.667,65.715L81.928,65.452L82.189,65.189L82.452,64.928L82.715,64.667L82.979,64.407L83.244,64.148L83.509,63.889L83.775,63.632L84.042,63.375L84.31,63.119L84.579,62.864L84.848,62.609L85.118,62.355L85.389,62.103L85.66,61.85L85.933,61.599L86.206,61.349L86.48,61.099L86.754,60.85L87.029,60.602L87.305,60.355L87.582,60.109L87.86,59.863L88.138,59.618L88.417,59.374L88.697,59.131L88.978,58.889L89.259,58.647L89.541,58.407L89.823,58.167L90.107,57.928L90.391,57.69L90.676,57.453L90.961,57.216L91.248,56.981L91.535,56.746L91.823,56.512L92.111,56.279L92.4,56.047L92.69,55.815L92.981,55.585L93.272,55.355L93.564,55.126L93.857,54.898L94.15,54.671L94.444,54.445L94.739,54.219L95.035,53.995L95.331,53.771L95.628,53.548L95.925,53.327L96.223,53.106L96.522,52.885L96.822,52.666L97.122,52.448L97.423,52.23L97.725,52.014L98.027,51.798L98.33,51.583L98.634,51.369L98.938,51.156L99.243,50.944L99.549,50.732L99.855,50.522L100.162,50.313L100.47,50.104L100.778,49.896L101.087,49.689L101.397,49.484L101.707,49.279L102.018,49.074L102.33,48.871L102.642,48.669L102.955,48.468L103.268,48.267L103.583,48.068L103.897,47.869L104.213,47.672L104.529,47.475L104.846,47.279L105.163,47.084L105.481,46.89L105.8,46.697L106.119,46.505L106.439,46.314L106.759,46.124L107.08,45.934L107.402,45.746L107.724,45.559L108.047,45.372L108.371,45.187L108.695,45.002L109.02,44.819L109.345,44.636L109.671,44.454L109.998,44.274L110.325,44.094L110.653,43.915L110.981,43.737L111.31,43.56L111.64,43.384L111.97,43.209L112.301,43.035L112.632,42.862L112.964,42.69L113.297,42.519L113.63,42.349L113.963,42.18L114.298,42.012L114.632,41.845L114.968,41.679L115.304,41.514L115.64,41.349L115.978,41.186L116.315,41.024L116.654,40.863L116.992,40.703L117.332,40.543L117.672,40.385L118.012,40.228L118.353,40.072L118.695,39.917L119.037,39.763L119.38,39.609L119.723,39.457L120.067,39.306L120.411,39.156L120.756,39.007L121.102,38.859L121.447,38.712L121.794,38.566L122.141,38.421L122.489,38.277L122.837,38.134L123.185,37.992L123.535,37.851L123.884,37.711L124.234,37.572L124.585,37.434L124.936,37.298L125.288,37.162L125.641,37.027L125.993,36.894L126.347,36.761L126.701,36.63L127.055,36.499L127.41,36.37L127.765,36.241L128.121,36.114L128.477,35.988L128.834,35.863L129.191,35.738L129.549,35.615L129.908,35.493L130.266,35.373L130.626,35.253L130.986,35.134L131.346,35.016L131.707,34.9L132.068,34.784L132.43,34.67L132.792,34.556L133.155,34.444L133.518,34.333L133.881,34.223L134.245,34.114L134.61,34.006L134.975,33.899L135.341,33.793L135.707,33.688L136.073,33.585L136.44,33.482L136.807,33.381L137.175,33.281L137.543,33.182L137.912,33.084L138.281,32.987L138.651,32.891L139.021,32.796L139.391,32.703L139.762,32.61L140.133,32.519L140.505,32.429L140.878,32.34L141.25,32.252L141.623,32.165L141.997,32.079L142.371,31.995L142.745,31.911L143.12,31.829L143.495,31.748L143.871,31.668L144.247,31.589L144.624,31.511L145,31.434L145.378,31.359L145.756,31.285L146.134,31.211L146.512,31.139L146.891,31.069L147.271,30.999L147.65,30.93L148.031,30.863L148.411,30.797L148.792,30.732L149.173,30.668L149.555,30.605L149.937,30.544L150.32,30.483L150.703,30.424L151.086,30.366L151.47,30.309L151.854,30.254L152.238,30.199L152.623,30.146L153.008,30.094L153.394,30.043L153.78,29.993L154.166,29.944L154.553,29.897L154.94,29.851L155.327,29.806L155.715,29.762L156.103,29.72L156.492,29.678L156.88,29.638L157.27,29.599L157.659,29.561L158.049,29.525L158.439,29.49L158.83,29.455L159.221,29.423L159.612,29.391L160.004,29.36L160.396,29.331L160.788,29.303L161.181,29.276L161.574,29.251L161.967,29.226L162.36,29.203L162.754,29.181L163.149,29.161L163.543,29.141L163.938,29.123L164.334,29.106L164.729,29.091L165.125,29.076L165.521,29.063L165.918,29.051L166.314,29.04L166.712,29.031L167.109,29.023L167.507,29.016L167.905,29.01L168.303,29.006L168.702,29.003L169.101,29.001L169.5,29L169.899,29.001ZM169.127,37.234L168.754,37.236L168.382,37.239L168.009,37.243L167.637,37.248L167.266,37.255L166.894,37.262L166.523,37.271L166.153,37.281L165.782,37.292L165.412,37.305L165.042,37.318L164.673,37.333L164.304,37.348L163.935,37.365L163.566,37.384L163.198,37.403L162.83,37.423L162.462,37.445L162.095,37.468L161.728,37.491L161.361,37.516L160.995,37.543L160.629,37.57L160.264,37.598L159.898,37.628L159.533,37.659L159.169,37.691L158.804,37.724L158.44,37.758L158.077,37.793L157.713,37.829L157.35,37.867L156.988,37.905L156.625,37.945L156.263,37.986L155.902,38.028L155.541,38.071L155.18,38.115L154.819,38.16L154.459,38.207L154.099,38.254L153.74,38.303L153.381,38.353L153.022,38.404L152.663,38.456L152.305,38.509L151.948,38.563L151.59,38.618L151.234,38.674L150.877,38.732L150.521,38.79L150.165,38.85L149.809,38.911L149.454,38.972L149.1,39.035L148.745,39.099L148.391,39.164L148.038,39.23L147.685,39.297L147.332,39.366L146.98,39.435L146.627,39.505L146.276,39.577L145.925,39.649L145.574,39.723L145.223,39.798L144.873,39.873L144.524,39.95L144.174,40.028L143.826,40.107L143.477,40.187L143.129,40.268L142.781,40.35L142.434,40.433L142.087,40.517L141.741,40.602L141.395,40.688L141.049,40.776L140.704,40.864L140.359,40.953L140.015,41.044L139.671,41.135L139.328,41.228L138.985,41.321L138.642,41.416L138.3,41.511L137.958,41.608L137.616,41.706L137.276,41.804L136.935,41.904L136.595,42.005L136.255,42.106L135.916,42.209L135.577,42.313L135.239,42.417L134.901,42.523L134.564,42.63L134.227,42.738L133.89,42.847L133.554,42.956L133.219,43.067L132.884,43.179L132.549,43.292L132.215,43.405L131.881,43.52L131.547,43.636L131.215,43.753L130.882,43.871L130.55,43.989L130.219,44.109L129.888,44.23L129.557,44.351L129.227,44.474L128.898,44.598L128.568,44.722L128.24,44.848L127.912,44.975L127.584,45.102L127.257,45.231L126.93,45.36L126.604,45.491L126.278,45.622L125.953,45.755L125.628,45.888L125.304,46.022L124.98,46.158L124.657,46.294L124.334,46.431L124.012,46.569L123.69,46.708L123.369,46.848L123.048,46.989L122.728,47.131L122.408,47.274L122.089,47.418L121.77,47.563L121.452,47.709L121.134,47.855L120.817,48.003L120.5,48.151L120.184,48.301L119.868,48.451L119.553,48.603L119.239,48.755L118.925,48.908L118.611,49.062L118.298,49.217L117.986,49.373L117.674,49.53L117.363,49.688L117.052,49.846L116.741,50.006L116.432,50.167L116.122,50.328L115.814,50.49L115.506,50.654L115.198,50.818L114.891,50.983L114.585,51.149L114.279,51.316L113.973,51.483L113.669,51.652L113.364,51.822L113.061,51.992L112.758,52.164L112.455,52.336L112.153,52.509L111.852,52.683L111.551,52.858L111.25,53.034L110.951,53.21L110.652,53.388L110.353,53.566L110.055,53.745L109.758,53.926L109.461,54.107L109.165,54.289L108.869,54.471L108.574,54.655L108.28,54.839L107.986,55.025L107.693,55.211L107.4,55.398L107.108,55.586L106.816,55.775L106.525,55.964L106.235,56.155L105.946,56.346L105.657,56.539L105.368,56.732L105.08,56.925L104.793,57.12L104.506,57.316L104.22,57.512L103.935,57.709L103.65,57.908L103.366,58.107L103.083,58.306L102.8,58.507L102.518,58.708L102.236,58.911L101.955,59.114L101.675,59.318L101.395,59.522L101.116,59.728L100.837,59.934L100.559,60.141L100.282,60.349L100.006,60.558L99.73,60.768L99.455,60.978L99.18,61.189L98.906,61.401L98.633,61.614L98.36,61.828L98.088,62.042L97.817,62.258L97.546,62.474L97.276,62.691L97.007,62.908L96.738,63.127L96.47,63.346L96.203,63.566L95.936,63.787L95.67,64.008L95.405,64.231L95.14,64.454L94.876,64.678L94.613,64.902L94.35,65.128L94.088,65.354L93.827,65.581L93.566,65.809L93.306,66.037L93.047,66.267L92.789,66.497L92.531,66.728L92.274,66.959L92.017,67.192L91.762,67.425L91.507,67.659L91.252,67.893L90.999,68.129L90.746,68.365L90.494,68.602L90.242,68.839L89.992,69.078L89.741,69.317L89.492,69.557L89.244,69.797L88.996,70.039L88.748,70.281L88.502,70.523L88.256,70.767L88.011,71.011L87.767,71.256L87.523,71.502L87.281,71.748L87.039,71.996L86.797,72.244L86.557,72.492L86.317,72.741L86.078,72.992L85.839,73.242L85.602,73.494L85.365,73.746L85.129,73.999L84.893,74.252L84.659,74.507L84.425,74.762L84.192,75.017L83.959,75.274L83.728,75.531L83.497,75.789L83.267,76.047L83.037,76.306L82.809,76.566L82.581,76.827L82.354,77.088L82.128,77.35L81.902,77.613L81.678,77.876L81.454,78.14L81.231,78.405L81.008,78.67L80.787,78.936L80.566,79.203L80.346,79.47L80.127,79.738L79.908,80.007L79.691,80.276L79.474,80.546L79.258,80.817L79.042,81.088L78.828,81.36L78.614,81.633L78.401,81.906L78.189,82.18L77.978,82.455L77.768,82.73L77.558,83.006L77.349,83.282L77.141,83.559L76.934,83.837L76.728,84.116L76.522,84.395L76.318,84.675L76.114,84.955L75.911,85.236L75.708,85.518L75.507,85.8L75.306,86.083L75.107,86.366L74.908,86.65L74.709,86.935L74.512,87.22L74.316,87.506L74.12,87.793L73.925,88.08L73.732,88.368L73.539,88.657L73.346,88.946L73.155,89.235L72.964,89.525L72.775,89.816L72.586,90.108L72.398,90.4L72.211,90.693L72.025,90.986L71.839,91.28L71.655,91.574L71.471,91.869L71.289,92.165L71.107,92.461L70.926,92.758L70.745,93.055L70.566,93.353L70.388,93.652L70.21,93.951L70.034,94.25L69.858,94.551L69.683,94.852L69.509,95.153L69.336,95.455L69.164,95.758L68.992,96.061L68.822,96.364L68.652,96.669L68.483,96.973L68.316,97.279L68.149,97.585L67.983,97.891L67.818,98.198L67.654,98.506L67.49,98.814L67.328,99.122L67.167,99.432L67.006,99.741L66.846,100.052L66.688,100.363L66.53,100.674L66.373,100.986L66.217,101.298L66.062,101.611L65.908,101.925L65.755,102.239L65.603,102.553L65.451,102.868L65.301,103.184L65.151,103.5L65.003,103.817L64.855,104.134L64.709,104.452L64.563,104.77L64.418,105.089L64.274,105.408L64.131,105.728L63.989,106.048L63.848,106.369L63.708,106.69L63.569,107.012L63.431,107.334L63.294,107.657L63.158,107.98L63.022,108.304L62.888,108.628L62.755,108.953L62.622,109.278L62.491,109.604L62.36,109.93L62.231,110.257L62.102,110.584L61.975,110.912L61.848,111.24L61.722,111.568L61.598,111.898L61.474,112.227L61.351,112.557L61.23,112.888L61.109,113.219L60.989,113.55L60.871,113.882L60.753,114.215L60.636,114.547L60.52,114.881L60.405,115.215L60.292,115.549L60.179,115.884L60.067,116.219L59.956,116.554L59.847,116.89L59.738,117.227L59.63,117.564L59.523,117.901L59.417,118.239L59.313,118.577L59.209,118.916L59.106,119.255L59.005,119.595L58.904,119.935L58.804,120.276L58.706,120.616L58.608,120.958L58.511,121.3L58.416,121.642L58.321,121.985L58.228,122.328L58.135,122.671L58.044,123.015L57.953,123.359L57.864,123.704L57.776,124.049L57.688,124.395L57.602,124.741L57.517,125.087L57.433,125.434L57.35,125.781L57.268,126.129L57.187,126.477L57.107,126.826L57.028,127.174L56.95,127.524L56.873,127.873L56.798,128.223L56.723,128.574L56.649,128.925L56.577,129.276L56.505,129.627L56.435,129.98L56.366,130.332L56.297,130.685L56.23,131.038L56.164,131.391L56.099,131.745L56.035,132.1L55.972,132.454L55.911,132.809L55.85,133.165L55.79,133.521L55.732,133.877L55.674,134.234L55.618,134.59L55.563,134.948L55.509,135.305L55.456,135.663L55.404,136.022L55.353,136.381L55.303,136.74L55.254,137.099L55.207,137.459L55.16,137.819L55.115,138.18L55.071,138.541L55.028,138.902L54.986,139.263L54.945,139.625L54.905,139.988L54.867,140.35L54.829,140.713L54.793,141.077L54.758,141.44L54.724,141.804L54.691,142.169L54.659,142.533L54.628,142.898L54.598,143.264L54.57,143.629L54.543,143.995L54.516,144.361L54.491,144.728L54.468,145.095L54.445,145.462L54.423,145.83L54.403,146.198L54.384,146.566L54.365,146.935L54.348,147.304L54.333,147.673L54.318,148.042L54.305,148.412L54.292,148.782L54.281,149.153L54.271,149.523L54.262,149.894L54.255,150.266L54.248,150.637L54.243,151.009L54.239,151.382L54.236,151.754L54.234,152.127L54.233,152.5L54.234,152.873L54.236,153.246L54.239,153.618L54.243,153.991L54.248,154.363L54.255,154.734L54.262,155.106L54.271,155.477L54.281,155.847L54.292,156.218L54.305,156.588L54.318,156.958L54.333,157.327L54.348,157.696L54.365,158.065L54.384,158.434L54.403,158.802L54.423,159.17L54.445,159.538L54.468,159.905L54.491,160.272L54.516,160.639L54.543,161.005L54.57,161.371L54.598,161.736L54.628,162.102L54.659,162.467L54.691,162.831L54.724,163.196L54.758,163.56L54.793,163.923L54.829,164.287L54.867,164.65L54.905,165.012L54.945,165.375L54.986,165.737L55.028,166.098L55.071,166.459L55.115,166.82L55.16,167.181L55.207,167.541L55.254,167.901L55.303,168.26L55.353,168.619L55.404,168.978L55.456,169.337L55.509,169.695L55.563,170.052L55.618,170.41L55.674,170.766L55.732,171.123L55.79,171.479L55.85,171.835L55.911,172.191L55.972,172.546L56.035,172.9L56.099,173.255L56.164,173.609L56.23,173.962L56.297,174.315L56.366,174.668L56.435,175.02L56.505,175.373L56.577,175.724L56.649,176.075L56.723,176.426L56.798,176.777L56.873,177.127L56.95,177.476L57.028,177.826L57.107,178.174L57.187,178.523L57.268,178.871L57.35,179.219L57.433,179.566L57.517,179.913L57.602,180.259L57.688,180.605L57.776,180.951L57.864,181.296L57.953,181.641L58.044,181.985L58.135,182.329L58.228,182.672L58.321,183.015L58.416,183.358L58.511,183.7L58.608,184.042L58.706,184.383L58.804,184.724L58.904,185.065L59.005,185.405L59.106,185.745L59.209,186.084L59.313,186.423L59.417,186.761L59.523,187.099L59.63,187.436L59.738,187.773L59.847,188.11L59.956,188.446L60.067,188.781L60.179,189.116L60.292,189.451L60.405,189.785L60.52,190.119L60.636,190.453L60.753,190.785L60.871,191.118L60.989,191.45L61.109,191.781L61.23,192.112L61.351,192.443L61.474,192.773L61.598,193.103L61.722,193.432L61.848,193.76L61.975,194.088L62.102,194.416L62.231,194.743L62.36,195.07L62.491,195.396L62.622,195.722L62.755,196.047L62.888,196.372L63.022,196.696L63.158,197.02L63.294,197.343L63.431,197.666L63.569,197.988L63.708,198.31L63.848,198.631L63.989,198.952L64.131,199.272L64.274,199.592L64.418,199.911L64.563,200.23L64.709,200.548L64.855,200.866L65.003,201.183L65.151,201.5L65.301,201.816L65.451,202.132L65.603,202.447L65.755,202.761L65.908,203.075L66.062,203.389L66.217,203.702L66.373,204.014L66.53,204.326L66.688,204.638L66.846,204.948L67.006,205.259L67.167,205.568L67.328,205.878L67.49,206.186L67.654,206.494L67.818,206.802L67.983,207.109L68.149,207.415L68.316,207.721L68.483,208.027L68.652,208.332L68.822,208.636L68.992,208.939L69.164,209.243L69.336,209.545L69.509,209.847L69.683,210.148L69.858,210.449L70.034,210.75L70.21,211.049L70.388,211.348L70.566,211.647L70.745,211.945L70.926,212.242L71.107,212.539L71.289,212.835L71.471,213.131L71.655,213.426L71.839,213.72L72.025,214.014L72.211,214.307L72.398,214.6L72.586,214.892L72.775,215.184L72.964,215.475L73.155,215.765L73.346,216.054L73.539,216.343L73.732,216.632L73.925,216.92L74.12,217.207L74.316,217.494L74.512,217.78L74.709,218.065L74.908,218.35L75.106,218.634L75.306,218.917L75.507,219.2L75.708,219.482L75.911,219.764L76.114,220.045L76.318,220.325L76.522,220.605L76.728,220.884L76.934,221.163L77.141,221.441L77.349,221.718L77.558,221.994L77.768,222.27L77.978,222.545L78.189,222.82L78.401,223.094L78.614,223.367L78.828,223.64L79.042,223.912L79.258,224.183L79.474,224.454L79.691,224.724L79.908,224.993L80.127,225.262L80.346,225.53L80.566,225.797L80.787,226.064L81.008,226.33L81.231,226.595L81.454,226.86L81.678,227.124L81.902,227.387L82.128,227.65L82.354,227.912L82.581,228.173L82.809,228.434L83.037,228.694L83.267,228.953L83.497,229.211L83.728,229.469L83.959,229.726L84.192,229.983L84.425,230.238L84.659,230.493L84.893,230.748L85.129,231.001L85.365,231.254L85.602,231.506L85.839,231.758L86.078,232.009L86.317,232.259L86.557,232.508L86.797,232.756L87.039,233.004L87.281,233.252L87.523,233.498L87.767,233.744L88.011,233.989L88.256,234.233L88.502,234.477L88.748,234.719L88.996,234.961L89.244,235.203L89.492,235.443L89.741,235.683L89.992,235.922L90.242,236.161L90.494,236.398L90.746,236.635L90.999,236.871L91.253,237.107L91.507,237.341L91.762,237.575L92.017,237.808L92.274,238.041L92.531,238.272L92.789,238.503L93.047,238.733L93.306,238.963L93.566,239.191L93.827,239.419L94.088,239.646L94.35,239.872L94.613,240.098L94.876,240.322L95.14,240.546L95.405,240.769L95.67,240.992L95.936,241.213L96.203,241.434L96.47,241.654L96.738,241.873L97.007,242.092L97.276,242.31L97.546,242.526L97.817,242.742L98.088,242.958L98.36,243.172L98.633,243.386L98.906,243.599L99.18,243.81L99.455,244.022L99.73,244.232L100.006,244.442L100.282,244.651L100.559,244.859L100.837,245.066L101.116,245.272L101.395,245.478L101.674,245.682L101.955,245.886L102.236,246.089L102.518,246.292L102.8,246.493L103.083,246.694L103.366,246.894L103.65,247.092L103.935,247.291L104.22,247.488L104.506,247.684L104.793,247.88L105.08,248.074L105.368,248.268L105.657,248.461L105.946,248.654L106.235,248.845L106.525,249.036L106.816,249.225L107.108,249.414L107.4,249.602L107.693,249.789L107.986,249.975L108.28,250.161L108.574,250.345L108.869,250.529L109.165,250.711L109.461,250.893L109.758,251.074L110.055,251.255L110.353,251.434L110.652,251.612L110.951,251.79L111.25,251.966L111.551,252.142L111.852,252.317L112.153,252.491L112.455,252.664L112.758,252.837L113.061,253.008L113.364,253.178L113.669,253.348L113.973,253.516L114.279,253.684L114.585,253.851L114.891,254.017L115.198,254.182L115.506,254.346L115.814,254.51L116.122,254.672L116.432,254.833L116.741,254.994L117.052,255.154L117.363,255.312L117.674,255.47L117.986,255.627L118.298,255.783L118.611,255.938L118.925,256.092L119.239,256.245L119.553,256.398L119.868,256.549L120.184,256.699L120.5,256.849L120.817,256.997L121.134,257.145L121.452,257.292L121.77,257.437L122.089,257.582L122.408,257.726L122.728,257.869L123.048,258.011L123.369,258.152L123.69,258.292L124.012,258.431L124.334,258.569L124.657,258.706L124.98,258.842L125.304,258.978L125.628,259.112L125.953,259.245L126.278,259.378L126.604,259.509L126.93,259.64L127.257,259.769L127.584,259.898L127.911,260.025L128.24,260.152L128.568,260.278L128.897,260.402L129.227,260.526L129.557,260.649L129.888,260.77L130.219,260.891L130.55,261.011L130.882,261.13L131.215,261.247L131.547,261.364L131.881,261.48L132.215,261.595L132.549,261.708L132.884,261.821L133.219,261.933L133.554,262.044L133.891,262.154L134.227,262.262L134.564,262.37L134.901,262.477L135.239,262.583L135.577,262.687L135.916,262.791L136.255,262.894L136.595,262.995L136.935,263.096L137.276,263.196L137.616,263.294L137.958,263.392L138.3,263.489L138.642,263.584L138.984,263.679L139.328,263.772L139.671,263.865L140.015,263.956L140.359,264.047L140.704,264.136L141.049,264.224L141.395,264.311L141.741,264.398L142.087,264.483L142.434,264.567L142.781,264.65L143.129,264.732L143.477,264.813L143.826,264.893L144.174,264.972L144.524,265.05L144.873,265.127L145.223,265.202L145.574,265.277L145.925,265.351L146.276,265.423L146.627,265.495L146.98,265.565L147.332,265.634L147.684,265.703L148.038,265.77L148.391,265.836L148.745,265.901L149.1,265.965L149.454,266.028L149.81,266.089L150.165,266.15L150.521,266.21L150.877,266.268L151.234,266.326L151.59,266.382L151.948,266.437L152.306,266.491L152.663,266.544L153.022,266.596L153.381,266.647L153.74,266.697L154.099,266.746L154.459,266.793L154.819,266.84L155.18,266.885L155.541,266.929L155.902,266.972L156.264,267.014L156.625,267.055L156.988,267.095L157.35,267.133L157.713,267.171L158.077,267.207L158.44,267.242L158.804,267.276L159.169,267.309L159.533,267.341L159.898,267.372L160.263,267.402L160.629,267.43L160.995,267.457L161.361,267.484L161.728,267.509L162.095,267.532L162.462,267.555L162.83,267.577L163.198,267.597L163.566,267.616L163.935,267.635L164.304,267.651L164.673,267.667L165.042,267.682L165.412,267.695L165.782,267.708L166.153,267.719L166.523,267.729L166.894,267.738L167.266,267.745L167.638,267.752L168.009,267.757L168.381,267.761L168.754,267.764L169.127,267.766L169.5,267.767L169.873,267.766L170.246,267.764L170.619,267.761L170.991,267.757L171.362,267.752L171.734,267.745L172.106,267.738L172.477,267.729L172.847,267.719L173.218,267.708L173.588,267.695L173.958,267.682L174.327,267.667L174.696,267.651L175.065,267.635L175.434,267.616L175.802,267.597L176.17,267.577L176.538,267.555L176.905,267.532L177.272,267.509L177.639,267.484L178.005,267.457L178.371,267.43L178.737,267.402L179.102,267.372L179.467,267.341L179.831,267.309L180.196,267.276L180.56,267.242L180.923,267.207L181.287,267.171L181.65,267.133L182.012,267.095L182.375,267.055L182.736,267.014L183.098,266.972L183.459,266.929L183.82,266.885L184.181,266.84L184.541,266.793L184.901,266.746L185.26,266.697L185.619,266.647L185.978,266.596L186.337,266.544L186.694,266.491L187.052,266.437L187.41,266.382L187.766,266.326L188.123,266.268L188.479,266.21L188.835,266.15L189.19,266.089L189.546,266.028L189.9,265.965L190.255,265.901L190.609,265.836L190.962,265.77L191.316,265.703L191.668,265.634L192.02,265.565L192.373,265.495L192.724,265.423L193.075,265.351L193.426,265.277L193.777,265.202L194.127,265.127L194.476,265.05L194.826,264.972L195.174,264.893L195.523,264.813L195.871,264.732L196.219,264.65L196.566,264.567L196.913,264.483L197.259,264.398L197.605,264.311L197.951,264.224L198.296,264.136L198.641,264.047L198.985,263.956L199.329,263.865L199.672,263.772L200.016,263.679L200.358,263.584L200.7,263.489L201.042,263.392L201.384,263.294L201.724,263.196L202.065,263.096L202.405,262.995L202.745,262.894L203.084,262.791L203.423,262.687L203.761,262.583L204.099,262.477L204.436,262.37L204.773,262.262L205.109,262.154L205.446,262.044L205.781,261.933L206.116,261.821L206.451,261.708L206.785,261.595L207.119,261.48L207.453,261.364L207.785,261.247L208.118,261.13L208.45,261.011L208.781,260.891L209.112,260.77L209.443,260.649L209.773,260.526L210.103,260.402L210.432,260.278L210.76,260.152L211.089,260.025L211.416,259.898L211.743,259.769L212.07,259.64L212.396,259.509L212.722,259.378L213.047,259.246L213.372,259.112L213.696,258.978L214.02,258.842L214.343,258.706L214.666,258.569L214.988,258.431L215.31,258.292L215.631,258.152L215.952,258.011L216.272,257.869L216.592,257.726L216.911,257.582L217.23,257.437L217.548,257.292L217.866,257.145L218.183,256.997L218.5,256.849L218.816,256.699L219.132,256.549L219.447,256.398L219.761,256.245L220.075,256.092L220.389,255.938L220.702,255.783L221.014,255.627L221.326,255.47L221.638,255.312L221.948,255.154L222.259,254.994L222.568,254.833L222.878,254.672L223.186,254.51L223.494,254.346L223.802,254.182L224.109,254.017L224.415,253.851L224.721,253.684L225.027,253.516L225.331,253.348L225.636,253.178L225.939,253.008L226.242,252.837L226.545,252.664L226.847,252.491L227.148,252.317L227.449,252.142L227.75,251.966L228.049,251.79L228.348,251.612L228.647,251.434L228.945,251.255L229.242,251.074L229.539,250.893L229.835,250.711L230.131,250.529L230.426,250.345L230.72,250.161L231.014,249.975L231.307,249.789L231.6,249.602L231.892,249.414L232.184,249.225L232.475,249.036L232.765,248.845L233.054,248.654L233.343,248.462L233.632,248.268L233.92,248.074L234.207,247.88L234.494,247.684L234.78,247.488L235.065,247.291L235.35,247.092L235.634,246.894L235.917,246.694L236.2,246.493L236.482,246.292L236.764,246.089L237.045,245.886L237.326,245.682L237.605,245.478L237.884,245.272L238.163,245.066L238.441,244.859L238.718,244.651L238.994,244.442L239.27,244.232L239.545,244.022L239.82,243.81L240.094,243.599L240.367,243.386L240.64,243.172L240.912,242.958L241.183,242.742L241.454,242.526L241.724,242.31L241.993,242.092L242.262,241.873L242.53,241.654L242.797,241.434L243.064,241.213L243.33,240.992L243.595,240.769L243.86,240.546L244.124,240.322L244.387,240.098L244.65,239.872L244.912,239.646L245.173,239.419L245.434,239.191L245.694,238.963L245.953,238.733L246.211,238.503L246.469,238.272L246.726,238.041L246.983,237.808L247.238,237.575L247.493,237.341L247.748,237.107L248.001,236.871L248.254,236.635L248.506,236.398L248.758,236.161L249.008,235.922L249.259,235.683L249.508,235.443L249.756,235.203L250.004,234.961L250.252,234.719L250.498,234.477L250.744,234.233L250.989,233.989L251.233,233.744L251.477,233.498L251.719,233.252L251.961,233.004L252.203,232.756L252.443,232.508L252.683,232.259L252.922,232.008L253.161,231.758L253.398,231.506L253.635,231.254L253.871,231.001L254.107,230.748L254.341,230.493L254.575,230.238L254.808,229.983L255.041,229.726L255.272,229.469L255.503,229.211L255.733,228.953L255.963,228.694L256.191,228.434L256.419,228.173L256.646,227.912L256.872,227.65L257.098,227.387L257.322,227.124L257.546,226.86L257.769,226.595L257.992,226.33L258.213,226.064L258.434,225.797L258.654,225.53L258.873,225.262L259.092,224.993L259.31,224.724L259.526,224.454L259.742,224.183L259.958,223.912L260.172,223.64L260.386,223.367L260.599,223.094L260.81,222.82L261.022,222.545L261.232,222.27L261.442,221.994L261.651,221.718L261.859,221.441L262.066,221.163L262.272,220.884L262.478,220.605L262.682,220.326L262.886,220.045L263.089,219.764L263.292,219.482L263.493,219.2L263.694,218.917L263.894,218.634L264.092,218.35L264.291,218.065L264.488,217.78L264.684,217.494L264.88,217.207L265.074,216.92L265.268,216.632L265.462,216.343L265.654,216.054L265.845,215.765L266.036,215.475L266.225,215.184L266.414,214.892L266.602,214.6L266.789,214.307L266.975,214.014L267.161,213.72L267.345,213.426L267.529,213.131L267.711,212.835L267.893,212.539L268.074,212.242L268.255,211.945L268.434,211.647L268.612,211.348L268.79,211.049L268.966,210.75L269.142,210.449L269.317,210.148L269.491,209.847L269.664,209.545L269.837,209.242L270.008,208.939L270.178,208.636L270.348,208.331L270.516,208.027L270.684,207.721L270.851,207.415L271.017,207.109L271.182,206.802L271.346,206.494L271.51,206.186L271.672,205.878L271.833,205.568L271.994,205.259L272.154,204.948L272.312,204.638L272.47,204.326L272.627,204.014L272.783,203.702L272.938,203.389L273.092,203.075L273.245,202.761L273.398,202.447L273.549,202.132L273.699,201.816L273.849,201.5L273.997,201.183L274.145,200.866L274.292,200.548L274.437,200.23L274.582,199.911L274.726,199.592L274.869,199.272L275.011,198.952L275.152,198.631L275.292,198.31L275.431,197.988L275.569,197.666L275.706,197.343L275.842,197.02L275.978,196.696L276.112,196.372L276.246,196.047L276.378,195.722L276.509,195.396L276.64,195.07L276.769,194.743L276.898,194.416L277.025,194.089L277.152,193.76L277.278,193.432L277.402,193.103L277.526,192.773L277.649,192.443L277.77,192.112L277.891,191.781L278.011,191.45L278.13,191.118L278.247,190.785L278.364,190.453L278.48,190.119L278.595,189.785L278.708,189.451L278.821,189.116L278.933,188.781L279.044,188.446L279.154,188.109L279.262,187.773L279.37,187.436L279.477,187.099L279.583,186.761L279.687,186.423L279.791,186.084L279.894,185.745L279.995,185.405L280.096,185.065L280.196,184.724L280.294,184.384L280.392,184.042L280.489,183.7L280.584,183.358L280.679,183.016L280.772,182.672L280.865,182.329L280.956,181.985L281.047,181.641L281.136,181.296L281.224,180.951L281.311,180.605L281.398,180.259L281.483,179.913L281.567,179.566L281.65,179.219L281.732,178.871L281.813,178.523L281.893,178.174L281.972,177.826L282.05,177.476L282.127,177.127L282.202,176.777L282.277,176.426L282.351,176.075L282.423,175.724L282.495,175.373L282.565,175.02L282.634,174.668L282.703,174.316L282.77,173.962L282.836,173.609L282.901,173.255L282.965,172.9L283.028,172.546L283.089,172.19L283.15,171.835L283.21,171.479L283.268,171.123L283.326,170.766L283.382,170.41L283.437,170.052L283.491,169.694L283.544,169.337L283.596,168.978L283.647,168.619L283.697,168.26L283.746,167.901L283.793,167.541L283.84,167.181L283.885,166.82L283.929,166.459L283.972,166.098L284.014,165.736L284.055,165.375L284.095,165.012L284.133,164.65L284.171,164.287L284.207,163.923L284.242,163.56L284.276,163.196L284.309,162.831L284.341,162.467L284.372,162.102L284.402,161.737L284.43,161.371L284.457,161.005L284.484,160.639L284.509,160.272L284.532,159.905L284.555,159.538L284.577,159.17L284.597,158.802L284.616,158.434L284.635,158.065L284.651,157.696L284.667,157.327L284.682,156.958L284.695,156.588L284.708,156.218L284.719,155.847L284.729,155.477L284.738,155.106L284.745,154.734L284.752,154.362L284.757,153.991L284.761,153.619L284.764,153.246L284.766,152.873L284.767,152.5L284.766,152.127L284.764,151.754L284.761,151.381L284.757,151.009L284.752,150.638L284.745,150.266L284.738,149.894L284.729,149.523L284.719,149.153L284.708,148.782L284.695,148.412L284.682,148.042L284.667,147.673L284.651,147.304L284.635,146.935L284.616,146.566L284.597,146.198L284.577,145.83L284.555,145.462L284.532,145.095L284.509,144.728L284.484,144.361L284.457,143.995L284.43,143.629L284.402,143.263L284.372,142.898L284.341,142.533L284.309,142.169L284.276,141.804L284.242,141.44L284.207,141.077L284.171,140.713L284.133,140.35L284.095,139.988L284.055,139.625L284.014,139.264L283.972,138.902L283.929,138.541L283.885,138.18L283.84,137.819L283.793,137.459L283.746,137.099L283.697,136.74L283.647,136.381L283.596,136.022L283.544,135.663L283.491,135.306L283.437,134.948L283.382,134.59L283.326,134.234L283.268,133.877L283.21,133.521L283.15,133.165L283.089,132.81L283.028,132.454L282.965,132.1L282.901,131.745L282.836,131.391L282.77,131.038L282.703,130.684L282.634,130.332L282.565,129.98L282.495,129.627L282.423,129.276L282.351,128.925L282.277,128.574L282.202,128.223L282.127,127.873L282.05,127.524L281.972,127.174L281.893,126.826L281.813,126.477L281.732,126.129L281.65,125.781L281.567,125.434L281.483,125.087L281.398,124.741L281.311,124.395L281.224,124.049L281.136,123.704L281.047,123.359L280.956,123.015L280.865,122.671L280.772,122.328L280.679,121.984L280.584,121.642L280.489,121.3L280.392,120.958L280.294,120.616L280.196,120.276L280.096,119.935L279.995,119.595L279.894,119.255L279.791,118.916L279.687,118.577L279.583,118.239L279.477,117.901L279.37,117.564L279.262,117.227L279.154,116.891L279.044,116.554L278.933,116.219L278.821,115.884L278.708,115.549L278.595,115.215L278.48,114.881L278.364,114.547L278.247,114.215L278.13,113.882L278.011,113.55L277.891,113.219L277.77,112.888L277.649,112.557L277.526,112.227L277.402,111.897L277.278,111.568L277.152,111.24L277.025,110.911L276.898,110.584L276.769,110.257L276.64,109.93L276.509,109.604L276.378,109.278L276.245,108.953L276.112,108.628L275.978,108.304L275.842,107.98L275.706,107.657L275.569,107.334L275.431,107.012L275.292,106.69L275.152,106.369L275.011,106.048L274.869,105.728L274.726,105.408L274.582,105.089L274.437,104.77L274.292,104.452L274.145,104.134L273.997,103.817L273.849,103.5L273.699,103.184L273.549,102.868L273.398,102.553L273.245,102.239L273.092,101.925L272.938,101.611L272.783,101.298L272.627,100.986L272.47,100.674L272.312,100.363L272.154,100.052L271.994,99.741L271.833,99.432L271.672,99.122L271.51,98.814L271.346,98.506L271.182,98.198L271.017,97.891L270.851,97.585L270.684,97.279L270.516,96.973L270.348,96.669L270.178,96.364L270.008,96.061L269.837,95.758L269.664,95.455L269.491,95.153L269.317,94.852L269.142,94.551L268.966,94.25L268.79,93.951L268.612,93.652L268.434,93.353L268.255,93.055L268.074,92.758L267.893,92.461L267.711,92.165L267.529,91.869L267.345,91.574L267.161,91.28L266.975,90.986L266.789,90.693L266.602,90.4L266.414,90.108L266.225,89.816L266.036,89.525L265.845,89.235L265.654,88.946L265.461,88.657L265.268,88.368L265.074,88.08L264.88,87.793L264.684,87.506L264.488,87.22L264.291,86.935L264.092,86.65L263.894,86.366L263.694,86.083L263.493,85.8L263.292,85.518L263.089,85.236L262.886,84.955L262.682,84.674L262.478,84.395L262.272,84.116L262.066,83.837L261.859,83.559L261.651,83.282L261.442,83.006L261.232,82.73L261.022,82.455L260.81,82.18L260.599,81.906L260.386,81.633L260.172,81.36L259.958,81.088L259.742,80.817L259.526,80.546L259.31,80.276L259.092,80.007L258.873,79.738L258.654,79.47L258.434,79.203L258.213,78.936L257.992,78.67L257.769,78.405L257.546,78.14L257.322,77.876L257.098,77.613L256.872,77.35L256.646,77.088L256.419,76.827L256.191,76.566L255.963,76.306L255.733,76.047L255.503,75.789L255.272,75.531L255.041,75.274L254.808,75.017L254.575,74.762L254.341,74.507L254.107,74.253L253.871,73.999L253.635,73.746L253.398,73.494L253.161,73.242L252.922,72.992L252.683,72.741L252.443,72.492L252.203,72.244L251.961,71.996L251.719,71.748L251.477,71.502L251.233,71.256L250.989,71.011L250.744,70.767L250.498,70.523L250.252,70.281L250.004,70.039L249.756,69.797L249.508,69.557L249.259,69.317L249.009,69.078L248.758,68.839L248.506,68.602L248.254,68.365L248.001,68.129L247.748,67.893L247.493,67.659L247.238,67.425L246.983,67.192L246.726,66.959L246.469,66.728L246.211,66.497L245.953,66.267L245.694,66.037L245.434,65.809L245.173,65.581L244.912,65.354L244.65,65.128L244.387,64.902L244.124,64.678L243.86,64.454L243.595,64.231L243.33,64.008L243.064,63.787L242.797,63.566L242.53,63.346L242.262,63.127L241.993,62.908L241.724,62.691L241.454,62.474L241.183,62.258L240.912,62.042L240.64,61.828L240.367,61.614L240.094,61.401L239.82,61.189L239.545,60.978L239.27,60.768L238.994,60.558L238.718,60.349L238.441,60.141L238.163,59.934L237.884,59.728L237.605,59.522L237.325,59.318L237.045,59.114L236.764,58.911L236.482,58.708L236.2,58.507L235.917,58.306L235.634,58.106L235.35,57.908L235.065,57.709L234.78,57.512L234.494,57.316L234.207,57.12L233.92,56.925L233.632,56.732L233.343,56.539L233.054,56.346L232.765,56.155L232.475,55.964L232.184,55.775L231.892,55.586L231.6,55.398L231.307,55.211L231.014,55.025L230.72,54.839L230.426,54.655L230.131,54.471L229.835,54.289L229.539,54.107L229.242,53.926L228.945,53.745L228.647,53.566L228.348,53.388L228.049,53.21L227.75,53.034L227.449,52.858L227.148,52.683L226.847,52.509L226.545,52.336L226.243,52.164L225.939,51.992L225.636,51.822L225.332,51.652L225.027,51.483L224.721,51.316L224.415,51.149L224.109,50.983L223.802,50.818L223.494,50.654L223.186,50.49L222.878,50.328L222.568,50.167L222.259,50.006L221.948,49.846L221.638,49.688L221.326,49.53L221.014,49.373L220.702,49.217L220.389,49.062L220.075,48.908L219.761,48.755L219.447,48.603L219.132,48.451L218.816,48.301L218.5,48.151L218.183,48.003L217.866,47.855L217.548,47.709L217.23,47.563L216.911,47.418L216.592,47.274L216.272,47.131L215.952,46.989L215.631,46.848L215.31,46.708L214.988,46.569L214.666,46.431L214.343,46.294L214.02,46.158L213.696,46.022L213.372,45.888L213.047,45.755L212.722,45.622L212.396,45.491L212.07,45.36L211.743,45.231L211.416,45.102L211.088,44.975L210.76,44.848L210.432,44.722L210.103,44.598L209.773,44.474L209.443,44.351L209.112,44.23L208.781,44.109L208.45,43.989L208.118,43.871L207.785,43.753L207.453,43.636L207.119,43.52L206.785,43.405L206.451,43.292L206.116,43.179L205.781,43.067L205.446,42.956L205.11,42.847L204.773,42.738L204.436,42.63L204.099,42.523L203.761,42.417L203.423,42.313L203.084,42.209L202.745,42.106L202.405,42.005L202.065,41.904L201.724,41.804L201.383,41.706L201.042,41.608L200.7,41.511L200.358,41.416L200.015,41.321L199.672,41.228L199.329,41.135L198.985,41.044L198.641,40.953L198.296,40.864L197.951,40.776L197.605,40.688L197.259,40.602L196.913,40.517L196.566,40.433L196.219,40.35L195.871,40.268L195.523,40.187L195.174,40.107L194.826,40.028L194.476,39.95L194.127,39.873L193.777,39.798L193.426,39.723L193.075,39.649L192.724,39.577L192.373,39.505L192.02,39.435L191.668,39.366L191.315,39.297L190.962,39.23L190.609,39.164L190.255,39.099L189.9,39.035L189.546,38.972L189.191,38.911L188.835,38.85L188.479,38.79L188.123,38.732L187.766,38.674L187.41,38.618L187.052,38.563L186.695,38.509L186.337,38.456L185.978,38.404L185.619,38.353L185.26,38.303L184.901,38.254L184.541,38.207L184.181,38.16L183.82,38.115L183.459,38.071L183.098,38.028L182.737,37.986L182.375,37.945L182.012,37.905L181.65,37.867L181.287,37.829L180.923,37.793L180.56,37.758L180.196,37.724L179.831,37.691L179.467,37.659L179.102,37.628L178.736,37.598L178.371,37.57L178.005,37.543L177.639,37.516L177.272,37.491L176.905,37.468L176.538,37.445L176.17,37.423L175.802,37.403L175.434,37.384L175.065,37.365L174.696,37.348L174.327,37.333L173.958,37.318L173.588,37.305L173.218,37.292L172.847,37.281L172.477,37.271L172.106,37.262L171.734,37.255L171.363,37.248L170.991,37.243L170.618,37.239L170.246,37.236L169.873,37.234L169.5,37.233L169.127,37.234Z" style="fill:rgb(235,235,235);"/>
        </g>
        <g transform="matrix(6.12323e-17,1,-1,6.12323e-17,347,-59)">
            <path d="M209,82L317,253L101,253L209,82Z" style="fill:rgb(235,235,235);"/>
        </g>
    </g>
</svg>
