<?xml version="1.0" encoding="UTF-8" standalone="no"?>
<!DOCTYPE svg PUBLIC "-//W3C//DTD SVG 1.1//EN" "http://www.w3.org/Graphics/SVG/1.1/DTD/svg11.dtd">
<svg width="100%" height="100%" viewBox="0 0 36 34" version="1.1" xmlns="http://www.w3.org/2000/svg" xmlns:xlink="http://www.w3.org/1999/xlink" xml:space="preserve" xmlns:serif="http://www.serif.com/" style="fill-rule:evenodd;clip-rule:evenodd;stroke-linejoin:round;stroke-miterlimit:1.41421;">
    <path d="M36,34L0,34L0,0L36,0L36,34ZM20,22L24.998,30.289C25.21,30.807 25.325,31.582 24.923,31.74C24.361,31.961 23.869,31.935 23.639,31.566L18.598,23.508L13.441,31.566C12.869,32.144 12.275,32.057 12.039,31.861C11.805,31.667 11.623,31.16 12.081,30.289L17,22L5,22L5,5L3,5L3,3L33,3L33,5L31,5L31,22L20,22ZM7,5L29,5L29,20L7,20L7,5ZM15.459,10.085L9.145,17.338L8.52,16.818L15.435,8.876L19.923,13.35L26.11,7.301L26.69,7.869L19.921,14.484L15.459,10.085Z"/>
</svg>
