<?xml version="1.0" encoding="UTF-8" standalone="no"?>
<!DOCTYPE svg PUBLIC "-//W3C//DTD SVG 1.1//EN" "http://www.w3.org/Graphics/SVG/1.1/DTD/svg11.dtd">
<svg width="100%" height="100%" viewBox="0 0 74 34" version="1.1" xmlns="http://www.w3.org/2000/svg" xmlns:xlink="http://www.w3.org/1999/xlink" xml:space="preserve" xmlns:serif="http://www.serif.com/" style="fill-rule:evenodd;clip-rule:evenodd;stroke-linejoin:round;stroke-miterlimit:1.41421;">
    <path d="M36,34L0,34L0,0L36,0L36,34ZM74,34L38,34L38,0L74,0L74,34ZM20,22L24.998,30.289C25.21,30.807 25.325,31.582 24.923,31.74C24.361,31.961 23.869,31.935 23.639,31.566L18.598,23.508L13.441,31.566C12.869,32.144 12.275,32.057 12.039,31.861C11.805,31.667 11.623,31.16 12.081,30.289L17,22L5,22L5,5L3,5L3,3L33,3L33,5L31,5L31,22L20,22ZM64.968,17L47.032,17C46.557,17 46.172,17.385 46.172,17.86L46.172,19.14C46.172,19.615 46.557,20 47.032,20L52,20L52,31L60,31L60,20L64.968,20C65.442,20 65.828,19.615 65.828,19.14L65.828,17.86C65.828,17.385 65.443,17 64.968,17ZM7,5L29,5L29,20L7,20L7,5ZM15.459,10.085L9.145,17.338L8.52,16.818L15.435,8.876L19.923,13.35L26.11,7.301L26.69,7.869L19.921,14.484L15.459,10.085ZM62.991,16C62.99,15.984 62.552,11.315 61.936,10.039C61.319,8.762 58.25,8.717 58.25,8.717C58.25,8.717 57.543,12.025 57.354,12.654C57.164,13.284 57.125,13.43 57.125,13.43C57.125,13.43 56.646,10.234 56.562,9.91C56.5,9.666 56.088,9.65 56,9.65C55.912,9.65 55.5,9.678 55.437,9.921C55.354,10.246 55.01,13.359 55.01,13.359C55.01,13.359 54.905,13.284 54.716,12.654C54.526,12.025 53.75,8.717 53.75,8.717C53.75,8.717 50.681,8.762 50.064,10.039C49.447,11.317 49.009,16 49.009,16L62.991,16ZM57.125,8.717C57.186,8.978 56.358,9.54 56.358,9.54L55.696,9.524C55.696,9.524 54.814,8.978 54.875,8.717C54.931,8.477 55.686,8.503 56,8.5C56.316,8.503 57.069,8.477 57.125,8.717ZM56,1.133C57.711,1.133 59.1,2.638 59.1,4.491C59.1,6.344 57.711,7.848 56,7.848C54.289,7.848 52.9,6.344 52.9,4.491C52.9,2.638 54.289,1.133 56,1.133Z"/>
</svg>
