<?xml version="1.0" encoding="UTF-8" standalone="no"?>
<!DOCTYPE svg PUBLIC "-//W3C//DTD SVG 1.1//EN" "http://www.w3.org/Graphics/SVG/1.1/DTD/svg11.dtd">
<svg width="100%" height="100%" viewBox="0 0 62 38" version="1.1" xmlns="http://www.w3.org/2000/svg" xmlns:xlink="http://www.w3.org/1999/xlink" xml:space="preserve" xmlns:serif="http://www.serif.com/" style="fill-rule:evenodd;clip-rule:evenodd;stroke-linejoin:round;stroke-miterlimit:1.41421;">
    <path d="M39.995,6.011L36.995,6.011L36.995,35L0,35L0,0L39.995,0L39.995,6.011ZM21.902,22.75L27.55,31.204C27.779,31.731 27.903,32.517 27.469,32.677C26.862,32.902 26.331,32.875 26.083,32.501L20.643,24.32L15.077,32.501C14.46,33.088 13.819,32.999 13.564,32.8C13.312,32.603 13.116,32.088 13.609,31.204L19.045,22.75L5.714,22.75L5.714,5.25L3.809,5.25L3.809,3.5L36.186,3.5L36.186,5.25L34.281,5.25L34.281,22.75L21.902,22.75ZM7.618,5.25L32.377,5.25L32.377,21L7.618,21L7.618,5.25ZM17.138,10.589L10.031,18.205L9.329,17.658L17.11,9.319L22.161,14.017L29.124,7.666L29.777,8.262L22.16,15.209L17.138,10.589Z"/>
    <path d="M61.408,23.971C61.73,23.971 61.991,24.233 61.991,24.555L61.991,25.424C61.991,25.746 61.73,26.008 61.408,26.008L55.016,26.008L55.016,37.092L45.973,37.092L45.973,26.008L39.569,26.008C39.247,26.008 38.985,25.746 38.985,25.424L38.985,24.555C38.985,24.233 39.247,23.971 39.569,23.971L61.408,23.971ZM58.967,23.034L42.049,23.034C42.049,23.034 42.579,18.294 43.326,17.001C44.072,15.708 47.786,15.663 47.786,15.663C47.786,15.663 48.725,19.01 48.954,19.648C49.183,20.285 49.31,20.361 49.31,20.361C49.31,20.361 49.726,17.21 49.827,16.882C49.903,16.636 50.402,16.607 50.508,16.607C50.614,16.607 51.112,16.623 51.189,16.87C51.29,17.198 51.869,20.433 51.869,20.433C51.869,20.433 51.917,20.285 52.146,19.648C52.376,19.01 53.23,15.663 53.23,15.663C53.23,15.663 56.944,15.708 57.69,17.001C58.436,18.294 58.967,23.031 58.967,23.034ZM51.791,15.663C51.861,15.902 50.911,16.419 50.911,16.419L50.151,16.403C50.151,16.403 49.139,15.902 49.209,15.663C49.273,15.442 50.14,15.467 50.5,15.464C50.862,15.467 51.727,15.442 51.791,15.663ZM50.5,8.7C52.464,8.7 54.058,10.081 54.058,11.782C54.058,13.484 52.464,14.865 50.5,14.865C48.536,14.865 46.942,13.484 46.942,11.782C46.942,10.081 48.536,8.7 50.5,8.7Z"/>
</svg>
