<?xml version="1.0" encoding="UTF-8" standalone="no"?>
<!DOCTYPE svg PUBLIC "-//W3C//DTD SVG 1.1//EN" "http://www.w3.org/Graphics/SVG/1.1/DTD/svg11.dtd">
<svg width="100%" height="100%" viewBox="0 0 40 40" version="1.1" xmlns="http://www.w3.org/2000/svg" xmlns:xlink="http://www.w3.org/1999/xlink" xml:space="preserve" xmlns:serif="http://www.serif.com/" style="fill-rule:evenodd;clip-rule:evenodd;stroke-linejoin:round;stroke-miterlimit:1.41421;">
    <path d="M28.675,28.287L27,26.839L33.674,26L33.808,32.725L31.703,30.906C28.782,34.039 24.618,36 20,36C14.825,36 10.22,33.538 7.295,29.722L10.798,27.699C13,30.328 16.306,32 20,32C23.41,32 26.49,30.575 28.675,28.287ZM4.41,23.613C4.142,22.452 4,21.242 4,20C4,12.02 9.855,5.396 17.5,4.195L17.5,8.261C12.075,9.413 8,14.234 8,20C8,20.79 8.077,21.563 8.223,22.31L10.597,21.499L7.955,27.686L2.08,24.409L4.41,23.613ZM22.536,8.416L22.158,10.598L18,5.31L23.594,2.335L23.22,4.472C27.411,5.361 31.237,7.919 33.616,11.877C36.283,16.312 36.546,21.527 34.783,26L31.244,24.04C32.362,20.798 32.092,17.103 30.188,13.938C28.431,11.015 25.623,9.11 22.536,8.416Z" style="fill:rgb(80,80,80);"/>
</svg>
