<?xml version="1.0" encoding="UTF-8" standalone="no"?>
<!DOCTYPE svg PUBLIC "-//W3C//DTD SVG 1.1//EN" "http://www.w3.org/Graphics/SVG/1.1/DTD/svg11.dtd">
<svg width="100%" height="100%" viewBox="0 0 61 36" version="1.1" xmlns="http://www.w3.org/2000/svg" xmlns:xlink="http://www.w3.org/1999/xlink" xml:space="preserve" xmlns:serif="http://www.serif.com/" style="fill-rule:evenodd;clip-rule:evenodd;stroke-linejoin:round;stroke-miterlimit:1.41421;">
    <path d="M61,35L24,35L24,14L21,14L21,0L61,0L61,35ZM42.905,22.75L48.554,31.204C48.782,31.731 48.907,32.517 48.473,32.677C47.865,32.902 47.335,32.875 47.086,32.501L41.646,24.32L36.079,32.501C35.462,33.088 34.821,32.999 34.566,32.8C34.314,32.603 34.117,32.088 34.611,31.204L40.048,22.75L26.714,22.75L26.714,5.25L24.81,5.25L24.81,3.5L57.19,3.5L57.19,5.25L55.286,5.25L55.286,22.75L42.905,22.75ZM28.619,5.25L53.381,5.25L53.381,21L28.619,21L28.619,5.25ZM38.14,10.589L31.033,18.205L30.33,17.658L38.113,9.319L43.164,14.017L50.128,7.666L50.781,8.262L43.163,15.209L38.14,10.589Z"/>
    <path d="M23,15L23,36L0,36L0,15L23,15ZM17.435,27C17.625,27 17.779,26.846 17.779,26.656L17.779,26.144C17.779,25.954 17.625,25.8 17.435,25.8L5.565,25.8C5.375,25.8 5.221,25.954 5.221,26.144L5.221,26.656C5.221,26.846 5.375,27 5.565,27L8.625,27L8.625,34.2L14.375,34.2L14.375,27L17.435,27ZM15.967,25.2C15.966,25.189 15.686,22.102 15.293,21.259C14.898,20.414 12.937,20.384 12.937,20.384C12.937,20.384 12.486,22.571 12.365,22.988C12.244,23.404 12.219,23.501 12.219,23.501C12.219,23.501 11.913,21.387 11.859,21.173C11.819,21.011 11.556,21.001 11.5,21.001C11.444,21.001 11.181,21.02 11.141,21.18C11.087,21.395 10.868,23.454 10.868,23.454C10.868,23.454 10.801,23.404 10.679,22.988C10.558,22.571 10.062,20.384 10.062,20.384C10.062,20.384 8.102,20.414 7.707,21.259C7.313,22.103 7.033,25.2 7.033,25.2L15.967,25.2ZM12.219,20.384C12.258,20.545 11.729,20.892 11.729,20.892L11.306,20.882C11.306,20.882 10.742,20.545 10.781,20.384C10.817,20.236 11.3,20.252 11.5,20.25C11.702,20.252 12.183,20.236 12.219,20.384ZM11.5,15.7C12.593,15.7 13.481,16.629 13.481,17.774C13.481,18.918 12.593,19.847 11.5,19.847C10.407,19.847 9.519,18.918 9.519,17.774C9.519,16.629 10.407,15.7 11.5,15.7Z"/>
</svg>
