<?xml version="1.0" encoding="UTF-8" standalone="no"?>
<!DOCTYPE svg PUBLIC "-//W3C//DTD SVG 1.1//EN" "http://www.w3.org/Graphics/SVG/1.1/DTD/svg11.dtd">
<svg width="100%" height="100%" viewBox="0 0 61 36" version="1.1" xmlns="http://www.w3.org/2000/svg" xmlns:xlink="http://www.w3.org/1999/xlink" xml:space="preserve" xmlns:serif="http://www.serif.com/" style="fill-rule:evenodd;clip-rule:evenodd;stroke-linejoin:round;stroke-miterlimit:1.41421;">
    <path d="M40,14L37,14L37,35L0,35L0,0L40,0L40,14ZM21.905,22.75L27.554,31.204C27.782,31.731 27.907,32.517 27.473,32.677C26.865,32.902 26.335,32.875 26.086,32.501L20.646,24.32L15.079,32.501C14.462,33.088 13.821,32.999 13.566,32.8C13.314,32.603 13.117,32.088 13.611,31.204L19.048,22.75L5.714,22.75L5.714,5.25L3.81,5.25L3.81,3.5L36.19,3.5L36.19,5.25L34.286,5.25L34.286,22.75L21.905,22.75ZM7.619,5.25L32.381,5.25L32.381,21L7.619,21L7.619,5.25ZM17.14,10.589L10.033,18.205L9.33,17.658L17.113,9.319L22.164,14.017L29.128,7.666L29.781,8.262L22.163,15.209L17.14,10.589Z"/>
    <path d="M61,15L61,36L38,36L38,15L61,15ZM55.435,27C55.625,27 55.779,26.846 55.779,26.656L55.779,26.144C55.779,25.954 55.625,25.8 55.435,25.8L43.565,25.8C43.375,25.8 43.221,25.954 43.221,26.144L43.221,26.656C43.221,26.846 43.375,27 43.565,27L46.625,27L46.625,34.2L52.375,34.2L52.375,27L55.435,27ZM53.967,25.2C53.966,25.189 53.686,22.102 53.293,21.259C52.898,20.414 50.937,20.384 50.937,20.384C50.937,20.384 50.486,22.571 50.365,22.988C50.244,23.404 50.219,23.501 50.219,23.501C50.219,23.501 49.913,21.387 49.859,21.173C49.819,21.011 49.556,21.001 49.5,21.001C49.444,21.001 49.181,21.02 49.141,21.18C49.087,21.395 48.868,23.454 48.868,23.454C48.868,23.454 48.801,23.404 48.679,22.988C48.558,22.571 48.062,20.384 48.062,20.384C48.062,20.384 46.102,20.414 45.707,21.259C45.313,22.103 45.033,25.2 45.033,25.2L53.967,25.2ZM50.219,20.384C50.258,20.545 49.729,20.892 49.729,20.892L49.306,20.882C49.306,20.882 48.742,20.545 48.781,20.384C48.817,20.236 49.3,20.252 49.5,20.25C49.702,20.252 50.183,20.236 50.219,20.384ZM49.5,15.7C50.593,15.7 51.481,16.629 51.481,17.774C51.481,18.918 50.593,19.847 49.5,19.847C48.407,19.847 47.519,18.918 47.519,17.774C47.519,16.629 48.407,15.7 49.5,15.7Z"/>
</svg>
