<?xml version="1.0" encoding="UTF-8" standalone="no"?>
<!DOCTYPE svg PUBLIC "-//W3C//DTD SVG 1.1//EN" "http://www.w3.org/Graphics/SVG/1.1/DTD/svg11.dtd">
<svg width="100%" height="100%" viewBox="0 0 66 37" version="1.1" xmlns="http://www.w3.org/2000/svg" xmlns:xlink="http://www.w3.org/1999/xlink" xml:space="preserve" xmlns:serif="http://www.serif.com/" style="fill-rule:evenodd;clip-rule:evenodd;stroke-linejoin:round;stroke-miterlimit:1.41421;">
    <g transform="matrix(1,0,0,1,-0.467307,-280.688)">
        <g>
            <g transform="matrix(1,0,0,1,0.467307,280.688)">
                <path d="M22.17,17.719L0,17.719L0,0L22.17,0L22.17,17.719ZM12.141,11.518L15.272,15.798C15.399,16.064 15.468,16.462 15.227,16.544C14.89,16.657 14.596,16.644 14.458,16.454L11.443,12.313L8.358,16.454C8.016,16.751 7.66,16.707 7.519,16.606C7.379,16.506 7.27,16.245 7.544,15.798L10.557,11.518L3.167,11.518L3.167,2.658L2.111,2.658L2.111,1.772L20.059,1.772L20.059,2.658L19.003,2.658L19.003,11.518L12.141,11.518ZM4.223,2.658L17.947,2.658L17.947,10.632L4.223,10.632L4.223,2.658ZM9.5,5.361L5.561,9.217L5.171,8.94L9.485,4.718L12.285,7.096L16.144,3.881L16.506,4.183L12.284,7.7L9.5,5.361Z"/>
            </g>
            <g transform="matrix(1,0,0,1,0.467307,280.688)">
                <path d="M63.96,4.937L63.96,30.773L25.402,30.773L25.402,4.937L63.96,4.937ZM49.693,12.301L49.693,10.801C49.693,9.881 49.145,9.301 48.193,9.301L41.193,9.301C40.241,9.301 39.693,9.881 39.693,10.801C39.693,11.722 39.693,12.301 39.693,12.301L36.193,12.301C35.431,12.301 34.693,13.065 34.693,13.801L34.693,23.801C34.693,24.538 35.431,25.301 36.193,25.301L53.193,25.301C53.955,25.301 54.693,24.538 54.693,23.801L54.693,13.801C54.693,13.065 53.955,12.301 53.193,12.301L49.693,12.301ZM44.554,14.301C46.839,14.301 48.554,16.092 48.554,18.301C48.554,20.51 46.839,22.301 44.554,22.301C42.269,22.301 40.554,20.51 40.554,18.301C40.554,16.092 42.269,14.301 44.554,14.301Z"/>
            </g>
            <g transform="matrix(1,0,0,1,0.467307,280.688)">
                <path d="M22.114,18.915L22.114,36.602L0,36.602L0,18.915L22.114,18.915ZM16.804,29.022C16.964,29.021 17.094,28.892 17.094,28.732L17.094,28.3C17.094,28.141 16.964,28.011 16.804,28.011L5.31,28.011C5.15,28.011 5.02,28.141 5.02,28.3L5.02,28.732C5.02,28.892 5.15,29.022 5.31,29.022L8.293,29.022L8.293,35.086L13.821,35.086L13.821,29.022L16.804,29.022ZM15.352,27.506C15.351,27.494 15.082,24.896 14.704,24.186C14.325,23.474 12.439,23.45 12.439,23.45C12.439,23.45 12.005,25.292 11.889,25.642C11.772,25.993 11.748,26.074 11.748,26.074C11.748,26.074 11.454,24.294 11.403,24.114C11.364,23.978 11.111,23.969 11.057,23.969C11.003,23.969 10.75,23.985 10.712,24.12C10.66,24.301 10.449,26.035 10.449,26.035C10.449,26.035 10.385,25.993 10.268,25.642C10.152,25.292 9.675,23.45 9.675,23.45C9.675,23.45 7.79,23.474 7.411,24.186C7.032,24.897 6.762,27.506 6.762,27.506L15.352,27.506ZM11.748,23.45C11.786,23.585 11.277,23.878 11.277,23.878L10.87,23.869C10.87,23.869 10.329,23.585 10.366,23.45C10.401,23.324 10.864,23.338 11.057,23.337C11.251,23.338 11.714,23.324 11.748,23.45ZM11.057,19.505C12.108,19.505 12.961,20.287 12.961,21.251C12.961,22.215 12.108,22.997 11.057,22.997C10.006,22.997 9.153,22.215 9.153,21.251C9.153,20.287 10.006,19.505 11.057,19.505Z"/>
            </g>
        </g>
    </g>
</svg>
