<?xml version="1.0" encoding="UTF-8" standalone="no"?>
<!DOCTYPE svg PUBLIC "-//W3C//DTD SVG 1.1//EN" "http://www.w3.org/Graphics/SVG/1.1/DTD/svg11.dtd">
<svg width="100%" height="100%" viewBox="0 0 57 36" version="1.1" xmlns="http://www.w3.org/2000/svg" xmlns:xlink="http://www.w3.org/1999/xlink" xml:space="preserve" xmlns:serif="http://www.serif.com/" style="fill-rule:evenodd;clip-rule:evenodd;stroke-linejoin:round;stroke-miterlimit:1.41421;">
    <path d="M21,36L0,36L0,16L21,16L21,36ZM11.5,29L14.466,33.831C14.586,34.132 14.651,34.581 14.423,34.673C14.104,34.801 13.826,34.786 13.695,34.572L10.839,29.897L7.916,34.572C7.593,34.907 7.256,34.857 7.122,34.743C6.99,34.63 6.887,34.336 7.146,33.831L10,29L3,29L3,19L2,19L2,18L19,18L19,19L18,19L18,29L11.5,29ZM4,19L17,19L17,28L4,28L4,19ZM8.999,22.051L5.267,26.403L4.898,26.091L8.984,21.325L11.636,24.01L15.292,20.381L15.635,20.721L11.635,24.691L8.999,22.051Z"/>
    <path d="M57,35L22,35L22,15L17,15L17,0L57,0L57,35ZM47.346,20C47.663,20 47.92,19.743 47.92,19.427L47.92,18.573C47.92,18.257 47.663,18 47.346,18L26.654,18C26.337,18 26.08,18.257 26.08,18.573L26.08,19.427C26.08,19.743 26.337,20 26.654,20L32,20L32,32L42,32L42,20L47.346,20ZM44.768,17C44.766,16.977 44.28,11.836 43.596,10.431C42.91,9.023 39.5,8.974 39.5,8.974C39.5,8.974 38.715,12.619 38.504,13.313C38.294,14.007 38.25,14.168 38.25,14.168C38.25,14.168 37.718,10.646 37.625,10.288C37.555,10.019 37.098,10.002 37,10.002C36.902,10.002 36.445,10.033 36.375,10.301C36.282,10.659 35.9,14.089 35.9,14.089C35.9,14.089 35.784,14.007 35.573,13.313C35.362,12.619 34.5,8.974 34.5,8.974C34.5,8.974 31.09,9.023 30.404,10.431C29.719,11.839 29.232,17 29.232,17L44.768,17ZM38.25,8.974C38.318,9.242 37.398,9.821 37.398,9.821L36.662,9.804C36.662,9.804 35.682,9.242 35.75,8.974C35.812,8.726 36.651,8.754 37,8.75C37.351,8.753 38.188,8.726 38.25,8.974ZM37,1.167C38.901,1.167 40.444,2.715 40.444,4.623C40.444,6.53 38.901,8.079 37,8.079C35.099,8.079 33.556,6.53 33.556,4.623C33.556,2.715 35.099,1.167 37,1.167Z"/>
</svg>
