<?xml version="1.0" encoding="UTF-8" standalone="no"?>
<!DOCTYPE svg PUBLIC "-//W3C//DTD SVG 1.1//EN" "http://www.w3.org/Graphics/SVG/1.1/DTD/svg11.dtd">
<svg width="100%" height="100%" viewBox="0 0 57 36" version="1.1" xmlns="http://www.w3.org/2000/svg" xmlns:xlink="http://www.w3.org/1999/xlink" xml:space="preserve" xmlns:serif="http://www.serif.com/" style="fill-rule:evenodd;clip-rule:evenodd;stroke-linejoin:round;stroke-miterlimit:1.41421;">
    <g transform="matrix(1,0,0,1,-11,-242)">
        <g>
            <g transform="matrix(1,0,0,1,11,242)">
                <path d="M57,36L36,36L36,16L57,16L57,36ZM47.5,29L50.466,33.831C50.586,34.132 50.651,34.581 50.423,34.673C50.104,34.801 49.826,34.786 49.695,34.572L46.839,29.897L43.916,34.572C43.593,34.907 43.256,34.857 43.122,34.743C42.99,34.63 42.887,34.336 43.146,33.831L46,29L39,29L39,19L38,19L38,18L55,18L55,19L54,19L54,29L47.5,29ZM40,19L53,19L53,28L40,28L40,19ZM44.999,22.051L41.267,26.403L40.898,26.091L44.984,21.325L47.636,24.01L51.292,20.381L51.635,20.721L47.635,24.691L44.999,22.051Z"/>
            </g>
            <g transform="matrix(1,0,0,1,11,242)">
                <path d="M0,0L40,0L40,15L35,15L35,35L0,35L0,0ZM30.346,20C30.663,20 30.92,19.743 30.92,19.427L30.92,18.573C30.92,18.257 30.663,18 30.346,18L9.654,18C9.337,18 9.08,18.257 9.08,18.573L9.08,19.427C9.08,19.743 9.337,20 9.654,20L15,20L15,32L25,32L25,20L30.346,20ZM27.768,17C27.765,16.969 27.279,11.835 26.596,10.431C25.91,9.023 22.5,8.974 22.5,8.974C22.5,8.974 21.715,12.619 21.504,13.313C21.294,14.007 21.25,14.168 21.25,14.168C21.25,14.168 20.718,10.646 20.625,10.288C20.555,10.019 20.098,10.002 20,10.002C19.902,10.002 19.445,10.033 19.375,10.301C19.282,10.659 18.9,14.089 18.9,14.089C18.9,14.089 18.784,14.007 18.573,13.313C18.362,12.619 17.5,8.974 17.5,8.974C17.5,8.974 14.09,9.023 13.404,10.431C12.719,11.839 12.232,17 12.232,17L27.768,17ZM21.25,8.974C21.318,9.242 20.398,9.821 20.398,9.821L19.662,9.804C19.662,9.804 18.682,9.242 18.75,8.974C18.812,8.726 19.651,8.754 20,8.75C20.351,8.753 21.188,8.726 21.25,8.974ZM20,1.167C21.901,1.167 23.444,2.715 23.444,4.623C23.444,6.53 21.901,8.079 20,8.079C18.099,8.079 16.556,6.53 16.556,4.623C16.556,2.715 18.099,1.167 20,1.167Z"/>
            </g>
        </g>
    </g>
</svg>
