<?xml version="1.0" standalone="no"?>
<!DOCTYPE svg PUBLIC "-//W3C//DTD SVG 1.1//EN" "http://www.w3.org/Graphics/SVG/1.1/DTD/svg11.dtd">
<svg xmlns="http://www.w3.org/2000/svg">
<metadata>Copyright (C) 2021 by original authors @ fontello.com</metadata>
<defs>
<font id="openolat" horiz-adv-x="1000" >
<font-face font-family="openolat" font-weight="400" font-stretch="normal" units-per-em="1000" ascent="850" descent="-150" />
<missing-glyph horiz-adv-x="1000" />
<glyph glyph-name="openolat" unicode="&#xe600;" d="M473 80c40 0 81 8 121 24 41 16 80 38 118 64 37 26 73 54 106 84 34 29 64 58 90 86-28 27-60 56-94 89-35 32-71 62-110 88-38 27-78 49-119 67-40 18-81 28-121 28-76 0-135-28-177-83-43-55-64-116-64-185 0-78 22-141 67-189 45-49 105-73 183-73z m0-235c-73 0-139 13-197 38s-107 60-148 104c-40 43-72 96-94 157-22 60-33 126-33 198 0 69 10 134 32 194 21 61 51 115 91 160 40 46 88 82 145 108 56 27 121 40 195 40 62 0 121-11 176-32s107-49 155-82c49-34 95-71 138-113 42-41 84-84 124-126 39 42 79 85 121 126 41 42 86 79 134 113 47 33 98 61 152 82s111 32 172 32c71 0 136-13 193-38 58-25 108-60 150-105 41-45 73-98 96-158 22-61 33-126 33-195 0-71-10-137-32-198-21-61-52-114-93-159-40-45-90-80-147-106-58-27-124-40-197-40-61 0-118 10-172 29s-104 45-151 76c-46 32-92 67-135 107-44 39-85 80-124 123-40-41-81-81-123-120-42-40-86-76-134-108-48-33-98-59-152-78s-112-29-175-29z m1172 235c77 0 137 24 178 74 42 50 63 111 63 184 0 78-21 142-64 194s-105 78-186 78c-41 0-81-10-122-28-40-18-79-41-117-68-38-28-73-58-107-90-33-33-63-62-89-89 30-28 62-57 95-88 34-30 69-58 106-82 36-25 75-45 115-61 41-16 84-24 128-24z m0 0" horiz-adv-x="2109.4" />

<glyph glyph-name="card2brain" unicode="&#xe800;" d="M59 312q0 90 35 171 70 165 234 235 82 35 172 35 89 0 171-35 164-70 235-235 35-82 35-171 0-90-35-172-70-163-235-234-82-35-171-35-90 0-172 35-164 70-234 234-35 82-35 172z m163-36q0-48 35-75-4-13-4-27 0-35 24-59t57-24q9-24 31-39t47-15q33 0 56 22 24 22 24 54v92h17v-92q0-32 23-54 24-22 56-22 26 0 48 15t30 39q34 0 57 24 24 24 24 59 0 14-4 27 35 27 35 75 0 31-17 55 17 22 17 53 0 28-15 50t-38 31q1 11 1 12 0 10-4 24-9 30-37 44-18 10-41 10h-6q-9 18-26 28t-37 10q-29 0-49-20-19-20-19-50v-41h-14v41q0 30-21 50t-50 20q-40 0-60-38h-6q-22 0-41-10-28-14-37-44-4-14-4-24 0-1 1-12-24-9-38-31t-15-50q0-31 17-53-17-24-17-55z m36 0q0 28 17 43l14 13-14 13q-17 16-17 39 0 21 12 35t30 16l28 1-14 25q0 1-1 1-7 14-1 28 4 14 20 24 12 5 21 5l14-2 19-7 5 20q7 28 31 28 14 0 25-10t10-25v-77h85v77q0 15 10 25t23 10q12 0 21-8t13-20l5-20 19 7q6 2 14 2l21-5q16-10 20-24 6-14-1-28l-1-1-13-25 27-1q18-1 30-16t12-35q0-23-17-39l-14-13 14-13q17-15 17-43 0-17-8-32t-22-20l-19-8 11-17q8-12 8-25 0-21-18-36-12-11-27-11h-1q-1 0-10 1l-19 3-3-18q-4-17-16-29t-30-12-31 13-13 30v90h68q14 0 23 10t10 23v146q0 14-10 23t-23 10h-224q-13 0-23-10t-10-23v-146q0-14 10-23t23-10h68v-90q0-18-13-30t-31-13q-17 0-30 12t-16 29l-3 18-19-3q-5-1-9-1-20 0-33 14t-14 33q0 13 8 25l11 17-19 8q-14 5-22 20t-8 32z m131-39v19h222v-19h-222z m0 50v26h222v-26h-222z m0 58v38h222v-38h-222z" horiz-adv-x="1000" />

<glyph glyph-name="card2brain_o" unicode="&#xe802;" d="M81 252q0 49 28 85-28 34-28 81 0 41 23 74t59 46q-7 26 3 56 14 41 55 64 34 19 71 14 13 27 38 43t55 16q42 0 73-30t30-72v-76h24v76q0 42 30 72t73 30q30 0 55-16t38-43q37 5 71-14 41-23 55-64 10-30 3-56 36-12 59-46t23-74q0-47-28-81 28-36 28-85 0-35-15-64t-40-48q8-26 8-44 0-50-36-86t-87-35q-12-36-44-59t-71-23q-47 0-83 32-37 34-37 79v145h-27l-1-145q0-46-36-79-36-32-84-32-39 0-71 23t-44 59q-51-1-87 35t-36 86q0 18 8 44-26 18-40 48t-15 64z m44 0q0-28 14-50t35-33l23-10-14-22q-11-19-11-41 0-32 22-55t55-22q6 0 15 1l22 5 4-23q5-28 26-47 22-19 50-19 31 0 53 21 23 21 23 50l1 142h-114q-18 0-31 13t-13 32v223q0 18 13 32t31 13h342q18 0 31-13t13-32v-223q0-18-13-32t-31-13h-113v-142q0-28 24-50 23-21 52-21 28 0 50 19 21 19 26 47l4 23 22-5q9-1 15-1 32 0 55 22t22 55q0 22-11 41l-14 22 23 10q22 10 35 33t14 50q0 41-28 69l-17 17 17 15q28 23 28 65 0 32-20 56t-49 26l-34 2 17 30v2q12 21 4 46-9 27-35 40-27 14-57 5l-24-8-5 24q-4 20-20 33t-37 14q-25 0-42-17t-17-42v-119h-112v119q0 25-17 42t-42 17q-20 0-37-14t-20-33l-5-24-24 8q-30 9-57-5-26-13-35-40-8-25 4-46v-2l17-30-34-2q-29-2-49-26t-20-56q0-42 28-65l17-15-17-17q-28-28-28-69z m200-58q0-4 4-4h342q4 0 4 4v26h-350v-26z m0 70h350v41h-350v-41z m0 84h350v69q0 4-4 4h-342q-4 0-4-4v-69z" horiz-adv-x="1000" />

<glyph glyph-name="edusharing" unicode="&#xe803;" d="M136-153l-133 227 133 226h264l132-226-132-227h-264m0 540l-133 227 133 226h264l132-226-132-227h-264m463-270l-132 227 132 226h265l132-226-132-227h-265" horiz-adv-x="999" />

<glyph glyph-name="o_icon_opencast" unicode="&#xe804;" d="M499 844l499-499-499-498v233l266 265-266 266z m-266-499l266 266v233l-499-499 499-498v233z m664-501l-1 233 266 266-266 265v233l499-499z" horiz-adv-x="1394.5" />

<glyph glyph-name="align-bottom" unicode="&#xe805;" d="M938-62c0 17-15 31-32 31h-812c-17 0-31-14-31-31s14-32 31-32h812c17 0 32 15 32 32z m-375 94c34 0 62 28 62 62v625c0 34-28 63-62 63h-125c-35 0-63-29-63-63v-625c0-34 28-62 63-62h125z" horiz-adv-x="1000" />

<glyph glyph-name="align-left" unicode="&#xe806;" d="M94-94c17 0 31 15 31 32v812c0 17-14 32-31 32s-31-15-31-32v-812c0-17 14-32 31-32z m94 376c0-35 28-63 62-63h625c34 0 63 28 63 63v125c0 34-29 62-63 62h-625c-34 0-62-28-62-62v-125z" horiz-adv-x="1000" />

<glyph glyph-name="align-right" unicode="&#xe807;" d="M906 782c-17 0-31-15-31-32v-812c0-17 14-32 31-32s32 15 32 32v812c0 17-15 32-32 32z m-93-375c0 34-29 62-63 62h-625c-34 0-62-28-62-62v-125c0-35 28-63 62-63h625c34 0 63 28 63 63v125z" horiz-adv-x="1000" />

<glyph glyph-name="align-top" unicode="&#xe808;" d="M63 750c0-17 14-31 31-31h812c17 0 32 14 32 31s-15 32-32 32h-812c-17 0-31-15-31-32z m375-93c-35 0-63-29-63-63v-625c0-34 28-63 63-63h125c34 0 62 29 62 63v625c0 34-28 63-62 63h-125z" horiz-adv-x="1000" />

<glyph glyph-name="distribute-h" unicode="&#xe809;" d="M63 750c0-17 14-31 31-31h812c17 0 32 14 32 31s-15 32-32 32h-812c-17 0-31-15-31-32z m0-812c0-17 14-32 31-32h812c17 0 32 15 32 32s-15 31-32 31h-812c-17 0-31-14-31-31z m62 469c0 34 28 62 63 62h625c34 0 62-28 62-62v-125c0-35-28-63-62-63h-625c-35 0-63 28-63 63v125z" horiz-adv-x="1000" />

<glyph glyph-name="distribute-v" unicode="&#xe80a;" d="M906 782c-17 0-31-15-31-32v-812c0-17 14-32 31-32s32 15 32 32v812c0 17-15 32-32 32z m-812 0c-17 0-31-15-31-32v-812c0-17 14-32 31-32s31 15 31 32v812c0 17-14 32-31 32z m281-750c0-35 28-63 63-63h125c34 0 62 28 62 63v625c0 34-28 62-62 62h-125c-35 0-63-28-63-62v-625z" horiz-adv-x="1000" />

<glyph glyph-name="equal-size" unicode="&#xe80b;" d="M187 375h67v295c0 24 20 44 44 44h523c24 0 44-20 44-44v-523c0-24-20-44-44-44h-295v-67h354c29 0 53 23 53 53v640c0 29-24 53-53 53h-640c-30 0-53-24-53-53v-354z m311-137c0 60-49 109-109 109h-218c-60 0-109-49-109-109v-218c0-60 49-109 109-109h218c60 0 109 49 109 109v218z" horiz-adv-x="1000" />

<glyph glyph-name="equal-size-width" unicode="&#xe80c;" d="M233 720h-127c-24 0-44-17-44-38v-671c0-21 20-38 44-38h127v63h-71c-21 0-38 14-38 31v559c0 18 17 31 38 31h71v63z m451-51c0 28-17 51-38 51h-297c-21 0-38-23-38-51v-645c0-28 17-51 38-51h297c21 0 38 23 38 51v645z m78 51v-63h71c21 0 38-13 38-31v-559c0-17-17-31-38-31h-71v-63h127c24 0 44 17 44 38v671c0 21-20 38-44 38h-127z" horiz-adv-x="1000" />

<glyph glyph-name="equal-size-height" unicode="&#xe80d;" d="M871 611v127c0 24-17 44-38 44h-671c-21 0-38-20-38-44v-127h63v71c0 21 14 38 31 38h559c18 0 32-17 32-38v-71h62z m-51-451c28 0 51 17 51 38v297c0 21-23 38-51 38h-645c-28 0-51-17-51-38v-297c0-21 23-38 51-38h645z m51-78h-62v-71c0-21-14-38-32-38h-559c-17 0-31 17-31 38v71h-63v-127c0-24 17-44 38-44h671c21 0 38 20 38 44v127z" horiz-adv-x="1000" />

<glyph glyph-name="publicdomain" unicode="&#xe810;" d="M90 796l2682-5c37 0 71 6 71-75l-3-889h-2817v893c0 39 4 76 67 76z m693-115c112-84 186-218 186-369 0-138-61-261-157-346h2028v715h-2057z m-291 11c-209 0-378-170-378-380s169-381 378-381c209 0 378 171 378 381s-169 380-378 380z m0-689c-170 0-307 138-307 309 0 35 6 70 17 102l120-54c-3-16-5-33-5-51 0-152 113-194 183-194 42 0 78 13 107 33 3 2 6 4 8 7l-56 59c-21-18-43-12-48-12-58 0-82 61-82 110l331-149c0 0 1 0 1 0-52-95-153-160-269-160z m296 230l-342 153c13 23 32 40 61 40 18 0 31-6 42-13 4-3 8-7 11-10l62 64c-42 36-89 42-119 42-73 0-124-31-154-79l-114 51c55 84 149 140 257 140 169 0 307-139 307-309 0-28-4-54-11-80 0 0 0 1 0 1z m397 335c13 0 24-2 33-6 8-3 16-8 21-14 6-6 10-13 12-21 3-8 4-16 4-24 0-9-1-17-4-25-2-7-6-14-12-21-5-6-13-11-21-14-9-4-20-6-33-6h-47v-73h-44v204h91z m-12-96c5 0 10 0 15 1 4 1 9 2 12 5 4 2 7 5 9 9s3 9 3 16c0 6-1 11-3 15s-5 7-9 10c-3 2-8 3-12 4-5 1-10 1-15 1h-35v-61h35z m271-92c-16-14-37-21-64-21s-49 7-64 20c-15 14-22 34-22 62v127h44v-127c0-5 1-11 2-16 1-6 3-10 6-14s7-8 12-10c6-3 13-4 22-4 16 0 27 3 33 11 6 7 9 18 9 33v127h45v-127c0-27-8-48-23-61z m171 188c10 0 19-1 27-3 7-1 14-4 20-8s10-9 13-16c3-6 5-14 5-24s-2-18-7-25c-5-7-12-13-21-17 13-4 22-10 28-19s9-20 9-33c0-10-2-19-5-27-4-7-10-13-17-18-6-5-14-8-23-11-8-2-17-3-26-3h-98v204h95z m-5-83c8 0 14 2 19 6s8 10 8 19c0 5-1 8-3 11-1 4-4 6-7 8-2 1-6 3-9 3-4 1-8 1-12 1h-42v-48h46z m2-86c4 0 9 0 13 1s7 2 10 4c3 2 6 5 7 9 2 3 3 7 3 13 0 10-3 18-9 22-6 5-13 7-23 7h-49v-56h48z m167 169v-166h99v-38h-144v204h45z m181 0v-204h-45v204h45z m184-54c-3 4-6 8-10 11s-9 6-14 7c-5 2-10 3-16 3-10 0-18-2-25-6s-13-9-17-15c-5-7-8-14-10-23-2-8-3-17-3-26 0-8 1-17 3-25s5-15 10-22c4-6 10-11 17-15s15-6 25-6c14 0 25 4 32 12 8 9 13 20 14 34h44c-2-13-4-25-9-35s-11-19-19-26c-8-7-17-13-27-17-11-4-22-6-34-6-16 0-30 3-42 9-13 5-23 12-32 22-8 10-15 21-19 34-5 12-7 26-7 41s2 30 7 43c4 13 11 24 19 34 9 9 19 17 32 23 12 5 26 8 42 8 11 0 21-2 31-5s19-8 27-14c8-6 14-14 19-23s9-20 10-32h-43c-1 6-3 10-5 15z m-963-232c13 0 25-2 37-6 11-4 21-10 29-19s15-19 19-31c5-13 7-28 7-45 0-14-2-28-5-41-4-12-10-23-18-32-7-9-17-17-28-22-12-5-25-8-41-8h-87v204h87z m-3-166c7 0 13 1 19 3s11 6 16 11c5 4 9 11 11 19 3 7 5 17 5 28 0 10-1 20-3 28s-6 15-10 21c-5 6-11 11-18 14-8 3-17 5-28 5h-32v-129h40z m138 106c5 13 11 24 20 34 8 10 19 17 31 23 13 5 26 8 42 8s30-3 42-8c12-6 23-13 31-23 9-10 15-21 20-34 4-13 7-27 7-43 0-14-3-28-7-41-5-13-11-24-20-34-8-9-19-17-31-22s-26-8-42-8c-16 0-29 3-42 8-12 5-23 13-31 22-9 10-15 21-20 34-4 13-7 27-7 41 0 16 3 30 7 43z m41-68c2-8 5-15 9-21 5-7 10-12 17-16s16-6 26-6c10 0 19 2 26 6s12 9 17 16c4 6 7 13 9 21 2 9 3 17 3 25 0 9-1 18-3 26-2 9-5 16-9 23-5 6-10 12-17 16-7 3-16 5-26 5s-19-2-26-5c-7-4-12-10-17-16-4-7-7-14-9-23s-3-17-3-26c0-8 1-16 3-25z m259 128l47-140h1l45 140h63v-204h-42v145h-1l-49-145h-35l-49 143h-1v-143h-42v204h63z m312 0l76-204h-47l-15 46h-76l-16-46h-45l77 204h46z m3-125l-26 75h-1l-26-75h53z m151 125v-204h-44v204h44z m99 0l84-137h1v137h42v-204h-45l-84 137h-1v-137h-41v204h44z m621 530h-2733c-29 0-53-24-53-54v-934c0-7 6-12 12-12h2815c7 0 12 5 12 12v934c0 30-24 54-53 54z m-2733-24h2733c16 0 29-13 29-30 0 0 0-649 0-921h-2791v272c0 272 0 649 0 649 0 17 13 30 29 30z" horiz-adv-x="2838.9" />

<glyph glyph-name="cc-zero" unicode="&#xe811;" d="M58 829l2682-5c37 0 71 5 71-76l-4-889h-2817v893c0 40 4 77 68 77z m693-116c112-84 185-217 185-369 0-138-60-261-156-345h2028v714h-2057z m402-113c13 0 23-2 32-5 9-4 16-9 22-15s10-13 12-21c3-8 4-16 4-24s-1-16-4-24c-2-8-6-15-12-21s-13-11-22-15c-9-4-19-6-32-6h-47v-73h-44v204h91z m-12-96c5 0 10 1 14 1 5 1 9 3 13 5s6 5 9 9 3 9 3 16c0 6-1 11-3 15-3 4-5 8-9 10s-8 3-13 4c-4 1-9 1-14 1h-35v-61h35z m270-92c-15-14-36-20-63-20-28 0-49 6-64 20-15 13-23 34-23 61v127h45v-127c0-5 1-11 1-16 1-5 3-10 6-14s8-8 13-10c5-3 13-4 22-4 16 0 27 4 33 11s9 18 9 33v127h44v-127c0-27-7-48-23-61z m172 188c10 0 18-1 26-2 8-2 15-5 21-9 5-4 10-9 13-15 3-7 5-15 5-24 0-11-3-19-7-26-5-7-12-13-21-17 13-4 22-10 28-19s9-20 9-33c0-10-2-19-6-26-4-8-9-14-16-19s-14-8-23-10c-8-3-17-4-26-4h-99v204h96z m-6-82c8 0 15 2 20 5 5 4 8 10 8 19 0 5-1 9-3 12s-4 5-7 7c-3 2-6 3-10 3-3 1-7 1-11 1h-42v-47h45z m3-87c4 0 8 0 12 1s8 3 11 5c3 2 5 4 7 8 2 3 3 8 3 13 0 10-3 18-9 22-6 5-14 7-23 7h-49v-56h48z m167 169v-166h98v-38h-143v204h45z m180 0v-204h-44v204h44z m184-54c-2 4-6 8-10 11s-8 6-13 8c-5 1-10 2-16 2-10 0-18-2-25-6-7-3-13-9-17-15-5-7-8-14-10-23-2-8-3-17-3-26 0-8 1-17 3-25s5-15 10-22c4-6 10-11 17-15s15-6 25-6c14 0 24 4 32 13 8 8 12 19 14 33h43c-1-13-4-25-8-35-5-10-11-19-19-26s-17-13-27-17c-11-4-22-5-35-5-15 0-29 2-42 8-12 5-22 13-31 22-9 10-15 21-20 34-4 13-6 26-6 41 0 16 2 30 6 43 5 13 12 24 20 34 9 10 19 17 31 23 13 5 27 8 42 8 11 0 22-2 32-5s19-8 27-14c7-6 14-14 19-23s8-20 10-31h-43c-1 5-3 10-6 14z m-962-232c13 0 25-2 36-6 12-4 21-10 30-19 8-8 14-19 19-31 5-13 7-27 7-44 0-15-2-29-6-41-4-13-9-24-17-33s-17-16-29-22c-11-5-25-7-40-7h-87v203h87z m-3-166c6 0 13 1 19 3s11 6 16 11c4 5 8 11 11 19s4 17 4 28c0 11-1 20-3 28s-5 16-9 21c-5 6-11 11-18 14-8 3-17 5-28 5h-32v-129h40z m138 106c4 13 11 24 19 34 9 10 19 18 32 23 12 6 26 8 42 8 15 0 29-2 42-8 12-5 22-13 31-23s15-21 20-34c4-13 6-27 6-42s-2-29-6-42c-5-13-12-24-20-33-9-10-19-17-31-23-13-5-27-8-42-8-16 0-30 3-42 8-13 6-23 13-32 23-8 9-15 20-19 33-5 13-7 27-7 42s2 29 7 42z m41-67c2-8 5-16 9-22 5-7 10-12 17-16s16-6 26-6c10 0 18 2 25 6s13 9 17 16c5 6 8 14 10 22s3 16 3 25c0 9-1 17-3 26-2 8-5 16-10 22-4 7-10 12-17 16s-15 6-25 6c-10 0-19-2-26-6s-13-9-17-16c-4-6-7-14-9-22-2-9-3-17-3-26s1-17 3-25z m259 127l47-140h1l45 140h62v-203h-41v144h-1l-50-144h-34l-50 143v-143h-42v203h63z m312 0l75-203h-46l-15 45h-76l-16-45h-45l77 203h46z m2-125l-25 75h-1l-26-75h52z m152 125v-203h-45v203h45z m99 0l84-136h1v136h42v-203h-45l-84 136h-1v-136h-42v203h45z m620 530h-2732c-29 0-53-24-53-53v-935c0-7 5-12 12-12h2815c6 0 12 5 12 12v935c0 29-24 53-54 53z m-2732-24h2732c17 0 30-13 30-29 0 0 0-649 0-922h-2791v272c0 272 0 650 0 650 0 16 13 29 29 29z m422-258c-125 0-156-118-156-219 0-100 31-218 156-218 124 0 156 118 156 218 0 101-32 219-156 219z m0-82c5 0 9-1 14-2 9-8 13-19 5-34l-83-153c-3 19-3 38-3 52 0 44 3 137 67 137z m62-71c4-24 5-48 5-66 0-44-3-136-67-136-5 0-10 1-14 2-1 0-2 0-3 0-1 1-2 1-4 2-14 6-23 17-10 37l93 161z m-63 314c-105 0-193-37-265-110-36-37-64-79-83-125s-29-94-29-145c0-50 10-98 29-144s46-87 82-124c36-36 77-64 122-83 46-19 94-29 144-29s98 10 145 30c47 19 88 47 125 84 36 34 63 74 81 120 18 45 27 94 27 146s-9 101-27 146c-19 46-46 87-81 123-74 74-164 111-270 111z m2-68c85 0 158-31 218-92 30-29 52-63 67-100 16-38 23-78 23-120 0-87-29-159-88-217-31-30-65-53-103-69s-77-24-117-24c-41 0-80 8-118 24-37 15-71 38-100 67-30 30-53 64-69 102s-24 77-24 117c0 42 8 81 24 118 16 38 39 73 69 103 59 60 131 91 218 91z" horiz-adv-x="2838.9" />

<glyph glyph-name="by" unicode="&#xe812;" d="M54 844c-30 0-54-24-54-54v-934c0-7 5-12 12-12h2833c7 0 12 5 12 12v934c0 30-24 54-53 54h-2750z m0-24h2750c16 0 29-14 29-30v-649h-1972c-72-131-210-219-370-219-159 0-298 88-370 219h-97v649c0 16 14 30 30 30z m1768-756h38l37-62 37 62h39l-58-97v-61h-35v62l-58 96z m-1067 577c72-72 108-160 108-264 0-104-35-191-106-262-75-73-164-110-266-110-102 0-189 36-262 109-73 74-110 161-110 263 0 102 37 190 110 264 71 72 159 108 262 108 104 0 192-36 264-108z m-477-48c-61-62-92-134-92-216 0-83 30-154 91-214 60-61 132-91 215-91s155 31 217 92c58 56 87 127 87 213 0 85-29 157-89 216-59 60-131 89-215 89s-156-29-214-89z m160-180c-10 20-24 31-42 31-33 0-49-22-49-67 0-44 16-66 49-66 22 0 37 11 46 32l46-24c-22-38-54-58-98-58-33 0-60 11-80 31-20 21-30 49-30 85 0 35 10 64 31 84s46 32 77 32c46 0 79-18 99-55l-49-25z m214 0c-10 20-23 31-41 31-34 0-50-22-50-67 0-44 16-66 50-66 21 0 37 11 45 32l47-24c-22-38-54-58-98-58-33 0-60 11-80 31-20 21-30 49-30 85 0 35 10 64 31 84 20 21 46 32 78 32 45 0 78-18 98-55l-50-25z m1238 142c0 10-8 18-18 18h-113c-10 0-18-8-18-18v-112h32v-134h86v134h31v112z m-36 72c0-22-17-39-38-39s-39 17-39 39c0 21 17 38 39 38s38-17 38-38z m-39 136c-76 0-141-26-194-80-54-55-81-120-81-196s27-140 81-195c55-54 119-81 194-81 76 0 142 27 198 82 53 52 79 117 79 194s-27 143-80 196c-54 53-119 80-197 80z m1-49c63 0 116-23 160-67 44-43 66-97 66-160 0-63-22-116-65-158-46-45-99-68-161-68-62 0-115 23-160 67-44 45-67 98-67 159 0 61 23 115 68 160 43 44 96 67 159 67z m-58-650c7 0 14-1 20-2 6-1 12-3 16-6 4-3 8-7 10-12 3-5 4-12 4-19 0-8-2-15-5-20-4-5-9-10-17-13 10-3 18-8 22-15s8-15 8-25c0-8-2-15-5-21-3-5-7-10-13-14-5-4-11-6-18-8-6-2-13-3-20-3h-77v158h75z m-5-64c6 0 11 2 15 5 4 3 6 7 6 14 0 4 0 7-2 9-1 2-3 4-5 6-2 1-5 2-8 2s-5 1-9 1h-32v-37h35z m2-67c4 0 7 1 10 1s6 2 8 4c2 1 4 3 6 6 1 3 2 6 2 10 0 8-3 14-7 17-5 4-11 6-18 6h-38v-44h37z" horiz-adv-x="2857.4" />

<glyph glyph-name="by-sa" unicode="&#xe813;" d="M761 642c72-72 108-160 108-264 0-105-35-192-106-262-75-74-164-111-266-111-101 0-188 37-262 110-73 73-109 161-109 263 0 102 36 190 109 264 72 72 159 108 262 108 104 0 192-36 264-108z m-477-48c-61-62-91-134-91-216 0-83 30-154 90-215 60-60 132-90 215-90s156 31 217 91c58 57 88 128 88 214 0 85-30 157-89 216-60 59-131 89-216 89s-156-30-214-89z m160-180c-9 20-23 30-42 30-33 0-49-22-49-66 0-44 16-66 49-66 22 0 37 11 47 32l45-24c-21-39-54-58-97-58-34 0-61 10-81 31-20 20-30 49-30 85 0 35 10 63 31 84 21 21 47 31 78 31 46 0 78-18 98-54l-49-25z m214 0c-9 20-23 30-41 30-33 0-50-22-50-66 0-44 17-66 50-66 22 0 37 11 46 32l46-24c-21-39-54-58-97-58-34 0-60 10-80 31-21 20-31 49-31 85 0 35 11 63 31 84 20 21 46 31 78 31 46 0 79-18 98-54l-50-25z m-604 430c-30 0-54-24-54-54v-934c0-7 5-12 12-12h2833c7 0 12 5 12 12v934c0 30-24 54-53 54h-2750z m0-24h2750c16 0 29-14 29-30v-649h-1965c-72-130-212-218-371-218-159 0-298 88-370 218h-103v649c0 16 14 30 30 30z m2028-752c8 0 16-1 24-2 7-2 14-5 20-9 6-5 11-10 14-17 3-6 5-14 5-23h-34c0 5-1 9-3 12-2 3-4 6-7 8-2 1-6 3-9 3-4 1-7 1-11 1-3 0-7 0-9-1-3 0-6-1-8-3-2-1-4-3-5-6-2-2-2-4-2-8 0-3 0-5 1-7 1-2 4-4 8-6s8-3 14-5c6-1 14-3 24-6 3 0 6-1 11-3s11-4 16-7c5-4 10-9 13-14 4-6 6-13 6-22 0-7-1-14-4-20-3-6-7-11-13-16-5-4-12-8-20-10-8-3-17-5-28-5-9 0-17 2-25 4-8 2-16 5-22 10-6 4-12 11-16 18-3 7-5 15-5 25h34c0-5 1-10 3-13 2-4 5-7 8-9 3-3 7-4 11-6 4-1 8-2 13-2 3 0 7 1 10 2 4 0 7 1 10 3 3 1 5 3 7 6 2 2 4 5 4 9 0 5-2 8-4 11-3 2-7 5-11 6-4 2-9 4-15 5-5 1-11 3-17 4-6 2-11 3-17 6-6 2-11 4-16 8s-7 7-10 13c-3 5-4 11-4 18 0 8 2 16 5 22 4 6 8 11 14 15 5 4 11 6 18 8 7 2 15 3 22 3z m-728-4h75c7 0 14-1 21-2 6-2 11-3 15-6 5-3 8-8 11-13s3-10 3-18c0-8-2-14-6-20-3-5-8-10-15-13 9-3 17-7 21-14s8-16 8-26c0-8-2-15-5-21-3-5-7-10-12-14-6-3-12-6-18-8-7-2-14-3-21-3h-77v158z m139 0h38l38-62 36 62h39l-58-97v-61h-35v62l-58 96z m721 0h35l59-158h-36l-11 35h-59l-13-35h-35l60 158z m-825-27v-37h35c6 0 11 2 15 5 4 2 6 8 6 14 0 4 0 7-1 9-2 3-3 4-6 6-2 1-5 2-8 3-3 0-6 0-9 0h-32z m842-12l-20-58h41l-20 58h-1z m-842-48v-44h37c4 0 7 1 10 1 3 1 6 2 8 3 3 2 4 5 6 7s2 6 2 10c0 8-2 14-7 18s-10 5-18 5h-38z m795 786c-76 0-141-27-194-80-54-55-81-120-81-196s27-140 81-195c55-54 119-81 194-81 77 0 142 27 198 82 53 52 79 117 79 194 0 77-27 143-80 196-54 53-119 80-197 80z m1-50c63 0 116-22 160-66 44-43 66-97 66-160 0-63-21-116-65-158-45-45-99-68-161-68s-115 23-159 67c-45 45-67 98-67 159 0 61 22 115 67 160 44 44 97 66 159 66z m-123-187c11 70 60 107 121 107 88 0 142-64 142-150 0-83-57-147-143-147-59 0-112 36-122 108h70c2-38 26-51 60-51 39 0 65 37 65 93 0 58-22 89-63 89-31 0-57-11-62-49l20 0-55-55-55 55 22 0z m-479 29c0 10-8 18-18 18h-113c-10 0-18-8-18-18v-112h32v-134h85v134h32v112z m-36 72c0-22-17-39-39-39s-38 17-38 39c0 21 17 38 38 38s39-17 39-38z m-39 136c-76 0-141-26-194-80-55-55-82-120-82-196s27-140 82-195c54-54 119-81 194-81 76 0 142 27 198 82 52 52 79 117 79 194s-27 143-81 196c-53 54-119 80-196 80z m1-49c62 0 116-23 159-67 45-43 67-97 67-160 0-63-22-116-65-158-46-45-100-68-161-68s-115 23-160 67c-45 45-67 98-67 159 0 61 23 115 68 160 43 44 96 67 159 67z" horiz-adv-x="2857.4" />

<glyph glyph-name="by-nd" unicode="&#xe814;" d="M761 643c72-72 108-160 108-264 0-105-35-192-106-262-75-74-164-111-266-111-101 0-188 37-262 110-73 73-109 161-109 263 0 101 36 190 109 264 72 72 159 108 262 108 104 0 192-36 264-108z m-477-48c-61-62-91-134-91-216s30-154 90-215c60-60 132-90 215-90s156 30 217 91c58 57 88 128 88 214 0 85-30 157-89 216-60 59-131 89-216 89s-156-30-214-89z m160-180c-9 20-23 30-42 30-33 0-49-22-49-66s16-66 49-66c22 0 37 11 47 32l45-24c-21-39-54-58-97-58-34 0-61 10-81 31-20 20-30 49-30 85 0 35 10 63 31 84 21 21 47 31 78 31 46 0 78-18 98-54l-49-25z m214 0c-9 20-23 30-41 30-33 0-50-22-50-66s17-66 50-66c22 0 37 11 46 32l46-24c-21-39-54-58-97-58-34 0-60 10-80 31-21 20-31 49-31 85 0 35 11 63 31 84 20 21 46 31 78 31 46 0 79-18 98-54l-50-25z m925 141c0 10-8 18-18 18h-113c-10 0-18-8-18-18v-113h32v-133h85v133h32v113z m-36 72c0-22-17-39-39-39s-38 17-38 39c0 21 17 38 38 38s39-17 39-38z m-39 136c-76 0-141-27-194-80-55-55-82-121-82-196s27-140 82-195c54-54 119-81 194-81 76 0 142 27 198 82 52 52 79 117 79 194s-27 143-81 196c-53 53-119 80-196 80z m1-50c62 0 116-22 159-66 45-44 67-97 67-160 0-63-22-116-65-158-46-45-100-68-161-68s-115 23-160 67c-45 45-67 98-67 159s23 115 68 160c43 44 96 66 159 66z m-1455 130c-30 0-54-24-54-54v-934c0-7 5-12 12-12h2833c7 0 12 5 12 12v934c0 30-24 54-53 54h-2750z m0-24h2750c16 0 29-14 29-30v-647h-1965c-72-130-212-219-371-219-159 0-298 89-370 219h-103v647c0 16 14 30 30 30z m1300-756h75c7 0 14-1 21-2s11-3 15-6c5-3 8-7 11-12 2-5 3-11 3-19 0-8-2-14-6-20-3-5-8-10-15-13 9-3 17-7 21-14s8-16 8-26c0-8-2-15-5-21s-7-10-12-14c-6-3-12-6-18-8-7-2-14-3-21-3h-77v158z m139 0h38l38-62 36 62h39l-58-97v-61h-35v62l-58 96z m518 0h35l66-106h1v106h32v-158h-35l-65 106h-1v-106h-33v158z m164 0h68c11 0 20-1 29-4 9-4 16-9 23-15 6-7 11-15 15-25 3-10 5-21 5-34 0-12-2-22-5-31-3-10-7-19-13-26-6-7-13-13-22-17-9-4-19-6-32-6h-68v158z m-786-27v-37h35c6 0 11 2 15 5 4 2 6 8 6 14 0 4 0 7-1 9-2 3-3 4-6 6-2 1-5 2-8 3-3 0-6 0-9 0h-32z m821-2v-100h31c5 0 10 2 14 3s9 4 13 8c4 3 7 8 9 15 2 6 4 13 4 22 0 8-2 15-3 22s-4 11-8 16c-3 4-8 8-14 10-6 3-13 4-21 4h-25z m-821-58v-44h37c4 0 7 1 10 1 3 1 6 2 8 3s4 5 6 7c1 3 2 6 2 10 0 8-2 14-7 18-4 3-10 5-18 5h-38z m796 786c-77 0-142-26-195-80-54-55-81-120-81-196 0-75 27-140 81-195 55-54 119-81 195-81 76 0 141 27 197 82 53 52 79 117 79 194 0 77-27 143-80 196-54 54-119 80-196 80z m0-49c63 0 116-23 160-67 44-43 66-97 66-160 0-63-21-116-65-158-45-45-99-68-161-68-62 0-115 23-159 67-45 45-67 98-67 159 0 61 22 115 67 160 44 44 97 67 159 67z m104-161h-201v-48h201v48z m0-89h-201v-48h201v48z" horiz-adv-x="2857.4" />

<glyph glyph-name="by-nceu" unicode="&#xe815;" d="M2381 683c-54 54-119 80-196 80-77 0-142-26-195-80-54-55-81-120-81-196 0-75 27-140 81-194 55-55 119-82 195-82 76 0 141 27 197 82 53 52 79 117 79 194 0 77-27 143-80 196z m-35-354c-45-45-99-68-161-68-62 0-115 23-159 67s-67 98-67 159c0 26 4 51 12 74l73-33h-5v-33h25c0-4 0-9 0-13v-8h-25v-33h30c4-25 13-45 25-60 26-34 68-53 113-53 30 0 57 9 72 18l-11 51c-9-5-31-12-52-12-24 0-45 7-60 23-7 8-12 19-15 33h100l143-63c-10-18-22-34-38-49z m-179 145l-1 0 1 0h0z m86 21h4v33h-79l-31 14c2 6 6 12 9 16 15 18 35 25 57 25 21 0 40-6 52-11l13 53c-17 7-42 14-70 14-43 0-80-18-107-47-5-7-10-15-15-23l-91 40c9 14 19 26 31 38 44 44 97 67 159 67 63 0 116-22 160-67 44-43 66-97 66-160 0-21-2-40-7-59l-151 67z m-745 268c-76 0-141-26-194-80-55-55-82-120-82-196s27-140 82-195c54-54 119-81 194-81 76 0 142 27 198 82 52 52 79 117 79 194s-27 143-81 196c-53 54-119 80-196 80z m1-49c62 0 116-23 159-67 45-43 67-97 67-160 0-63-22-116-65-158-46-45-100-68-161-68s-115 23-160 67c-45 45-67 98-67 159 0 61 23 115 68 160 43 44 96 67 159 67z m38-87c0-22-17-39-39-39s-38 17-38 39c0 21 17 38 38 38s39-17 39-38z m36-72c0 10-8 18-18 18h-113c-10 0-18-8-18-18v-112h32v-134h85v134h32v112z m706-533c-3 3-5 6-8 9s-7 4-11 6c-4 1-8 2-12 2-8 0-14-2-20-5-5-3-10-7-13-12-3-5-6-11-8-17s-2-13-2-20c0-7 1-13 2-20 2-6 5-12 8-17 3-5 8-9 13-12s12-4 20-4c11 0 19 3 25 10 6 6 9 15 11 25h33c0-10-3-19-6-27-4-8-9-14-15-20s-13-10-21-13c-8-3-17-4-27-4-12 0-23 2-33 6-9 4-17 10-24 17-7 8-12 17-15 26-4 10-6 21-6 33 0 11 2 22 6 33s8 18 15 26c7 7 15 13 24 18 10 4 21 6 33 6 9 0 17-1 25-4 7-2 14-6 20-11 7-5 12-10 16-18s6-15 7-24h-34c0 4-1 8-3 11z m-231 42l66-106h0v106h33v-158h-35l-65 106h-1v-106h-32v158h34z m-565 0h39l37-62 36 62h39l-59-97v-61h-34v62l-58 96z m-64 0c7 0 14-1 20-2s12-3 16-6c5-3 8-7 10-12 3-5 4-12 4-19 0-8-2-15-5-20-4-5-9-10-16-13 9-3 17-8 21-15s8-15 8-25c0-8-2-15-5-21-3-5-7-10-12-14-6-4-12-6-18-8-7-2-14-3-21-3h-77v158h75z m-5-64c6 0 11 2 15 5 4 3 6 7 6 14 0 4 0 7-2 9-1 2-3 4-5 6-2 1-5 2-7 2s-6 1-9 1h-33v-37h35z m2-67c4 0 7 1 10 1 3 1 6 2 8 4 3 1 4 3 6 6 1 3 2 6 2 10 0 8-2 14-7 17-5 4-11 6-18 6h-38v-44h37z m1378 911h-2750c-30 0-54-24-54-54v-934c0-7 6-12 12-12h2833c7 0 12 5 12 12v934c0 30-24 54-53 54z m-2750-24h2750c16 0 29-14 29-30 0 0 0-376 0-647h-1966c-72-131-210-219-370-219-159 0-298 88-370 219h-103c0 271 0 647 0 647 0 17 13 30 30 30z m707-177c72-72 108-160 108-264 0-105-35-192-106-262-75-74-164-111-266-111-101 0-188 37-262 110-73 73-109 161-109 263 0 101 36 190 109 264 72 72 159 108 262 108 104 0 192-36 264-108z m-477-48c-61-62-91-134-91-216 0-83 30-154 90-215 60-60 132-90 215-90s156 30 217 91c58 57 88 128 88 214 0 85-30 157-89 216-60 59-131 89-216 89s-156-30-214-89z m160-180c-9 20-23 30-42 30-33 0-49-22-49-66 0-44 16-66 49-66 22 0 37 10 47 32l45-24c-21-39-54-58-97-58-34 0-61 10-81 31-20 20-30 49-30 85 0 35 10 63 31 84 21 21 47 31 78 31 46 0 78-18 98-54l-49-25z m214 0c-9 20-23 30-41 30-33 0-50-22-50-66 0-44 17-66 50-66 22 0 37 10 46 32l46-24c-21-39-54-58-97-58-34 0-60 10-80 31-21 20-31 49-31 85 0 35 11 63 31 84 20 21 46 31 78 31 46 0 79-18 98-54l-50-25z" horiz-adv-x="2857.4" />

<glyph glyph-name="by-nc" unicode="&#xe816;" d="M1508 763c-76 0-141-26-194-80-55-55-82-120-82-196s27-140 82-195c54-54 119-81 194-81 76 0 142 27 198 82 52 52 79 117 79 194s-27 143-81 196c-53 54-119 80-196 80z m1-49c62 0 116-23 159-67 45-43 67-97 67-160 0-63-22-116-65-158-46-45-100-68-161-68s-115 23-160 67c-45 45-67 98-67 159 0 61 23 115 68 160 43 44 96 67 159 67z m38-87c0-22-17-39-39-39s-38 17-38 39c0 21 17 38 38 38s39-17 39-38z m36-72c0 10-8 18-18 18h-113c-10 0-18-8-18-18v-112h32v-134h85v134h32v112z m602 208c77 0 142-26 196-80 53-53 80-119 80-196s-26-142-79-194c-56-55-121-82-197-82-76 0-140 27-195 82-54 54-81 119-81 194 0 76 27 141 81 196 53 54 118 80 195 80z m-214-202c-8-23-12-48-12-74 0-61 22-114 67-159 44-44 97-67 159-67 62 0 116 23 161 68 15 15 28 31 38 48l-104 47c-7-35-38-59-76-62v-42h-32v42c-31 1-61 13-84 33l38 39c19-18 37-25 62-25 16 0 34 6 34 27 0 8-3 13-7 17l-59 26c-17 7-30 13-44 20l-141 62z m214 153c-62 0-115-23-159-67-12-12-22-24-31-37l106-47c10 29 37 47 71 49v43h32v-43c22-1 46-7 69-25l-36-38c-13 10-30 17-47 17-14 0-33-5-33-22 0-3 1-5 2-7l59-26c16-7 30-14 45-20l141-63c5 19 7 38 7 59 0 63-22 117-66 160-44 44-97 67-160 67z m104-692c-3 3-5 6-8 9s-7 4-11 6c-4 1-8 2-12 2-8 0-14-2-20-5-5-3-10-7-13-12-3-5-6-11-8-17s-2-13-2-20c0-7 1-13 2-20 2-6 5-12 8-17 3-5 8-9 13-12s12-4 20-4c11 0 19 3 25 10 6 6 9 15 11 25h33c0-10-3-19-6-27-4-8-9-14-15-20s-13-10-21-13c-8-3-17-4-27-4-12 0-23 2-33 6-9 4-17 10-24 17-7 8-12 17-15 26-4 10-6 21-6 33 0 11 2 22 6 33s8 18 15 26c7 7 15 13 24 18 10 4 21 6 33 6 9 0 17-1 25-4 7-2 14-6 20-11 7-5 12-10 16-18s6-15 7-24h-34c0 4-1 8-3 11z m-231 42l66-106h0v106h33v-158h-35l-65 106h-1v-106h-32v158h34z m-565 0h39l37-62 36 62h39l-59-97v-61h-34v62l-58 96z m-64 0c7 0 14-1 20-2s12-3 16-6c5-3 8-7 10-12 3-5 4-12 4-19 0-8-2-15-5-20-4-5-9-10-16-13 9-3 17-8 21-15s8-15 8-25c0-8-2-15-5-21-3-5-7-10-12-14-6-4-12-6-18-8-7-2-14-3-21-3h-77v158h75z m-5-64c6 0 11 2 15 5 4 3 6 7 6 14 0 4 0 7-2 9-1 2-3 4-5 6-2 1-5 2-7 2s-6 1-9 1h-33v-37h35z m2-67c4 0 7 1 10 1 3 1 6 2 8 4 3 1 4 3 6 6 1 3 2 6 2 10 0 8-2 14-7 17-5 4-11 6-18 6h-38v-44h37z m1378 911h-2750c-30 0-54-24-54-54v-934c0-7 6-12 12-12h2833c7 0 12 5 12 12v934c0 30-24 54-53 54z m-2750-24h2750c16 0 29-14 29-30 0 0 0-376 0-647h-1966c-72-131-210-219-370-219-159 0-298 88-370 219h-103c0 271 0 647 0 647 0 17 13 30 30 30z m707-177c72-72 108-160 108-264 0-105-35-192-106-262-75-74-164-111-266-111-101 0-188 37-262 110-73 73-109 161-109 263 0 101 36 190 109 264 72 72 159 108 262 108 104 0 192-36 264-108z m-477-48c-61-62-91-134-91-216 0-83 30-154 90-215 60-60 132-90 215-90s156 30 217 91c58 57 88 128 88 214 0 85-30 157-89 216-60 59-131 89-216 89s-156-30-214-89z m160-180c-9 20-23 30-42 30-33 0-49-22-49-66 0-44 16-66 49-66 22 0 37 10 47 32l45-24c-21-39-54-58-97-58-34 0-61 10-81 31-20 20-30 49-30 85 0 35 10 63 31 84 21 21 47 31 78 31 46 0 78-18 98-54l-49-25z m214 0c-9 20-23 30-41 30-33 0-50-22-50-66 0-44 17-66 50-66 22 0 37 10 46 32l46-24c-21-39-54-58-97-58-34 0-60 10-80 31-21 20-31 49-31 85 0 35 11 63 31 84 20 21 46 31 78 31 46 0 79-18 98-54l-50-25z" horiz-adv-x="2857.4" />

<glyph glyph-name="by-nc-saeu" unicode="&#xe817;" d="M2049 683c-53 53-118 80-196 80-76 0-141-27-194-80-54-55-82-121-82-196 0-76 28-140 82-195 54-54 119-81 194-81 76 0 142 27 198 82 52 52 79 117 79 194 0 77-27 143-81 196z m-34-354c-46-45-99-68-161-68-62 0-115 23-160 67s-67 98-67 159c0 26 4 50 12 73l74-32h-6v-33h26c0-4 0-9 0-14v-8h-26v-32h30c4-25 14-45 26-60 26-35 68-53 113-53 30 0 56 9 72 17l-11 52c-10-5-31-12-53-12-23 0-45 7-59 23-7 8-12 19-16 33h101l143-64c-10-17-23-33-38-48z m-180 144l0 1 1-1h-1z m86 22h4v33h-78l-32 14c3 6 6 12 10 16 14 18 35 25 57 25 20 0 39-6 51-11l13 53c-16 7-41 13-69 13-44 0-81-17-107-47-6-6-11-14-15-22l-91 40c9 13 19 26 31 38 43 44 96 66 159 66 63 0 116-22 160-66 44-44 66-97 66-160 0-21-2-40-7-59l-152 67z m431 31c11 70 60 107 121 107 88 0 142-64 142-150 0-83-57-147-143-147-59 0-112 36-122 108h70c2-38 26-51 60-51 39 0 65 37 65 92 0 59-22 90-64 90-30 0-56-11-61-49l20 0-55-55-55 55 22 0z m122 237c-76 0-141-27-194-80-54-55-81-120-81-196s27-140 81-195c55-54 119-81 194-81 76 0 142 27 198 82 53 52 79 117 79 194s-27 143-80 196c-54 53-119 80-197 80z m1-50c63 0 116-22 160-66 44-43 66-97 66-160 0-63-22-116-65-158-45-45-99-68-161-68-62 0-115 23-160 67-44 45-67 98-67 159s23 115 68 160c43 44 96 66 159 66z m-518-691c-2 3-4 6-8 9s-6 4-10 6c-4 1-8 2-12 2-8 0-15-2-20-5-6-3-10-7-13-12-4-5-6-11-8-17s-2-13-2-20c0-7 1-13 2-20 2-6 4-12 8-17 3-5 7-9 13-12s12-4 20-4c10 0 19 3 25 10 6 6 9 15 10 25h34c-1-10-3-19-7-27-3-8-8-14-14-20s-13-10-22-13c-8-3-17-4-26-4-12 0-23 2-33 6-10 4-18 10-24 17-7 8-12 16-16 26-3 10-5 21-5 33 0 11 2 22 5 33s9 18 16 26c6 7 14 13 24 18 10 4 21 6 33 6 8 0 17-1 24-4 8-2 15-6 21-11 6-5 11-10 15-18s7-15 8-24h-34c0 4-2 8-4 11z m-230 42l66-106h0v106h33v-158h-35l-66 106h0v-106h-33v158h35z m812 0l59-158h-36l-12 35h-59l-12-35h-35l60 158h35z m2-97l-20 58h0l-21-58h41z m-197-22c2-3 4-6 8-9s6-4 11-5c4-1 8-1 13-1 3 0 6 0 10 0 3 1 7 2 10 3 3 2 5 4 7 6 3 3 4 6 4 10 0 5-2 8-5 11-2 2-6 5-10 6-5 2-10 4-15 5-6 1-11 3-17 4-6 2-12 4-17 6-6 2-11 5-15 8-5 3-8 8-11 13-3 5-4 11-4 18 0 8 2 15 5 21 3 6 8 11 14 15 5 4 11 7 19 9 7 2 14 3 21 3 8 0 16-1 23-3 8-2 15-5 21-9 6-4 10-9 14-16 3-6 5-14 5-23h-34c0 5-1 9-3 12-1 3-4 5-6 7-3 2-6 3-10 4-4 1-8 1-12 1-3 0-5 0-8-1-3 0-5-2-8-3-2-1-4-3-5-6-2-2-3-5-3-8 0-3 1-6 2-7 1-2 4-4 7-6s8-3 15-5c6-1 14-3 23-6 3 0 7-2 13-3 5-2 10-4 15-7 5-4 10-8 14-14 3-6 5-13 5-22 0-7-1-14-4-20s-7-11-12-16c-6-4-13-8-21-10-8-3-18-4-28-4-9 0-18 1-26 3-8 2-15 6-21 10-7 5-12 11-15 18-4 7-6 15-6 25h34c0-6 1-10 3-14z m-1127 119h39l37-62 36 62h39l-59-97v-61h-34v62l-58 96z m-64 0c7 0 14-1 20-2s12-3 16-6c4-3 8-7 10-12 3-5 4-12 4-19 0-8-2-15-5-20-4-5-9-10-16-13 9-3 17-8 21-15s8-15 8-25c0-8-2-15-5-21-3-5-7-10-13-14-5-4-11-6-17-8-7-2-14-3-21-3h-77v158h75z m-5-64c6 0 11 2 15 5 4 3 6 7 6 14 0 4 0 7-2 9-1 2-3 4-5 6-2 1-5 2-8 2-2 1-5 1-9 1h-32v-37h35z m2-67c4 0 7 1 10 1s6 2 8 4c2 1 4 3 6 6 1 3 2 6 2 10 0 8-2 14-7 17-5 4-11 6-18 6h-38v-44h37z m82 830c-77 0-141-27-194-80-55-55-82-121-82-196s27-140 82-195c54-54 119-81 194-81 76 0 142 27 198 82 52 52 78 117 78 194s-26 143-80 196c-53 53-119 80-196 80z m1-50c62 0 116-22 159-66 45-44 67-97 67-160 0-64-22-116-65-158-46-45-100-68-161-68-62 0-115 23-160 67-45 45-67 98-67 159s23 115 68 160c43 44 96 66 159 66z m38-86c0-22-17-39-39-39s-38 17-38 39c0 21 17 38 38 38s39-17 39-38z m36-72c0 10-8 18-18 18h-113c-10 0-18-8-18-18v-113h32v-133h85v133h32v113z m-546 88c72-72 108-160 108-265 0-104-35-191-106-261-75-74-164-111-266-111-101 0-188 37-262 110-73 73-109 160-109 262 0 102 36 190 109 265 72 72 159 108 262 108 104 0 192-36 264-108z m-477-49c-61-61-91-133-91-216s30-154 90-214c60-60 132-90 215-90s156 30 217 91c58 56 88 128 88 213 0 85-30 157-89 217-60 59-131 89-216 89s-156-30-214-90z m160-179c-9 20-23 30-42 30-33 0-49-22-49-66 0-45 16-67 49-67 22 0 37 11 47 33l45-25c-21-38-54-57-97-57-34 0-61 10-81 30-20 21-30 49-30 85 0 36 10 64 31 85s47 31 78 31c46 0 78-18 98-54l-49-25z m214 0c-9 20-23 30-41 30-33 0-50-22-50-66 0-45 17-67 50-67 22 0 37 11 46 33l46-25c-21-38-54-57-97-57-34 0-60 10-80 30-21 21-31 49-31 85 0 36 11 64 31 85 20 20 46 31 78 31 46 0 79-18 98-54l-50-25z m2146 429h-2750c-30 0-54-24-54-54v-934c0-7 6-12 12-12h2833c7 0 12 5 12 12v934c0 30-24 54-53 54z m-2750-24h2750c16 0 29-14 29-30 0 0 0-376 0-648h-1966c-72-130-210-219-370-219-159 0-298 89-370 219h-103c0 272 0 648 0 648 0 16 13 30 30 30z" horiz-adv-x="2857.4" />

<glyph glyph-name="by-nc-sa" unicode="&#xe818;" d="M2472 763c77 0 142-27 196-80 53-53 80-119 80-196 0-77-26-142-79-194-55-55-121-82-197-82-75 0-140 27-195 81-54 55-81 120-81 195 0 75 27 141 81 196 54 53 119 80 195 80z m1-50c-63 0-116-22-160-66-45-46-67-99-67-160 0-61 22-114 67-159 45-44 98-67 160-67 61 0 115 23 160 68 44 42 65 95 65 158 0 63-22 116-66 160-43 44-97 66-159 66z m-124-187c6 34 19 60 41 79 22 18 49 28 81 28 43 0 78-14 103-42 26-28 39-64 39-108 0-42-14-77-40-106-27-28-61-42-104-42-31 0-58 10-81 28-22 19-36 46-41 80h70c2-33 22-50 61-50 19 0 35 8 46 25 12 17 18 39 18 67 0 29-5 52-16 67-11 15-27 23-47 23-37 0-58-16-62-49h20l-55-55-54 55 21 0z m-2295 294h2750c16 0 29-14 29-30 0 0 0-376 0-648h-1966c-72-130-210-219-370-219-159 0-298 89-370 219h-103c0 272 0 648 0 648 0 16 13 30 30 30z m2750 24h-2750c-30 0-54-24-54-54v-934c0-7 6-12 12-12h2833c7 0 12 5 12 12v934c0 30-24 54-53 54z m-2146-429c-9 20-23 30-41 30-33 0-50-22-50-66 0-45 17-67 50-67 22 0 37 11 46 33l46-25c-21-38-54-57-97-57-34 0-60 10-80 30-21 21-31 49-31 85 0 36 11 64 31 85 20 20 46 31 78 31 46 0 79-18 98-54l-50-25z m-214 0c-9 20-23 30-42 30-33 0-49-22-49-66 0-45 16-67 49-67 22 0 37 11 47 33l45-25c-21-38-54-57-97-57-34 0-61 10-81 30-20 21-30 49-30 85 0 36 10 64 31 85s47 31 78 31c46 0 78-18 98-54l-49-25z m-160 179c-61-61-91-133-91-216s30-154 90-214c60-60 132-90 215-90s156 30 217 91c58 56 88 128 88 213 0 85-30 157-89 217-60 59-131 89-216 89s-156-30-214-90z m477 49c72-72 108-160 108-265 0-104-35-191-106-261-75-74-164-111-266-111-101 0-188 37-262 110-73 73-109 160-109 262 0 102 36 190 109 265 72 72 159 108 262 108 104 0 192-36 264-108z m546-88c0 10-8 18-18 18h-113c-10 0-18-8-18-18v-113h32v-133h85v133h32v113z m-36 72c0-22-17-39-39-39s-38 17-38 39c0 21 17 38 38 38s39-17 39-38z m-38 86c62 0 116-22 159-66 45-44 67-97 67-160 0-64-22-116-65-158-46-45-100-68-161-68-62 0-115 23-160 67-45 45-67 98-67 159s23 115 68 160c43 44 96 66 159 66z m-1 50c-77 0-141-27-194-80-55-55-82-121-82-196s27-140 82-195c54-54 119-81 194-81 76 0 142 27 198 82 52 52 78 117 78 194s-26 143-80 196c-53 53-119 80-196 80z m-82-830c4 0 7 1 10 1s6 2 8 4c2 1 4 3 6 6 1 3 2 6 2 10 0 8-2 14-7 17-5 4-11 6-18 6h-38v-44h37z m-2 67c6 0 11 2 15 5 4 3 6 7 6 14 0 4 0 7-2 9-1 2-3 4-5 6-2 1-5 2-8 2-2 1-5 1-9 1h-32v-37h35z m5 64c7 0 14-1 20-2s12-3 16-6c4-3 8-7 10-12 3-5 4-12 4-19 0-8-2-15-5-20-4-5-9-10-16-13 9-3 17-8 21-15s8-15 8-25c0-8-2-15-5-21-3-5-7-10-13-14-5-4-11-6-17-8-7-2-14-3-21-3h-77v158h75z m64 0h39l36-62 37 62h39l-59-97v-61h-34v62l-58 96z m1127-119c2-3 4-6 8-9s6-4 11-5c4-1 8-1 13-1 3 0 6 0 10 0 3 1 7 2 10 3 3 2 5 4 7 6 3 3 4 6 4 10 0 5-2 8-5 11-2 2-6 5-10 6-5 2-10 4-15 5-6 1-11 3-17 4-6 2-12 4-17 6-6 2-11 5-15 8-5 3-8 8-11 13-3 5-4 11-4 18 0 8 2 15 5 21 3 6 8 11 14 15 5 4 11 7 19 9 7 2 14 3 21 3 8 0 16-1 23-3 8-2 15-5 21-9 6-4 10-9 14-16 3-6 5-14 5-23h-34c0 5-1 9-3 12-1 3-4 5-6 7-3 2-6 3-10 4-4 1-8 1-12 1-3 0-5 0-8-1-3 0-5-2-8-3-2-1-4-3-5-6-2-2-3-5-3-8 0-3 1-6 2-7 1-2 4-4 7-6s8-3 15-5c6-1 14-3 23-6 3 0 7-2 13-3 5-2 10-4 15-7 5-4 10-8 14-14 3-6 5-13 5-22 0-7-1-14-4-20s-7-11-12-16c-6-4-13-8-21-10-8-3-18-4-28-4-9 0-18 1-26 3-8 2-15 6-21 10-7 5-12 11-15 18-4 7-6 15-6 25h34c0-6 1-10 3-14z m197 22l-20 58h0l-21-58h41z m-2 97l59-158h-36l-12 35h-59l-12-35h-35l60 158h35z m-812 0l66-106h0v106h33v-158h-35l-66 106h0v-106h-33v158h35z m230-42c-2 3-4 6-8 9s-6 4-10 6c-4 1-8 2-12 2-8 0-15-2-20-5-6-3-10-7-13-12-4-5-6-11-8-17s-2-13-2-20c0-7 1-13 2-20 2-6 4-12 8-17 3-5 7-9 13-12s12-4 20-4c10 0 19 3 25 10 6 6 9 15 10 25h34c-1-10-3-19-7-27-3-8-8-14-14-20s-13-10-22-13c-8-3-17-4-26-4-12 0-23 2-33 6-10 4-18 10-24 17-7 8-12 16-16 26-3 10-5 21-5 33 0 11 2 22 5 33s9 18 16 26c6 7 14 13 24 18 10 4 21 6 33 6 8 0 17-1 24-4 8-2 15-6 21-11 6-5 11-10 15-18s7-15 8-24h-34c0 4-2 8-4 11z m-103 691c-63 0-116-22-159-66-12-12-22-24-31-37l106-47c9 29 37 47 71 49v43h32v-43c21-1 45-7 69-25l-36-38c-14 10-31 17-48 17-13 0-33-5-33-22 0-3 1-5 3-7l59-26c15-7 30-14 44-20l142-63c5 19 7 38 7 59 0 63-22 117-66 160-44 44-97 66-160 66z m-214-152c-9-23-13-48-13-74 0-61 23-114 67-159 45-44 98-67 160-67s115 23 161 68c15 15 28 31 38 48l-104 47c-8-35-39-59-76-62v-42h-32v42c-31 1-61 13-84 33l38 39c18-18 37-25 62-25 16 0 34 6 34 27 0 8-3 13-8 17l-59 26c-16 7-30 13-43 19l-141 63z m213 202c78 0 143-27 196-80 54-53 81-119 81-196s-27-142-79-194c-56-55-122-82-198-82-75 0-140 27-194 81-54 55-82 120-82 195s28 141 82 196c53 53 118 80 194 80z" horiz-adv-x="2857.4" />

<glyph glyph-name="by-nc-ndeu" unicode="&#xe819;" d="M2049 683c-53 54-118 80-196 80-76 0-141-26-194-80-54-55-82-120-82-196 0-75 28-140 82-194 54-55 119-82 194-82 76 0 142 27 198 82 52 52 79 117 79 194 0 77-27 143-81 196z m-34-354c-46-45-99-68-161-68-62 0-115 23-160 67s-67 98-67 159c0 26 4 51 12 74l73-33h-5v-33h26c0-4 0-9 0-13v-8h-26v-33h30c4-25 14-45 26-60 26-34 68-53 113-53 30 0 56 9 72 18l-11 51c-10-5-31-12-53-12-23 0-45 7-59 23-7 8-12 19-16 33h101l143-63c-10-18-23-34-38-49z m-180 145l0 0 1 0h-1z m86 21h4v33h-78l-32 14c3 6 6 12 10 16 14 18 35 25 57 25 20 0 39-6 51-11l13 53c-16 7-41 14-69 14-44 0-81-18-107-47-6-7-11-15-15-23l-91 40c9 14 19 26 31 38 43 44 96 67 159 67 63 0 116-23 160-67 44-43 66-97 66-160 0-21-3-40-7-59l-152 67z m-689 268c-76 0-141-26-194-80-55-55-82-120-82-196s27-140 82-195c54-54 119-81 194-81 76 0 142 27 198 82 52 52 78 117 78 194s-26 143-80 196c-53 54-119 80-196 80z m1-49c62 0 116-23 159-67 45-43 67-97 67-160 0-63-22-116-65-158-46-45-100-68-161-68-62 0-115 23-160 67-45 45-67 98-67 159 0 61 23 115 68 160 43 44 96 67 159 67z m38-87c0-22-17-39-39-39s-38 17-38 39c0 21 17 38 38 38s39-17 39-38z m36-72c0 10-8 18-18 18h-113c-10 0-18-8-18-18v-112h32v-134h85v134h32v112z m1272-2h-201v-48h201v48z m0-89h-201v-48h201v48z m-105 299c-76 0-141-26-194-80-54-55-81-120-81-196 0-75 27-140 81-195 55-54 119-81 194-81 76 0 142 27 198 82 53 52 79 117 79 194 0 77-27 143-80 196s-119 80-197 80z m1-49c63 0 116-23 160-67 44-43 66-97 66-160 0-63-22-116-65-158-46-45-99-68-161-68s-115 23-160 67c-44 45-67 98-67 159 0 61 23 115 68 160 43 44 96 67 159 67z m64-650c10 0 20-2 29-5s16-8 22-14c7-7 12-15 15-25 4-9 6-21 6-34 0-11-2-22-5-32-3-9-7-18-13-25-6-7-13-13-22-17s-20-6-32-6h-68v158h68z m-2-128c5 0 10 0 14 2s9 4 13 8c4 4 7 9 9 15 2 6 3 13 3 22 0 8-1 15-2 21s-4 12-8 17c-3 4-8 8-14 10s-13 4-21 4h-25v-99h31z m-195 128l66-106h0v106h33v-158h-35l-66 106h0v-106h-33v158h35z m-385-42c-2 3-4 6-8 9s-6 4-10 6c-4 1-8 2-12 2-8 0-15-2-20-5-6-3-10-7-13-12-4-5-6-11-8-17s-2-13-2-20c0-7 1-13 2-20 2-6 4-12 8-17 3-5 7-9 13-12s12-4 20-4c10 0 19 3 25 10 6 6 9 15 10 25h34c-1-10-3-19-7-27-3-8-8-14-14-20s-13-10-22-13c-8-3-17-4-26-4-12 0-23 2-33 6-10 4-18 10-24 17-7 8-12 16-16 26-3 10-5 21-5 33 0 11 2 22 5 33s9 18 16 26c6 7 14 13 24 18 10 4 21 6 33 6 8 0 17-1 24-4 8-2 15-6 21-11 6-5 11-10 15-18s7-15 8-24h-34c0 4-2 8-4 11z m-230 42l66-106h0v106h33v-158h-35l-66 106h0v-106h-33v158h35z m-518 0h39l37-62 37 62h39l-59-97v-61h-35v62l-58 96z m-64 0c8 0 15-1 21-2s11-3 16-6c4-3 8-7 10-12 2-5 4-12 4-19 0-8-2-15-6-20-3-5-9-10-16-13 10-3 17-8 22-15s7-15 7-25c0-8-1-15-4-21-3-5-8-10-13-14-5-4-11-6-18-8-7-2-13-3-21-3h-76v158h74z m-4-64c6 0 11 2 15 5s6 7 6 14c0 4-1 7-2 9-1 2-3 4-5 6-2 1-5 2-8 2s-6 1-9 1h-32v-37h35z m2-67c3 0 6 1 10 1s5 2 8 4c2 1 4 3 5 6 2 3 3 6 3 10 0 8-3 14-7 17-5 4-11 6-19 6h-37v-44h37z m-382 710c72-72 108-160 108-265 0-104-35-191-106-261-75-74-164-111-266-111-101 0-188 37-262 110-73 73-109 161-109 262 0 102 36 190 109 265 72 72 159 108 262 108 104 0 192-36 264-108z m-477-49c-61-61-91-133-91-216 0-82 30-154 90-214 60-60 132-90 215-90s156 30 217 91c59 57 88 128 88 213 0 85-30 158-89 217-60 59-131 89-216 89s-156-30-214-90z m160-179c-9 20-23 30-42 30-33 0-49-22-49-66 0-44 16-66 49-66 22 0 37 10 47 32l45-24c-21-39-54-58-97-58-34 0-61 10-81 31-20 20-30 48-30 84 0 36 10 64 31 85s47 31 78 31c46 0 78-18 98-54l-49-25z m214 0c-9 20-23 30-41 30-33 0-50-22-50-66 0-44 17-66 50-66 22 0 37 10 46 32l46-24c-21-39-54-58-97-58-34 0-60 10-80 31-21 20-31 48-31 84 0 36 11 64 31 85 20 21 46 31 78 31 46 0 79-18 98-54l-50-25z m2146 429h-2750c-30 0-54-24-54-54v-934c0-7 6-12 12-12h2833c7 0 12 5 12 12v934c0 30-24 54-53 54z m-2750-24h2750c16 0 29-14 29-30 0 0 0-376 0-648h-1965c-73-130-211-218-371-218-159 0-298 88-370 218h-103c0 272 0 648 0 648 0 16 14 30 30 30z" horiz-adv-x="2857.4" />

<glyph glyph-name="by-nc-nd" unicode="&#xe820;" d="M1232 763c-76 0-141-26-194-80-55-55-82-120-82-196s27-140 82-195c54-54 119-81 194-81 76 0 142 27 198 82 52 52 78 117 78 194s-26 143-80 196c-53 54-119 80-196 80z m1-49c62 0 116-23 159-67 45-43 67-97 67-160 0-63-22-116-65-158-46-45-100-68-161-68-62 0-115 23-160 67-45 45-67 98-67 159 0 61 23 115 68 160 43 44 96 67 159 67z m38-87c0-22-17-39-39-39s-38 17-38 39c0 21 17 38 38 38s39-17 39-38z m36-72c0 10-8 18-18 18h-113c-10 0-18-8-18-18v-112h32v-134h85v134h32v112z m1272-2h-201v-48h201v48z m0-89h-201v-48h201v48z m-105 299c-76 0-141-26-194-80-54-55-81-120-81-196 0-75 27-140 81-195 55-54 119-81 194-81 76 0 142 27 198 82 53 52 79 117 79 194 0 77-27 143-80 196s-119 80-197 80z m1-49c63 0 116-23 160-67 44-43 66-97 66-160 0-63-22-116-65-158-46-45-99-68-161-68s-115 23-160 67c-44 45-67 98-67 159 0 61 23 115 68 160 43 44 96 67 159 67z m-622 49c78 0 143-27 196-80 54-53 81-119 81-196 0-77-27-142-79-194-56-55-122-82-198-82-75 0-140 27-194 81-54 55-82 120-82 195 0 76 28 141 82 196 53 53 118 80 194 80z m-213-202c-9-23-13-48-13-74 0-61 23-114 67-159 45-44 98-67 160-67 62 0 115 23 161 68 15 15 28 31 38 48l-104 47c-8-35-39-59-76-62v-42h-32v42c-31 1-61 13-84 33l38 39c18-18 37-25 62-25 16 0 34 6 34 27 0 8-3 13-8 17l-26 11-33 15c-16 7-30 13-43 19l-141 63z m214 152c-63 0-116-22-159-66-12-12-22-24-31-37l106-47c9 29 37 47 71 49v43h32v-43c21-1 45-7 69-25l-36-38c-14 10-31 17-48 17-13 0-33-5-33-22 0-3 1-5 3-7l59-26c15-7 30-14 44-20l142-63c4 19 7 38 7 59 0 63-22 117-66 160-44 44-97 66-160 66z m685-649c10 0 20-2 29-5s16-8 22-14c7-7 12-15 15-25 4-9 6-21 6-34 0-11-2-22-5-32-3-9-7-18-13-25-6-7-13-13-22-17s-20-6-32-6h-68v158h68z m-2-128c5 0 10 0 14 2s9 4 13 8c4 4 7 9 9 15 2 6 3 13 3 22 0 8-1 15-2 21s-4 12-8 17c-3 4-8 8-14 10s-13 4-21 4h-25v-99h31z m-195 128l66-106h0v106h33v-158h-35l-66 106h0v-106h-33v158h35z m-385-42c-2 3-4 6-8 9s-6 4-10 6c-4 1-8 2-12 2-8 0-15-2-20-5-6-3-10-7-13-12-4-5-6-11-8-17s-2-13-2-20c0-7 1-13 2-20 2-6 4-12 8-17 3-5 7-9 13-12s12-4 20-4c10 0 19 3 25 10 6 6 9 15 10 25h34c-1-10-3-19-7-27-3-8-8-14-14-20s-13-10-22-13c-8-3-17-4-26-4-12 0-23 2-33 6-10 4-18 10-24 17-7 8-12 16-16 26-3 10-5 21-5 33 0 11 2 22 5 33s9 18 16 26c6 7 14 13 24 18 10 4 21 6 33 6 8 0 17-1 24-4 8-2 15-6 21-11 6-5 11-10 15-18s7-15 8-24h-34c0 4-2 8-4 11z m-230 42l66-106h0v106h33v-158h-35l-66 106h0v-106h-33v158h35z m-518 0h39l37-62 37 62h39l-59-97v-61h-35v62l-58 96z m-64 0c8 0 15-1 21-2s11-3 16-6c4-3 8-7 10-12 2-5 4-12 4-19 0-8-2-15-6-20-3-5-9-10-16-13 10-3 17-8 22-15s7-15 7-25c0-8-1-15-4-21-3-5-8-10-13-14-5-4-11-6-18-8-7-2-13-3-21-3h-76v158h74z m-4-64c6 0 11 2 15 5s6 7 6 14c0 4-1 7-2 9-1 2-3 4-5 6-2 1-5 2-8 2s-6 1-9 1h-32v-37h35z m2-67c3 0 6 1 10 1s5 2 8 4c2 1 4 3 5 6 2 3 2 6 2 10 0 8-2 14-6 17-5 4-11 6-19 6h-37v-44h37z m-382 710c72-72 108-160 108-265 0-104-35-191-106-261-75-74-164-111-266-111-101 0-188 37-262 110-73 73-109 161-109 262 0 102 36 190 109 265 72 72 159 108 262 108 104 0 192-36 264-108z m-477-49c-61-61-91-133-91-216 0-82 30-154 90-214 60-60 132-90 215-90s156 30 217 91c59 57 88 128 88 213 0 85-30 158-89 217-60 59-131 89-216 89s-156-30-214-90z m160-179c-9 20-23 30-42 30-33 0-49-22-49-66 0-44 16-66 49-66 22 0 37 10 47 32l45-24c-21-39-54-58-97-58-34 0-61 10-81 31-20 20-30 48-30 84 0 36 10 64 31 85s47 31 78 31c46 0 78-18 98-54l-49-25z m214 0c-9 20-23 30-41 30-33 0-50-22-50-66 0-44 17-66 50-66 22 0 37 10 46 32l46-24c-21-39-54-58-97-58-34 0-60 10-80 31-21 20-31 48-31 84 0 36 11 64 31 85 20 21 46 31 78 31 46 0 79-18 98-54l-50-25z m2146 429h-2750c-30 0-54-24-54-54v-934c0-7 6-12 12-12h2833c7 0 12 5 12 12v934c0 30-24 54-53 54z m-2750-24h2750c16 0 29-14 29-30 0 0 0-376 0-648h-1965c-73-130-211-218-371-218-159 0-298 88-370 218h-103c0 272 0 648 0 648 0 16 13 30 30 30z" horiz-adv-x="2857.4" />

<glyph glyph-name="edubase" unicode="&#xe885;" d="M500-143c-269 0-488 219-488 488 0 268 219 487 488 487s487-219 487-487c0-269-219-488-487-488z m0 908c-232 0-421-189-421-420s189-421 421-421 420 189 420 421-188 420-420 420z m3-117h116c3 0 5 2 5 5v1c0 33-29 63-62 63-35 0-63-30-63-64-1-3 2-5 4-5z m136-112l-11 85c-1 9-9 15-18 15h-98c-10 0-17-6-18-15l-11-85c-1-6 1-10 5-14s9-7 14-7h119c5 1 9 3 13 6 3 3 5 7 5 15z m-108 21c0-5-5-10-10-10-6 0-11 5-11 10v38c0 6 5 11 11 11 5 0 10-5 10-11v-38z m41 0c0-5-5-10-10-10-6 0-11 5-11 10v38c0 6 5 11 11 11 5 0 10-5 10-11v-38z m40 0c0-5-5-10-10-10-6 0-11 5-11 10v38c0 6 5 11 11 11 5 0 10-5 10-11v-38z m33-74c-1 11-11 20-22 20h-122c-12 0-22-9-23-20l-8-59h183l-8 59z m-202-269h236l-15 116h-206z m-17-136l-17-144c63-9 62-11 139-6 71 10 99 20 159 51l-12 99h-269z" horiz-adv-x="1000" />

<glyph glyph-name="to-front" unicode="&#xe900;" d="M0 719c0 69 56 125 125 125v0h500c69 0 125-56 125-125v0-125h125c69 0 125-56 125-125v0-500c0-69-56-125-125-125v0h-500c-69 0-125 56-125 125v0 125h-125c-69 0-125 56-125 125v0 500z m313-625v-125c0-35 28-63 62-63v0h500c35 0 63 28 63 63v0 500c0 34-28 62-63 62v0h-125v-312c0-69-56-125-125-125v0h-312z" horiz-adv-x="1000" />

<glyph glyph-name="to-back" unicode="&#xe901;" d="M0 719c0 69 56 125 125 125v0h500c69 0 125-56 125-125v0-125h125c69 0 125-56 125-125v0-500c0-69-56-125-125-125v0h-500c-69 0-125 56-125 125v0 125h-125c-69 0-125 56-125 125v0 500z m125 62c-34 0-62-28-62-62v0-500c0-35 28-63 62-63v0h500c35 0 63 28 63 63v0 500c0 34-28 62-63 62v0h-500z" horiz-adv-x="1000" />
</font>
</defs>
</svg>
