<?xml version="1.0" encoding="UTF-8" standalone="no"?>
<!DOCTYPE svg PUBLIC "-//W3C//DTD SVG 1.1//EN" "http://www.w3.org/Graphics/SVG/1.1/DTD/svg11.dtd">
<svg width="100%" height="100%" viewBox="0 0 57 36" version="1.1" xmlns="http://www.w3.org/2000/svg" xmlns:xlink="http://www.w3.org/1999/xlink" xml:space="preserve" xmlns:serif="http://www.serif.com/" style="fill-rule:evenodd;clip-rule:evenodd;stroke-linejoin:round;stroke-miterlimit:1.41421;">
    <g transform="matrix(1,0,0,1,-11,-242)">
        <g id="present-mode-1" transform="matrix(0.433529,0,0,0.433529,23.5922,269.247)">
            <g transform="matrix(1,0,0,1,-23,-17)">
                <g transform="matrix(1,0,0,1,5,0)">
                    <path d="M41,34L-5,34L-5,0L41,0L41,34ZM20,22L24.998,30.289C25.21,30.807 25.325,31.582 24.923,31.74C24.361,31.961 23.869,31.935 23.639,31.566L18.598,23.508L13.441,31.566C12.869,32.144 12.275,32.057 12.039,31.861C11.805,31.667 11.623,31.16 12.081,30.289L17,22L5,22L5,5L3,5L3,3L33,3L33,5L31,5L31,22L20,22ZM7,5L29,5L29,20L7,20L7,5ZM15.459,10.085L9.145,17.338L8.52,16.818L15.435,8.876L19.923,13.35L26.11,7.301L26.69,7.869L19.921,14.484L15.459,10.085Z"/>
                </g>
            </g>
        </g>
        <g id="present-mode-2" transform="matrix(0.598445,0,0,0.598445,39.5,253.173)">
            <g transform="matrix(1,0,0,1,-23,-17)">
                <path d="M46,29.891L30.034,29.891L30.034,34L15.909,34L15.909,29.891L0,29.891L0,0L46,0L46,29.891ZM32.092,17L13.908,17C13.428,17 13.036,17.385 13.036,17.86L13.036,19.14C13.036,19.615 13.428,20 13.908,20L18.945,20L18.945,31L27.055,31L27.055,20L32.092,20C32.572,20 32.964,19.615 32.964,19.14L32.964,17.86C32.964,17.385 32.572,17 32.092,17ZM30.088,16C30.086,15.984 29.642,11.315 29.018,10.039C28.392,8.762 25.281,8.717 25.281,8.717C25.281,8.717 24.564,12.025 24.373,12.654C24.18,13.284 24.141,13.43 24.141,13.43C24.141,13.43 23.655,10.234 23.57,9.91C23.507,9.666 23.089,9.65 23,9.65C22.911,9.65 22.493,9.678 22.429,9.921C22.345,10.246 21.996,13.359 21.996,13.359C21.996,13.359 21.89,13.284 21.698,12.654C21.506,12.025 20.719,8.717 20.719,8.717C20.719,8.717 17.608,8.762 16.982,10.039C16.357,11.317 15.912,16 15.912,16L30.088,16ZM24.141,8.717C24.202,8.978 23.363,9.54 23.363,9.54L22.692,9.524C22.692,9.524 21.798,8.978 21.859,8.717C21.916,8.477 22.682,8.503 23,8.5C23.32,8.503 24.084,8.477 24.141,8.717ZM23,1.133C24.735,1.133 26.143,2.638 26.143,4.491C26.143,6.344 24.735,7.848 23,7.848C21.265,7.848 19.857,6.344 19.857,4.491C19.857,2.638 21.265,1.133 23,1.133Z"/>
            </g>
        </g>
        <g id="present-mode-21" serif:id="present-mode-2" transform="matrix(0.433529,0,0,0.433529,55.4115,269.247)">
            <g transform="matrix(1,0,0,1,-23,-17)">
                <path d="M46,29.891L30.034,29.891L30.034,34L15.909,34L15.909,29.891L0,29.891L0,0L46,0L46,29.891ZM32.092,17L13.908,17C13.428,17 13.036,17.385 13.036,17.86L13.036,19.14C13.036,19.615 13.428,20 13.908,20L18.945,20L18.945,31L27.055,31L27.055,20L32.092,20C32.572,20 32.964,19.615 32.964,19.14L32.964,17.86C32.964,17.385 32.572,17 32.092,17ZM30.088,16C30.086,15.984 29.642,11.315 29.018,10.039C28.392,8.762 25.281,8.717 25.281,8.717C25.281,8.717 24.564,12.025 24.373,12.654C24.18,13.284 24.141,13.43 24.141,13.43C24.141,13.43 23.655,10.234 23.57,9.91C23.507,9.666 23.089,9.65 23,9.65C22.911,9.65 22.493,9.678 22.429,9.921C22.345,10.246 21.996,13.359 21.996,13.359C21.996,13.359 21.89,13.284 21.698,12.654C21.506,12.025 20.719,8.717 20.719,8.717C20.719,8.717 17.608,8.762 16.982,10.039C16.357,11.317 15.912,16 15.912,16L30.088,16ZM24.141,8.717C24.202,8.978 23.363,9.54 23.363,9.54L22.692,9.524C22.692,9.524 21.798,8.978 21.859,8.717C21.916,8.477 22.682,8.503 23,8.5C23.32,8.503 24.084,8.477 24.141,8.717ZM23,1.133C24.735,1.133 26.143,2.638 26.143,4.491C26.143,6.344 24.735,7.848 23,7.848C21.265,7.848 19.857,6.344 19.857,4.491C19.857,2.638 21.265,1.133 23,1.133Z"/>
            </g>
        </g>
    </g>
</svg>
