<?xml version="1.0" encoding="utf-8"?>
<!-- Generator: Adobe Illustrator 23.0.3, SVG Export Plug-In . SVG Version: 6.00 Build 0)  -->
<svg version="1.1" id="_x34__Print" xmlns="http://www.w3.org/2000/svg" xmlns:xlink="http://www.w3.org/1999/xlink" x="0px"
	 y="0px" viewBox="0 0 841.89 595.28" style="enable-background:new 0 0 841.89 595.28;" xml:space="preserve">
<style>
	.st0{fill:none;}
	.st1{fill:#209d9e;}
	.st2{fill:#342c24;}
</style>
<rect x="124.96" y="182.18" class="st0" width="67.52" height="67.52"/>
<path class="st1" d="M281.59,291.76c0.23,6.38-2.26,12.46-7.11,17.3c-9.31,9.31-24.48,9.22-33.89-0.2l-16.98-17.11v0l16.98-17.11
	c9.41-9.41,24.59-9.5,33.89-0.2C279.32,279.29,281.82,285.38,281.59,291.76 M200.81,291.76l-16.98,17.11
	c-9.41,9.42-24.59,9.5-33.89,0.2c-4.84-4.84-7.34-10.93-7.11-17.3c-0.23-6.38,2.26-12.46,7.11-17.3c9.31-9.31,24.48-9.22,33.89,0.2
	L200.81,291.76L200.81,291.76z M298.14,291.04c0-5.65-0.91-10.97-2.74-15.95s-4.44-9.3-7.84-12.96c-3.4-3.66-7.46-6.52-12.19-8.6
	c-4.73-2.07-10-3.12-15.8-3.12c-4.98,0-9.67,0.87-14.06,2.62c-4.4,1.75-8.54,3.99-12.44,6.72c-3.9,2.74-7.55,5.81-10.95,9.21
	c-3.4,3.4-6.68,6.85-9.83,10.33c-3.32-3.48-6.72-6.93-10.2-10.33c-3.48-3.4-7.22-6.47-11.19-9.21c-3.98-2.74-8.21-4.98-12.69-6.72
	c-4.48-1.75-9.29-2.62-14.43-2.62c-5.97,0-11.28,1.08-15.93,3.24c-4.65,2.16-8.59,5.11-11.82,8.85c-3.24,3.74-5.73,8.1-7.46,13.08
	c-1.74,4.98-2.61,10.3-2.61,15.95c0,5.82,0.91,11.22,2.74,16.2c1.83,4.98,4.4,9.26,7.72,12.83c3.32,3.57,7.34,6.4,12.07,8.47
	c4.73,2.07,10.08,3.11,16.05,3.11c5.14,0,9.91-0.79,14.31-2.37c4.4-1.58,8.54-3.69,12.44-6.35c3.9-2.66,7.55-5.6,10.95-8.84
	c3.4-3.24,6.76-6.52,10.08-9.84c3.15,3.49,6.51,6.85,10.08,10.09c3.56,3.24,7.25,6.14,11.07,8.71c3.81,2.58,7.92,4.65,12.32,6.22
	c4.4,1.58,9.09,2.37,14.06,2.37c5.97,0,11.32-1.08,16.05-3.24c4.73-2.16,8.75-5.07,12.07-8.72c3.32-3.65,5.85-7.97,7.59-12.96
	C297.27,302.25,298.14,296.85,298.14,291.04"/>
<path class="st2" d="M691.17,263.22v12.29h-7.33v9.51h7.33v25.6c0,5.57,1.26,9.63,3.78,12.2c2.52,2.57,6.11,3.85,10.78,3.85
	c1.52,0,2.92-0.12,4.22-0.35c1.3-0.23,2.63-0.58,3.99-1.04l-1.16-9.79c-0.68,0.19-1.27,0.32-1.78,0.39
	c-0.51,0.08-1.12,0.12-1.83,0.12c-1.36,0-2.44-0.42-3.25-1.25c-0.8-0.83-1.21-2.23-1.21-4.17v-25.55h8.44v-9.51h-8.44v-12.29H691.17
	z M649.71,315.12c-1.11-1.02-1.67-2.36-1.67-4.03c0-2.04,0.74-3.78,2.23-5.22c1.48-1.44,3.66-2.15,6.54-2.15h7.56v7.09
	c-0.65,1.55-1.9,2.91-3.76,4.08c-1.86,1.18-3.97,1.76-6.35,1.76C652.34,316.65,650.82,316.14,649.71,315.12 M680.18,325.69
	c-0.77-2.04-1.34-4.1-1.69-6.17c-0.35-2.07-0.53-4.28-0.53-6.63v-20.73c0-5.63-1.87-9.96-5.61-13.01s-8.61-4.57-14.61-4.57
	c-6.34,0-11.45,1.54-15.35,4.62c-3.89,3.08-5.73,6.73-5.52,10.97l0.05,0.28l13.08,0.05c0-1.89,0.59-3.36,1.78-4.43
	c1.19-1.07,2.89-1.6,5.08-1.6c2.48,0,4.35,0.66,5.61,1.99c1.27,1.33,1.9,3.2,1.9,5.61v3.99h-7.56c-7.27,0-12.79,1.35-16.58,4.06
	c-3.79,2.7-5.68,6.52-5.68,11.43c0,4.67,1.42,8.36,4.27,11.06c2.85,2.71,6.9,4.06,12.15,4.06c3.16,0,5.87-0.8,8.14-2.41
	c2.27-1.61,4.1-3.63,5.5-6.08c0.15,1.33,0.41,2.63,0.77,3.89c0.35,1.27,0.78,2.48,1.27,3.62H680.18z M625.74,253.34H612.2v72.35
	h13.54V253.34z M588.02,298.24c0,5.32-1.29,9.66-3.87,13.02c-2.58,3.35-6.18,5.03-10.79,5.03c-4.55,0-8.09-1.68-10.64-5.03
	c-2.55-3.36-3.83-7.7-3.83-13.02v-12.19c0-5.27,1.26-9.57,3.78-12.91c2.52-3.34,6.07-5.01,10.65-5.01c4.58,0,8.17,1.68,10.78,5.03
	c2.61,3.36,3.92,7.65,3.92,12.88V298.24z M601.48,286.1c0-8.2-2.61-15-7.84-20.39c-5.22-5.39-12-8.09-20.32-8.09
	c-8.27,0-14.97,2.7-20.12,8.09c-5.15,5.39-7.72,12.19-7.72,20.39v12.07c0,8.23,2.58,15.04,7.74,20.42
	c5.16,5.38,11.88,8.06,20.14,8.06c8.33,0,15.1-2.69,20.3-8.06c5.21-5.38,7.81-12.18,7.81-20.42V286.1z M492.32,275.82v49.87h13.46
	v-36.26c0.95-1.32,2.13-2.35,3.55-3.07c1.41-0.72,3.01-1.08,4.79-1.08c2.73,0,4.78,0.7,6.13,2.1c1.35,1.4,2.03,3.78,2.03,7.14v31.18
	h13.51v-31.15c0-6.76-1.41-11.72-4.24-14.89c-2.83-3.16-6.76-4.75-11.8-4.75c-3.01,0-5.73,0.71-8.16,2.12
	c-2.43,1.41-4.47,3.4-6.13,5.95l-0.6-7.14H492.32z M468.36,287.83c1.34,1.71,2.01,3.99,2.01,6.84v1.2h-16.5l-0.14-0.23
	c0.34-3.1,1.23-5.61,2.67-7.51c1.44-1.91,3.41-2.86,5.9-2.86C465,285.27,467.02,286.13,468.36,287.83 M474.46,325.02
	c3.29-1.1,5.95-2.48,7.98-4.14l-3.64-8.31c-2.34,1.29-4.48,2.24-6.45,2.83c-1.96,0.6-4.44,0.9-7.42,0.9c-3.35,0-6-1.05-7.95-3.17
	c-1.95-2.11-3.05-4.8-3.29-8.08l0.09-0.27h29.77v-7.33c0-6.91-1.86-12.4-5.57-16.46c-3.72-4.05-8.94-6.08-15.67-6.08
	c-6.85-0.03-12.31,2.35-16.38,7.14c-4.07,4.79-6.11,10.89-6.11,18.3v1.84c0,7.1,2.15,12.95,6.45,17.56
	c4.3,4.61,10.05,6.91,17.24,6.91C467.52,326.66,471.18,326.11,474.46,325.02 M419.3,302.07c0,4.37-0.76,7.83-2.28,10.39
	c-1.52,2.55-3.91,3.83-7.17,3.83c-2.09,0-3.85-0.37-5.28-1.11c-1.43-0.74-2.56-1.81-3.39-3.23v-21.88c0.83-1.54,1.96-2.72,3.39-3.56
	c1.43-0.83,3.16-1.24,5.19-1.24c3.23,0,5.62,1.46,7.19,4.38c1.56,2.92,2.35,6.74,2.35,11.45V302.07z M432.75,301.17
	c0-7.86-1.7-14.21-5.11-19.03c-3.41-4.82-8.2-7.24-14.38-7.24c-2.76,0-5.18,0.59-7.26,1.77c-2.07,1.18-3.85,2.86-5.32,5.05
	l-0.78-5.9h-12.12v69.04h13.41v-23.92c1.45,1.87,3.18,3.29,5.21,4.26c2.03,0.97,4.35,1.45,6.96,1.45c6.11,0,10.88-2.24,14.29-6.73
	c3.41-4.48,5.11-10.42,5.11-17.79V301.17z M365.96,298.24c0,5.32-1.29,9.66-3.87,13.02c-2.58,3.35-6.18,5.03-10.79,5.03
	c-4.55,0-8.09-1.68-10.65-5.03c-2.55-3.36-3.82-7.7-3.82-13.02v-12.19c0-5.27,1.26-9.57,3.78-12.91c2.52-3.34,6.07-5.01,10.65-5.01
	c4.58,0,8.17,1.68,10.78,5.03c2.61,3.36,3.92,7.65,3.92,12.88V298.24z M379.42,286.1c0-8.2-2.61-15-7.84-20.39
	c-5.22-5.39-12-8.09-20.32-8.09c-8.27,0-14.97,2.7-20.12,8.09c-5.15,5.39-7.72,12.19-7.72,20.39v12.07c0,8.23,2.58,15.04,7.74,20.42
	c5.16,5.38,11.88,8.06,20.14,8.06c8.33,0,15.1-2.69,20.3-8.06c5.21-5.38,7.81-12.18,7.81-20.42V286.1z"/>
<rect x="124.8" y="332.29" class="st0" width="67.52" height="67.52"/>
<rect x="57.75" y="257.76" class="st0" width="67.52" height="67.52"/>
<rect x="713.44" y="257.93" class="st0" width="68.52" height="67.52"/>
<rect x="124.8" y="407.65" class="st0" width="67.52" height="67.52"/>
<g>
	<path class="st1" d="M330.24,370.96h-5.33v-5.44h5.33V370.96z M330.24,407.72h-5.33v-29.27h5.33V407.72z"/>
	<path class="st1" d="M343.31,378.46l0.38,4.35c0.97-1.55,2.2-2.75,3.67-3.61c1.47-0.86,3.14-1.28,5.02-1.28
		c3.16,0,5.6,0.92,7.33,2.77s2.6,4.7,2.6,8.56v18.48h-5.33v-18.37c0-2.58-0.51-4.41-1.53-5.49c-1.02-1.08-2.57-1.62-4.67-1.62
		c-1.53,0-2.89,0.37-4.07,1.11c-1.18,0.74-2.12,1.75-2.83,3.03v21.34h-5.33v-29.27H343.31z"/>
	<path class="st1" d="M372.92,407.72V382.4h-4.57v-3.95h4.57v-3.71c0-3.12,0.82-5.53,2.45-7.24c1.63-1.7,3.91-2.56,6.83-2.56
		c0.61,0,1.23,0.05,1.85,0.15c0.62,0.1,1.31,0.24,2.07,0.42l-0.65,4.06c-0.32-0.07-0.72-0.14-1.18-0.19
		c-0.46-0.05-0.94-0.08-1.45-0.08c-1.55,0-2.71,0.46-3.46,1.39c-0.76,0.93-1.14,2.28-1.14,4.04v3.71h6.09v3.95h-6.09v25.32H372.92z"
		/>
	<path class="st1" d="M396.8,370.96h-5.33v-5.44h5.33V370.96z M396.8,407.72h-5.33v-29.27h5.33V407.72z"/>
	<path class="st1" d="M410.43,378.46l0.38,4.35c0.97-1.55,2.2-2.75,3.67-3.61c1.47-0.86,3.14-1.28,5.02-1.28
		c3.16,0,5.6,0.92,7.33,2.77s2.6,4.7,2.6,8.56v18.48h-5.33v-18.37c0-2.58-0.51-4.41-1.53-5.49c-1.02-1.08-2.57-1.62-4.67-1.62
		c-1.53,0-2.89,0.37-4.07,1.11c-1.18,0.74-2.12,1.75-2.83,3.03v21.34h-5.33v-29.27H410.43z"/>
	<path class="st1" d="M443.58,370.96h-5.33v-5.44h5.33V370.96z M443.58,407.72h-5.33v-29.27h5.33V407.72z"/>
	<path class="st1" d="M459.47,371.39v7.06h5.55v3.95h-5.55v17.77c0,1.37,0.28,2.33,0.85,2.89c0.57,0.56,1.32,0.84,2.26,0.84
		c0.31,0,0.64-0.04,1.01-0.11c0.37-0.07,0.7-0.16,0.99-0.27l0.7,3.65c-0.4,0.32-0.98,0.59-1.75,0.8s-1.54,0.31-2.31,0.31
		c-2.16,0-3.89-0.65-5.17-1.96c-1.28-1.31-1.92-3.36-1.92-6.15V382.4h-4.65v-3.95h4.65v-7.06H459.47z"/>
	<path class="st1" d="M483.57,408.29c-4.08,0-7.32-1.36-9.72-4.07s-3.61-6.24-3.61-10.56v-1.19c0-4.17,1.24-7.63,3.72-10.4
		c2.48-2.77,5.41-4.15,8.8-4.15c3.95,0,6.93,1.19,8.95,3.57c2.02,2.38,3.03,5.55,3.03,9.52v3.33h-18.99l-0.08,0.14
		c0.05,2.81,0.77,5.11,2.14,6.92c1.37,1.81,3.29,2.71,5.76,2.71c1.8,0,3.39-0.26,4.75-0.77c1.36-0.51,2.54-1.22,3.53-2.12l2.08,3.47
		c-1.05,1.03-2.43,1.9-4.14,2.59C488.08,407.95,486.01,408.29,483.57,408.29z M482.76,382.11c-1.79,0-3.31,0.75-4.57,2.25
		c-1.26,1.5-2.04,3.38-2.33,5.65l0.05,0.13h13.5v-0.7c0-2.08-0.56-3.83-1.68-5.23C486.62,382.81,484.96,382.11,482.76,382.11z"/>
	<path class="st1" d="M521.58,407.72h-5.33v-42.2h5.33V407.72z"/>
	<path class="st1" d="M542.59,408.29c-4.08,0-7.32-1.36-9.72-4.07c-2.41-2.71-3.61-6.24-3.61-10.56v-1.19
		c0-4.17,1.24-7.63,3.72-10.4c2.48-2.77,5.41-4.15,8.8-4.15c3.95,0,6.93,1.19,8.95,3.57s3.03,5.55,3.03,9.52v3.33h-18.99l-0.08,0.14
		c0.05,2.81,0.77,5.11,2.14,6.92s3.29,2.71,5.76,2.71c1.8,0,3.39-0.26,4.75-0.77c1.36-0.51,2.54-1.22,3.53-2.12l2.08,3.47
		c-1.05,1.03-2.43,1.9-4.14,2.59C547.1,407.95,545.02,408.29,542.59,408.29z M541.78,382.11c-1.79,0-3.31,0.75-4.57,2.25
		c-1.26,1.5-2.04,3.38-2.33,5.65l0.05,0.13h13.5v-0.7c0-2.08-0.56-3.83-1.68-5.23C545.64,382.81,543.98,382.11,541.78,382.11z"/>
	<path class="st1" d="M578.39,407.72c-0.18-0.88-0.32-1.66-0.42-2.34c-0.1-0.68-0.16-1.36-0.18-2.04c-0.99,1.41-2.29,2.58-3.88,3.53
		c-1.6,0.95-3.31,1.42-5.15,1.42c-3.05,0-5.37-0.78-6.96-2.34c-1.6-1.56-2.39-3.71-2.39-6.45c0-2.79,1.13-4.98,3.4-6.56
		c2.26-1.58,5.33-2.37,9.21-2.37h5.79v-2.89c0-1.71-0.52-3.07-1.57-4.07c-1.05-1-2.53-1.5-4.44-1.5c-1.71,0-3.11,0.44-4.18,1.31
		c-1.07,0.87-1.61,1.92-1.61,3.15h-5.09l-0.05-0.16c-0.11-2.13,0.9-4.08,3.02-5.84c2.12-1.77,4.86-2.65,8.21-2.65
		c3.32,0,5.99,0.84,8.01,2.53c2.02,1.69,3.03,4.12,3.03,7.29v14.09c0,1.05,0.05,2.06,0.16,3.03s0.31,1.93,0.6,2.87H578.39z
		 M569.55,403.8c1.93,0,3.67-0.5,5.22-1.48c1.55-0.99,2.56-2.12,3.03-3.4v-4.75h-5.98c-2.15,0-3.86,0.54-5.15,1.62
		c-1.29,1.08-1.93,2.35-1.93,3.8c0,1.3,0.41,2.32,1.22,3.08C566.76,403.42,567.96,403.8,569.55,403.8z"/>
	<path class="st1" d="M605.38,383.16l-2.73-0.16c-1.41,0-2.59,0.33-3.56,1c-0.96,0.67-1.71,1.61-2.23,2.81v20.91h-5.33v-29.27h4.76
		l0.51,4.27c0.83-1.51,1.85-2.7,3.07-3.54c1.22-0.85,2.62-1.27,4.21-1.27c0.4,0,0.78,0.03,1.14,0.09c0.36,0.06,0.66,0.13,0.89,0.2
		L605.38,383.16z"/>
	<path class="st1" d="M615.94,378.46l0.38,4.35c0.97-1.55,2.2-2.75,3.67-3.61c1.47-0.86,3.14-1.28,5.02-1.28
		c3.16,0,5.6,0.92,7.33,2.77c1.73,1.85,2.6,4.7,2.6,8.56v18.48h-5.33v-18.37c0-2.58-0.51-4.41-1.53-5.49
		c-1.02-1.08-2.58-1.62-4.67-1.62c-1.53,0-2.89,0.37-4.07,1.11c-1.18,0.74-2.12,1.75-2.83,3.03v21.34h-5.33v-29.27H615.94z"/>
	<path class="st1" d="M648.82,370.96h-5.33v-5.44h5.33V370.96z M648.82,407.72h-5.33v-29.27h5.33V407.72z"/>
	<path class="st1" d="M662.44,378.46l0.38,4.35c0.97-1.55,2.2-2.75,3.67-3.61c1.47-0.86,3.14-1.28,5.02-1.28
		c3.16,0,5.6,0.92,7.33,2.77c1.73,1.85,2.6,4.7,2.6,8.56v18.48h-5.33v-18.37c0-2.58-0.51-4.41-1.53-5.49
		c-1.02-1.08-2.58-1.62-4.67-1.62c-1.53,0-2.89,0.37-4.07,1.11c-1.18,0.74-2.12,1.75-2.83,3.03v21.34h-5.33v-29.27H662.44z"/>
	<path class="st1" d="M688.67,393.63c0-4.71,1.03-8.5,3.08-11.39c2.06-2.89,4.9-4.33,8.52-4.33c1.86,0,3.49,0.37,4.9,1.12
		c1.41,0.75,2.58,1.83,3.52,3.23l0.65-3.81h4.25v29.43c0,3.75-1.09,6.63-3.27,8.64c-2.18,2.01-5.33,3.02-9.44,3.02
		c-1.41,0-2.93-0.19-4.56-0.58s-3.07-0.92-4.31-1.58l1.35-4.14c0.96,0.54,2.11,0.98,3.46,1.31s2.69,0.5,4,0.5
		c2.6,0,4.49-0.59,5.67-1.77c1.18-1.18,1.77-2.98,1.77-5.4v-3.3c-0.96,1.23-2.1,2.15-3.44,2.77c-1.33,0.62-2.87,0.93-4.6,0.93
		c-3.59,0-6.41-1.3-8.47-3.9s-3.08-6-3.08-10.2V393.63z M694,394.2c0,2.94,0.62,5.3,1.87,7.09c1.24,1.79,3.14,2.68,5.68,2.68
		c1.61,0,2.95-0.37,4.03-1.1s1.98-1.76,2.68-3.1V386.3c-0.69-1.25-1.58-2.23-2.68-2.96c-1.1-0.73-2.42-1.09-3.98-1.09
		c-2.54,0-4.45,1.06-5.71,3.19c-1.26,2.13-1.89,4.86-1.89,8.2V394.2z"/>
</g>
</svg>
