<?xml version="1.0" encoding="utf-8"?>
<!-- Generator: Adobe Illustrator 23.0.3, SVG Export Plug-In . SVG Version: 6.00 Build 0)  -->
<svg version="1.1" id="_x34__Print" xmlns="http://www.w3.org/2000/svg" xmlns:xlink="http://www.w3.org/1999/xlink" x="0px"
	 y="0px" viewBox="0 0 841.89 595.28" style="enable-background:new 0 0 841.89 595.28;" xml:space="preserve">
<style type="text/css">
	.st0{fill:none;}
	.st1{fill:#209d9e;}
	.st2{fill:#342c24;}
</style>
<rect x="124.96" y="182.18" class="st0" width="67.52" height="67.52"/>
<path class="st1" d="M281.59,291.76c0.23,6.38-2.26,12.46-7.11,17.3c-9.31,9.31-24.48,9.22-33.89-0.2l-16.98-17.11v0l16.98-17.11
	c9.41-9.41,24.59-9.5,33.89-0.2C279.32,279.29,281.82,285.38,281.59,291.76 M200.81,291.76l-16.98,17.11
	c-9.41,9.42-24.59,9.5-33.89,0.2c-4.84-4.84-7.34-10.93-7.11-17.3c-0.23-6.38,2.26-12.46,7.11-17.3c9.31-9.31,24.48-9.22,33.89,0.2
	L200.81,291.76L200.81,291.76z M298.14,291.04c0-5.65-0.91-10.97-2.74-15.95s-4.44-9.3-7.84-12.96c-3.4-3.66-7.46-6.52-12.19-8.6
	c-4.73-2.07-10-3.12-15.8-3.12c-4.98,0-9.67,0.87-14.06,2.62c-4.4,1.75-8.54,3.99-12.44,6.72c-3.9,2.74-7.55,5.81-10.95,9.21
	c-3.4,3.4-6.68,6.85-9.83,10.33c-3.32-3.48-6.72-6.93-10.2-10.33c-3.48-3.4-7.22-6.47-11.19-9.21c-3.98-2.74-8.21-4.98-12.69-6.72
	c-4.48-1.75-9.29-2.62-14.43-2.62c-5.97,0-11.28,1.08-15.93,3.24c-4.65,2.16-8.59,5.11-11.82,8.85c-3.24,3.74-5.73,8.1-7.46,13.08
	c-1.74,4.98-2.61,10.3-2.61,15.95c0,5.82,0.91,11.22,2.74,16.2c1.83,4.98,4.4,9.26,7.72,12.83c3.32,3.57,7.34,6.4,12.07,8.47
	c4.73,2.07,10.08,3.11,16.05,3.11c5.14,0,9.91-0.79,14.31-2.37c4.4-1.58,8.54-3.69,12.44-6.35c3.9-2.66,7.55-5.6,10.95-8.84
	c3.4-3.24,6.76-6.52,10.08-9.84c3.15,3.49,6.51,6.85,10.08,10.09c3.56,3.24,7.25,6.14,11.07,8.71c3.81,2.58,7.92,4.65,12.32,6.22
	c4.4,1.58,9.09,2.37,14.06,2.37c5.97,0,11.32-1.08,16.05-3.24c4.73-2.16,8.75-5.07,12.07-8.72c3.32-3.65,5.85-7.97,7.59-12.96
	C297.27,302.25,298.14,296.85,298.14,291.04"/>
<path class="st2" d="M691.17,263.22v12.29h-7.33v9.51h7.33v25.6c0,5.57,1.26,9.63,3.78,12.2c2.52,2.57,6.11,3.85,10.78,3.85
	c1.52,0,2.92-0.12,4.22-0.35c1.3-0.23,2.63-0.58,3.99-1.04l-1.16-9.79c-0.68,0.19-1.27,0.32-1.78,0.39
	c-0.51,0.08-1.12,0.12-1.83,0.12c-1.36,0-2.44-0.42-3.25-1.25c-0.8-0.83-1.21-2.23-1.21-4.17v-25.55h8.44v-9.51h-8.44v-12.29H691.17
	z M649.71,315.12c-1.11-1.02-1.67-2.36-1.67-4.03c0-2.04,0.74-3.78,2.23-5.22c1.48-1.44,3.66-2.15,6.54-2.15h7.56v7.09
	c-0.65,1.55-1.9,2.91-3.76,4.08c-1.86,1.18-3.97,1.76-6.35,1.76C652.34,316.65,650.82,316.14,649.71,315.12 M680.18,325.69
	c-0.77-2.04-1.34-4.1-1.69-6.17c-0.35-2.07-0.53-4.28-0.53-6.63v-20.73c0-5.63-1.87-9.96-5.61-13.01s-8.61-4.57-14.61-4.57
	c-6.34,0-11.45,1.54-15.35,4.62c-3.89,3.08-5.73,6.73-5.52,10.97l0.05,0.28l13.08,0.05c0-1.89,0.59-3.36,1.78-4.43
	c1.19-1.07,2.89-1.6,5.08-1.6c2.48,0,4.35,0.66,5.61,1.99c1.27,1.33,1.9,3.2,1.9,5.61v3.99h-7.56c-7.27,0-12.79,1.35-16.58,4.06
	c-3.79,2.7-5.68,6.52-5.68,11.43c0,4.67,1.42,8.36,4.27,11.06c2.85,2.71,6.9,4.06,12.15,4.06c3.16,0,5.87-0.8,8.14-2.41
	c2.27-1.61,4.1-3.63,5.5-6.08c0.15,1.33,0.41,2.63,0.77,3.89c0.35,1.27,0.78,2.48,1.27,3.62H680.18z M625.74,253.34H612.2v72.35
	h13.54V253.34z M588.02,298.24c0,5.32-1.29,9.66-3.87,13.02c-2.58,3.35-6.18,5.03-10.79,5.03c-4.55,0-8.09-1.68-10.64-5.03
	c-2.55-3.36-3.83-7.7-3.83-13.02v-12.19c0-5.27,1.26-9.57,3.78-12.91c2.52-3.34,6.07-5.01,10.65-5.01c4.58,0,8.17,1.68,10.78,5.03
	c2.61,3.36,3.92,7.65,3.92,12.88V298.24z M601.48,286.1c0-8.2-2.61-15-7.84-20.39c-5.22-5.39-12-8.09-20.32-8.09
	c-8.27,0-14.97,2.7-20.12,8.09c-5.15,5.39-7.72,12.19-7.72,20.39v12.07c0,8.23,2.58,15.04,7.74,20.42
	c5.16,5.38,11.88,8.06,20.14,8.06c8.33,0,15.1-2.69,20.3-8.06c5.21-5.38,7.81-12.18,7.81-20.42V286.1z M492.32,275.82v49.87h13.46
	v-36.26c0.95-1.32,2.13-2.35,3.55-3.07c1.41-0.72,3.01-1.08,4.79-1.08c2.73,0,4.78,0.7,6.13,2.1c1.35,1.4,2.03,3.78,2.03,7.14v31.18
	h13.51v-31.15c0-6.76-1.41-11.72-4.24-14.89c-2.83-3.16-6.76-4.75-11.8-4.75c-3.01,0-5.73,0.71-8.16,2.12
	c-2.43,1.41-4.47,3.4-6.13,5.95l-0.6-7.14H492.32z M468.36,287.83c1.34,1.71,2.01,3.99,2.01,6.84v1.2h-16.5l-0.14-0.23
	c0.34-3.1,1.23-5.61,2.67-7.51c1.44-1.91,3.41-2.86,5.9-2.86C465,285.27,467.02,286.13,468.36,287.83 M474.46,325.02
	c3.29-1.1,5.95-2.48,7.98-4.14l-3.64-8.31c-2.34,1.29-4.48,2.24-6.45,2.83c-1.96,0.6-4.44,0.9-7.42,0.9c-3.35,0-6-1.05-7.95-3.17
	c-1.95-2.11-3.05-4.8-3.29-8.08l0.09-0.27h29.77v-7.33c0-6.91-1.86-12.4-5.57-16.46c-3.72-4.05-8.94-6.08-15.67-6.08
	c-6.85-0.03-12.31,2.35-16.38,7.14c-4.07,4.79-6.11,10.89-6.11,18.3v1.84c0,7.1,2.15,12.95,6.45,17.56
	c4.3,4.61,10.05,6.91,17.24,6.91C467.52,326.66,471.18,326.11,474.46,325.02 M419.3,302.07c0,4.37-0.76,7.83-2.28,10.39
	c-1.52,2.55-3.91,3.83-7.17,3.83c-2.09,0-3.85-0.37-5.28-1.11c-1.43-0.74-2.56-1.81-3.39-3.23v-21.88c0.83-1.54,1.96-2.72,3.39-3.56
	c1.43-0.83,3.16-1.24,5.19-1.24c3.23,0,5.62,1.46,7.19,4.38c1.56,2.92,2.35,6.74,2.35,11.45V302.07z M432.75,301.17
	c0-7.86-1.7-14.21-5.11-19.03c-3.41-4.82-8.2-7.24-14.38-7.24c-2.76,0-5.18,0.59-7.26,1.77c-2.07,1.18-3.85,2.86-5.32,5.05
	l-0.78-5.9h-12.12v69.04h13.41v-23.92c1.45,1.87,3.18,3.29,5.21,4.26c2.03,0.97,4.35,1.45,6.96,1.45c6.11,0,10.88-2.24,14.29-6.73
	c3.41-4.48,5.11-10.42,5.11-17.79V301.17z M365.96,298.24c0,5.32-1.29,9.66-3.87,13.02c-2.58,3.35-6.18,5.03-10.79,5.03
	c-4.55,0-8.09-1.68-10.65-5.03c-2.55-3.36-3.82-7.7-3.82-13.02v-12.19c0-5.27,1.26-9.57,3.78-12.91c2.52-3.34,6.07-5.01,10.65-5.01
	c4.58,0,8.17,1.68,10.78,5.03c2.61,3.36,3.92,7.65,3.92,12.88V298.24z M379.42,286.1c0-8.2-2.61-15-7.84-20.39
	c-5.22-5.39-12-8.09-20.32-8.09c-8.27,0-14.97,2.7-20.12,8.09c-5.15,5.39-7.72,12.19-7.72,20.39v12.07c0,8.23,2.58,15.04,7.74,20.42
	c5.16,5.38,11.88,8.06,20.14,8.06c8.33,0,15.1-2.69,20.3-8.06c5.21-5.38,7.81-12.18,7.81-20.42V286.1z"/>
<rect x="124.8" y="332.29" class="st0" width="67.52" height="67.52"/>
<rect x="57.75" y="257.76" class="st0" width="67.52" height="67.52"/>
<rect x="713.44" y="257.93" class="st0" width="68.52" height="67.52"/>
</svg>
