<?xml version="1.0" encoding="UTF-8" standalone="no"?>
<!DOCTYPE svg PUBLIC "-//W3C//DTD SVG 1.1//EN" "http://www.w3.org/Graphics/SVG/1.1/DTD/svg11.dtd">
<svg width="100%" height="100%" viewBox="0 0 16 16" version="1.1" xmlns="http://www.w3.org/2000/svg" xmlns:xlink="http://www.w3.org/1999/xlink" xml:space="preserve" xmlns:serif="http://www.serif.com/" style="fill-rule:evenodd;clip-rule:evenodd;stroke-linejoin:round;stroke-miterlimit:2;">
    <g transform="matrix(1,0,0,1,-100,0)">
        <g id="distribute-h" transform="matrix(0.0636019,0,0,0.112627,112.644,-3.52201)">
            <rect x="-198.807" y="31.271" width="251.565" height="142.061" style="fill:none;"/>
            <g transform="matrix(15.7228,0,0,8.87884,-73.0243,102.302)">
                <g transform="matrix(1,0,0,1,-8,-8)">
                    <path d="M1,1.5C1,1.774 1.226,2 1.5,2L14.5,2C14.774,2 15,1.774 15,1.5C15,1.226 14.774,1 14.5,1L1.5,1C1.226,1 1,1.226 1,1.5ZM1,14.5C1,14.774 1.226,15 1.5,15L14.5,15C14.774,15 15,14.774 15,14.5C15,14.226 14.774,14 14.5,14L1.5,14C1.226,14 1,14.226 1,14.5Z"/>
                    <path d="M2,7C2,6.451 2.451,6 3,6L13,6C13.549,6 14,6.451 14,7L14,9C14,9.549 13.549,10 13,10L3,10C2.451,10 2,9.549 2,9L2,7Z" style="fill-rule:nonzero;"/>
                </g>
            </g>
        </g>
    </g>
</svg>
