<?xml version="1.0" encoding="UTF-8" standalone="no"?><!DOCTYPE svg PUBLIC "-//W3C//DTD SVG 1.1//EN" "http://www.w3.org/Graphics/SVG/1.1/DTD/svg11.dtd"><svg width="100%" height="100%" viewBox="0 0 67 67" version="1.1" xmlns="http://www.w3.org/2000/svg" xmlns:xlink="http://www.w3.org/1999/xlink" xml:space="preserve" xmlns:serif="http://www.serif.com/" style="fill-rule:evenodd;clip-rule:evenodd;stroke-linejoin:round;stroke-miterlimit:2;"><rect id="equal-size" x="-0" y="0" width="66.667" height="66.667" style="fill:none;"/><path d="M12.5,31.439l4.545,0l0,-19.805c0,-1.613 1.31,-2.922 2.923,-2.922l35.064,0c1.613,0 2.923,1.309 2.923,2.922l-0,35.065c-0,1.613 -1.31,2.922 -2.923,2.922l-19.805,0l0,4.546l23.702,-0c1.971,-0 3.571,-1.601 3.571,-3.572l-0,-42.857c-0,-1.971 -1.6,-3.571 -3.571,-3.571l-42.858,-0c-1.971,-0 -3.571,1.6 -3.571,3.571l-0,23.701Z"/><path d="M33.333,40.625c0,-4.024 -3.267,-7.292 -7.291,-7.292l-14.584,0c-4.024,0 -7.291,3.268 -7.291,7.292l-0,14.583c-0,4.025 3.267,7.292 7.291,7.292l14.584,0c4.024,0 7.291,-3.267 7.291,-7.292l0,-14.583Z"/></svg>